<svg width="489" height="333" viewBox="0 0 489 333" fill="none" xmlns="http://www.w3.org/2000/svg">
<g filter="url(#filter0_dd_91_6904)">
<rect x="18" y="18" width="437" height="273" rx="24.7712" fill="white"/>
<path d="M44.2033 150.347H42.1132L45.9186 139.538H48.3359L52.1466 150.347H50.0565L47.1695 141.755H47.085L44.2033 150.347ZM44.2719 146.109H49.9721V147.682H44.2719V146.109ZM56.8001 150.506C55.9908 150.506 55.2959 150.328 54.7153 149.973C54.1383 149.617 53.6932 149.126 53.38 148.5C53.0704 147.87 52.9156 147.145 52.9156 146.325C52.9156 145.502 53.0739 144.776 53.3906 144.146C53.7072 143.512 54.1541 143.02 54.7312 142.668C55.3117 142.312 55.9979 142.135 56.7896 142.135C57.4476 142.135 58.0299 142.256 58.5366 142.499C59.0468 142.738 59.4532 143.078 59.7558 143.518C60.0584 143.954 60.2308 144.464 60.273 145.048H58.4468C58.373 144.658 58.197 144.332 57.9191 144.072C57.6446 143.808 57.2769 143.676 56.816 143.676C56.4254 143.676 56.0823 143.782 55.7868 143.993C55.4912 144.2 55.2607 144.499 55.0953 144.89C54.9335 145.28 54.8526 145.748 54.8526 146.294C54.8526 146.846 54.9335 147.321 55.0953 147.719C55.2572 148.113 55.4842 148.417 55.7762 148.632C56.0718 148.843 56.4184 148.949 56.816 148.949C57.0975 148.949 57.349 148.896 57.5707 148.79C57.7959 148.681 57.9841 148.525 58.1354 148.321C58.2867 148.116 58.3905 147.868 58.4468 147.576H60.273C60.2273 148.15 60.0584 148.658 59.7663 149.102C59.4743 149.542 59.0767 149.886 58.5735 150.136C58.0704 150.382 57.4792 150.506 56.8001 150.506ZM63.7773 145.597V150.347H61.8667V139.538H63.7351V143.618H63.8301C64.0201 143.16 64.3139 142.8 64.7115 142.536C65.1126 142.269 65.6228 142.135 66.2421 142.135C66.8051 142.135 67.2959 142.253 67.7146 142.488C68.1334 142.724 68.4571 143.069 68.6858 143.523C68.918 143.977 69.0341 144.531 69.0341 145.185V150.347H67.1235V145.481C67.1235 144.936 66.9828 144.512 66.7013 144.209C66.4233 143.903 66.0327 143.75 65.5296 143.75C65.1918 143.75 64.8892 143.824 64.6218 143.972C64.3579 144.116 64.1503 144.325 63.999 144.6C63.8512 144.874 63.7773 145.207 63.7773 145.597ZM71.0065 150.347V142.24H72.9171V150.347H71.0065ZM71.967 141.09C71.6644 141.09 71.4041 140.989 71.1859 140.789C70.9678 140.585 70.8587 140.34 70.8587 140.055C70.8587 139.767 70.9678 139.522 71.1859 139.322C71.4041 139.118 71.6644 139.016 71.967 139.016C72.2732 139.016 72.5335 139.118 72.7482 139.322C72.9663 139.522 73.0754 139.767 73.0754 140.055C73.0754 140.34 72.9663 140.585 72.7482 140.789C72.5335 140.989 72.2732 141.09 71.967 141.09ZM82.1479 142.24L79.2609 150.347H77.1497L74.2627 142.24H76.2999L78.1631 148.262H78.2475L80.1159 142.24H82.1479ZM86.808 150.506C85.9952 150.506 85.2933 150.337 84.7021 149.999C84.1145 149.658 83.6624 149.176 83.3457 148.553C83.029 147.926 82.8707 147.189 82.8707 146.341C82.8707 145.507 83.029 144.776 83.3457 144.146C83.6659 143.512 84.1128 143.02 84.6863 142.668C85.2599 142.312 85.9337 142.135 86.7078 142.135C87.2074 142.135 87.6789 142.216 88.1223 142.378C88.5691 142.536 88.9632 142.782 89.3045 143.116C89.6493 143.451 89.9203 143.877 90.1173 144.394C90.3144 144.907 90.4129 145.52 90.4129 146.23V146.816H83.7679V145.529H88.5814C88.5779 145.163 88.4988 144.837 88.3439 144.552C88.1891 144.264 87.9727 144.037 87.6947 143.871C87.4203 143.706 87.1001 143.623 86.7342 143.623C86.3436 143.623 86.0005 143.718 85.705 143.908C85.4094 144.095 85.1789 144.341 85.0135 144.647C84.8517 144.95 84.769 145.282 84.7655 145.645V146.769C84.7655 147.24 84.8517 147.645 85.0241 147.983C85.1965 148.317 85.4375 148.574 85.7472 148.753C86.0568 148.929 86.4192 149.017 86.8344 149.017C87.1124 149.017 87.364 148.979 87.5892 148.901C87.8144 148.82 88.0097 148.702 88.175 148.548C88.3404 148.393 88.4653 148.201 88.5498 147.972L90.3337 148.173C90.2211 148.644 90.0065 149.056 89.6898 149.408C89.3767 149.756 88.9755 150.027 88.4864 150.221C87.9973 150.411 87.4379 150.506 86.808 150.506ZM92.054 150.347V142.24H93.8802V143.618H93.9752C94.1441 143.153 94.4238 142.791 94.8144 142.531C95.205 142.267 95.6712 142.135 96.2131 142.135C96.762 142.135 97.2247 142.269 97.6012 142.536C97.9812 142.8 98.2486 143.16 98.4034 143.618H98.4879C98.6673 143.168 98.9699 142.809 99.3957 142.541C99.8249 142.27 100.333 142.135 100.921 142.135C101.667 142.135 102.276 142.371 102.747 142.842C103.219 143.314 103.454 144.001 103.454 144.906V150.347H101.539V145.201C101.539 144.698 101.405 144.33 101.137 144.098C100.87 143.862 100.543 143.745 100.156 143.745C99.6947 143.745 99.3341 143.889 99.0737 144.177C98.8169 144.462 98.6884 144.834 98.6884 145.291V150.347H96.8147V145.122C96.8147 144.703 96.6881 144.369 96.4347 144.119C96.1849 143.869 95.8577 143.745 95.453 143.745C95.1786 143.745 94.9288 143.815 94.7036 143.956C94.4784 144.093 94.2989 144.288 94.1652 144.542C94.0315 144.791 93.9647 145.083 93.9647 145.418V150.347H92.054ZM109.007 150.506C108.194 150.506 107.492 150.337 106.901 149.999C106.313 149.658 105.861 149.176 105.544 148.553C105.228 147.926 105.069 147.189 105.069 146.341C105.069 145.507 105.228 144.776 105.544 144.146C105.864 143.512 106.311 143.02 106.885 142.668C107.458 142.312 108.132 142.135 108.906 142.135C109.406 142.135 109.877 142.216 110.321 142.378C110.768 142.536 111.162 142.782 111.503 143.116C111.848 143.451 112.119 143.877 112.316 144.394C112.513 144.907 112.611 145.52 112.611 146.23V146.816H105.966V145.529H110.78C110.776 145.163 110.697 144.837 110.542 144.552C110.388 144.264 110.171 144.037 109.893 143.871C109.619 143.706 109.299 143.623 108.933 143.623C108.542 143.623 108.199 143.718 107.903 143.908C107.608 144.095 107.377 144.341 107.212 144.647C107.05 144.95 106.967 145.282 106.964 145.645V146.769C106.964 147.24 107.05 147.645 107.223 147.983C107.395 148.317 107.636 148.574 107.946 148.753C108.255 148.929 108.618 149.017 109.033 149.017C109.311 149.017 109.562 148.979 109.788 148.901C110.013 148.82 110.208 148.702 110.374 148.548C110.539 148.393 110.664 148.201 110.748 147.972L112.532 148.173C112.42 148.644 112.205 149.056 111.888 149.408C111.575 149.756 111.174 150.027 110.685 150.221C110.196 150.411 109.636 150.506 109.007 150.506ZM116.163 145.597V150.347H114.253V142.24H116.079V143.618H116.174C116.36 143.164 116.657 142.803 117.066 142.536C117.477 142.269 117.986 142.135 118.591 142.135C119.15 142.135 119.638 142.254 120.053 142.494C120.472 142.733 120.795 143.08 121.024 143.533C121.256 143.987 121.371 144.538 121.367 145.185V150.347H119.457V145.481C119.457 144.939 119.316 144.515 119.034 144.209C118.756 143.903 118.371 143.75 117.878 143.75C117.544 143.75 117.247 143.824 116.986 143.972C116.73 144.116 116.527 144.325 116.38 144.6C116.235 144.874 116.163 145.207 116.163 145.597ZM127.382 142.24V143.718H122.722V142.24H127.382ZM123.873 140.298H125.783V147.909C125.783 148.166 125.822 148.363 125.899 148.5C125.98 148.634 126.086 148.725 126.216 148.774C126.346 148.824 126.49 148.848 126.649 148.848C126.768 148.848 126.878 148.84 126.976 148.822C127.078 148.804 127.155 148.789 127.208 148.774L127.53 150.268C127.428 150.303 127.282 150.342 127.092 150.384C126.906 150.426 126.677 150.451 126.406 150.458C125.927 150.472 125.496 150.4 125.113 150.242C124.729 150.08 124.425 149.83 124.2 149.492C123.978 149.154 123.869 148.732 123.873 148.226V140.298ZM136.765 142.24V143.718H132.104V142.24H136.765ZM133.255 140.298H135.165V147.909C135.165 148.166 135.204 148.363 135.282 148.5C135.363 148.634 135.468 148.725 135.598 148.774C135.728 148.824 135.873 148.848 136.031 148.848C136.151 148.848 136.26 148.84 136.358 148.822C136.46 148.804 136.538 148.789 136.591 148.774L136.912 150.268C136.81 150.303 136.664 150.342 136.474 150.384C136.288 150.426 136.059 150.451 135.788 150.458C135.31 150.472 134.879 150.4 134.495 150.242C134.112 150.08 133.807 149.83 133.582 149.492C133.36 149.154 133.251 148.732 133.255 148.226V140.298ZM141.889 150.506C141.077 150.506 140.375 150.337 139.783 149.999C139.196 149.658 138.744 149.176 138.427 148.553C138.11 147.926 137.952 147.189 137.952 146.341C137.952 145.507 138.11 144.776 138.427 144.146C138.747 143.512 139.194 143.02 139.768 142.668C140.341 142.312 141.015 142.135 141.789 142.135C142.289 142.135 142.76 142.216 143.204 142.378C143.65 142.536 144.044 142.782 144.386 143.116C144.731 143.451 145.002 143.877 145.199 144.394C145.396 144.907 145.494 145.52 145.494 146.23V146.816H138.849V145.529H143.663C143.659 145.163 143.58 144.837 143.425 144.552C143.27 144.264 143.054 144.037 142.776 143.871C142.502 143.706 142.181 143.623 141.815 143.623C141.425 143.623 141.082 143.718 140.786 143.908C140.491 144.095 140.26 144.341 140.095 144.647C139.933 144.95 139.85 145.282 139.847 145.645V146.769C139.847 147.24 139.933 147.645 140.105 147.983C140.278 148.317 140.519 148.574 140.828 148.753C141.138 148.929 141.501 149.017 141.916 149.017C142.194 149.017 142.445 148.979 142.67 148.901C142.896 148.82 143.091 148.702 143.256 148.548C143.422 148.393 143.547 148.201 143.631 147.972L145.415 148.173C145.302 148.644 145.088 149.056 144.771 149.408C144.458 149.756 144.057 150.027 143.568 150.221C143.079 150.411 142.519 150.506 141.889 150.506ZM153.543 144.383L151.801 144.573C151.752 144.397 151.666 144.232 151.542 144.077C151.423 143.922 151.261 143.797 151.057 143.702C150.853 143.607 150.603 143.56 150.307 143.56C149.91 143.56 149.575 143.646 149.305 143.818C149.037 143.991 148.905 144.214 148.909 144.489C148.905 144.725 148.991 144.916 149.167 145.064C149.347 145.212 149.642 145.333 150.054 145.428L151.437 145.724C152.204 145.889 152.774 146.151 153.147 146.51C153.523 146.869 153.713 147.339 153.717 147.919C153.713 148.43 153.564 148.88 153.268 149.271C152.976 149.658 152.57 149.96 152.049 150.178C151.528 150.397 150.93 150.506 150.255 150.506C149.262 150.506 148.464 150.298 147.858 149.883C147.253 149.464 146.893 148.882 146.776 148.136L148.64 147.956C148.724 148.322 148.903 148.599 149.178 148.785C149.452 148.972 149.809 149.065 150.249 149.065C150.703 149.065 151.067 148.972 151.342 148.785C151.62 148.599 151.759 148.368 151.759 148.094C151.759 147.861 151.669 147.67 151.49 147.518C151.314 147.367 151.039 147.251 150.666 147.17L149.283 146.88C148.506 146.718 147.931 146.445 147.558 146.062C147.185 145.675 147 145.185 147.003 144.594C147 144.095 147.135 143.662 147.41 143.296C147.688 142.926 148.073 142.641 148.566 142.441C149.062 142.237 149.634 142.135 150.281 142.135C151.231 142.135 151.979 142.337 152.524 142.742C153.073 143.146 153.413 143.694 153.543 144.383ZM159.365 142.24V143.718H154.705V142.24H159.365ZM155.855 140.298H157.766V147.909C157.766 148.166 157.805 148.363 157.882 148.5C157.963 148.634 158.069 148.725 158.199 148.774C158.329 148.824 158.473 148.848 158.632 148.848C158.751 148.848 158.86 148.84 158.959 148.822C159.061 148.804 159.138 148.789 159.191 148.774L159.513 150.268C159.411 150.303 159.265 150.342 159.075 150.384C158.889 150.426 158.66 150.451 158.389 150.458C157.91 150.472 157.479 150.4 157.096 150.242C156.712 150.08 156.408 149.83 156.183 149.492C155.961 149.154 155.852 148.732 155.855 148.226V140.298ZM167.279 144.383L165.538 144.573C165.488 144.397 165.402 144.232 165.279 144.077C165.159 143.922 164.997 143.797 164.793 143.702C164.589 143.607 164.34 143.56 164.044 143.56C163.646 143.56 163.312 143.646 163.041 143.818C162.774 143.991 162.642 144.214 162.645 144.489C162.642 144.725 162.728 144.916 162.904 145.064C163.083 145.212 163.379 145.333 163.791 145.428L165.173 145.724C165.94 145.889 166.511 146.151 166.883 146.51C167.26 146.869 167.45 147.339 167.453 147.919C167.45 148.43 167.3 148.88 167.005 149.271C166.713 149.658 166.306 149.96 165.786 150.178C165.265 150.397 164.667 150.506 163.991 150.506C162.999 150.506 162.2 150.298 161.595 149.883C160.99 149.464 160.629 148.882 160.513 148.136L162.376 147.956C162.461 148.322 162.64 148.599 162.914 148.785C163.189 148.972 163.546 149.065 163.986 149.065C164.44 149.065 164.804 148.972 165.078 148.785C165.356 148.599 165.495 148.368 165.495 148.094C165.495 147.861 165.406 147.67 165.226 147.518C165.05 147.367 164.776 147.251 164.403 147.17L163.02 146.88C162.242 146.718 161.667 146.445 161.294 146.062C160.921 145.675 160.736 145.185 160.74 144.594C160.736 144.095 160.872 143.662 161.146 143.296C161.424 142.926 161.81 142.641 162.302 142.441C162.798 142.237 163.37 142.135 164.018 142.135C164.968 142.135 165.715 142.337 166.261 142.742C166.81 143.146 167.149 143.694 167.279 144.383Z" fill="black"/>
<g opacity="0.2">
<rect x="41.749" y="170.803" width="246.871" height="14.9807" rx="7.49034" fill="url(#paint0_linear_91_6904)"/>
</g>
<rect x="40.9658" y="170.803" width="94.1947" height="14.9807" rx="7.49034" fill="url(#paint1_linear_91_6904)"/>
<path d="M341.774 178.958C341.014 178.958 340.339 178.828 339.747 178.568C339.16 178.308 338.695 177.945 338.354 177.481C338.013 177.016 337.832 176.48 337.81 175.871H339.795C339.813 176.163 339.909 176.418 340.085 176.636C340.261 176.851 340.495 177.018 340.787 177.138C341.079 177.257 341.406 177.317 341.769 177.317C342.156 177.317 342.499 177.25 342.798 177.116C343.097 176.979 343.331 176.789 343.5 176.546C343.669 176.304 343.752 176.024 343.748 175.707C343.752 175.38 343.667 175.091 343.495 174.842C343.322 174.592 343.073 174.397 342.745 174.256C342.422 174.115 342.031 174.045 341.574 174.045H340.618V172.535H341.574C341.95 172.535 342.279 172.47 342.561 172.34C342.846 172.21 343.069 172.027 343.231 171.791C343.393 171.552 343.472 171.276 343.468 170.962C343.472 170.656 343.403 170.391 343.263 170.165C343.125 169.937 342.93 169.759 342.677 169.632C342.427 169.506 342.133 169.442 341.795 169.442C341.465 169.442 341.158 169.502 340.877 169.622C340.595 169.741 340.368 169.912 340.196 170.134C340.024 170.352 339.932 170.612 339.922 170.915H338.037C338.051 170.31 338.226 169.778 338.56 169.321C338.898 168.86 339.348 168.501 339.911 168.244C340.474 167.984 341.106 167.854 341.806 167.854C342.527 167.854 343.153 167.989 343.685 168.26C344.22 168.527 344.633 168.888 344.925 169.342C345.217 169.796 345.363 170.297 345.363 170.846C345.367 171.455 345.187 171.965 344.825 172.377C344.466 172.789 343.994 173.058 343.41 173.184V173.269C344.17 173.374 344.753 173.656 345.157 174.113C345.565 174.567 345.768 175.132 345.764 175.808C345.764 176.413 345.592 176.955 345.247 177.433C344.906 177.908 344.434 178.281 343.833 178.552C343.234 178.823 342.548 178.958 341.774 178.958ZM351.359 178.958C350.655 178.958 350.025 178.827 349.469 178.563C348.913 178.295 348.472 177.929 348.144 177.465C347.821 177 347.648 176.469 347.627 175.871H349.527C349.562 176.314 349.754 176.677 350.102 176.958C350.451 177.236 350.87 177.375 351.359 177.375C351.742 177.375 352.083 177.287 352.383 177.111C352.682 176.935 352.917 176.691 353.09 176.378C353.262 176.064 353.347 175.707 353.343 175.306C353.347 174.898 353.26 174.536 353.085 174.219C352.909 173.902 352.668 173.654 352.361 173.475C352.055 173.292 351.703 173.2 351.306 173.2C350.982 173.197 350.664 173.257 350.351 173.38C350.037 173.503 349.789 173.665 349.606 173.865L347.838 173.575L348.403 168.001H354.673V169.638H350.023L349.712 172.504H349.775C349.976 172.268 350.259 172.072 350.625 171.918C350.991 171.759 351.392 171.68 351.828 171.68C352.483 171.68 353.067 171.835 353.581 172.145C354.094 172.451 354.499 172.873 354.795 173.411C355.09 173.95 355.238 174.565 355.238 175.259C355.238 175.973 355.073 176.61 354.742 177.169C354.415 177.725 353.959 178.163 353.375 178.483C352.794 178.8 352.122 178.958 351.359 178.958ZM362.81 176.784V176.214C362.81 175.795 362.898 175.41 363.074 175.058C363.254 174.706 363.514 174.423 363.855 174.208C364.197 173.994 364.61 173.886 365.096 173.886C365.595 173.886 366.014 173.994 366.352 174.208C366.689 174.419 366.945 174.701 367.117 175.053C367.293 175.405 367.381 175.792 367.381 176.214V176.784C367.381 177.203 367.293 177.588 367.117 177.94C366.941 178.292 366.682 178.575 366.341 178.79C366.003 179.004 365.588 179.112 365.096 179.112C364.603 179.112 364.186 179.004 363.845 178.79C363.503 178.575 363.245 178.292 363.069 177.94C362.896 177.588 362.81 177.203 362.81 176.784ZM364.188 176.214V176.784C364.188 177.062 364.255 177.317 364.388 177.549C364.522 177.781 364.758 177.898 365.096 177.898C365.437 177.898 365.671 177.783 365.797 177.555C365.928 177.322 365.993 177.065 365.993 176.784V176.214C365.993 175.932 365.931 175.676 365.808 175.443C365.685 175.208 365.447 175.09 365.096 175.09C364.765 175.09 364.531 175.208 364.394 175.443C364.256 175.676 364.188 175.932 364.188 176.214ZM357.316 170.598V170.028C357.316 169.606 357.406 169.219 357.585 168.867C357.764 168.515 358.025 168.234 358.366 168.023C358.707 167.808 359.121 167.701 359.606 167.701C360.103 167.701 360.52 167.808 360.857 168.023C361.199 168.234 361.455 168.515 361.628 168.867C361.8 169.219 361.887 169.606 361.887 170.028V170.598C361.887 171.02 361.799 171.407 361.623 171.759C361.45 172.108 361.193 172.387 360.852 172.599C360.511 172.81 360.096 172.915 359.606 172.915C359.11 172.915 358.692 172.81 358.35 172.599C358.012 172.387 357.756 172.106 357.58 171.754C357.404 171.402 357.316 171.017 357.316 170.598ZM358.704 170.028V170.598C358.704 170.88 358.769 171.137 358.899 171.369C359.033 171.597 359.269 171.712 359.606 171.712C359.944 171.712 360.176 171.597 360.303 171.369C360.433 171.137 360.498 170.88 360.498 170.598V170.028C360.498 169.747 360.437 169.49 360.314 169.258C360.191 169.022 359.955 168.904 359.606 168.904C359.272 168.904 359.038 169.022 358.904 169.258C358.771 169.493 358.704 169.75 358.704 170.028ZM357.917 178.811L365.349 168.001H366.668L359.237 178.811H357.917Z" fill="black" fill-opacity="0.7"/>
<path d="M382.665 171.648H380.691C380.635 171.325 380.531 171.038 380.38 170.788C380.229 170.535 380.04 170.32 379.815 170.144C379.59 169.968 379.333 169.836 379.045 169.748C378.76 169.657 378.452 169.611 378.121 169.611C377.533 169.611 377.013 169.759 376.559 170.055C376.105 170.347 375.749 170.776 375.492 171.342C375.236 171.905 375.107 172.593 375.107 173.406C375.107 174.233 375.236 174.93 375.492 175.496C375.753 176.059 376.108 176.485 376.559 176.773C377.013 177.058 377.532 177.201 378.116 177.201C378.439 177.201 378.742 177.159 379.023 177.074C379.308 176.986 379.564 176.858 379.789 176.689C380.017 176.52 380.209 176.312 380.364 176.066C380.522 175.82 380.631 175.538 380.691 175.222L382.665 175.232C382.591 175.746 382.431 176.228 382.185 176.678C381.942 177.129 381.624 177.526 381.23 177.871C380.836 178.213 380.375 178.48 379.847 178.673C379.319 178.863 378.733 178.958 378.089 178.958C377.139 178.958 376.291 178.739 375.545 178.299C374.799 177.859 374.212 177.224 373.782 176.393C373.353 175.563 373.139 174.567 373.139 173.406C373.139 172.241 373.355 171.246 373.788 170.419C374.22 169.588 374.81 168.953 375.556 168.513C376.302 168.074 377.146 167.854 378.089 167.854C378.691 167.854 379.25 167.938 379.768 168.107C380.285 168.276 380.746 168.524 381.15 168.851C381.555 169.175 381.888 169.572 382.148 170.044C382.412 170.512 382.584 171.047 382.665 171.648ZM387.935 178.969C387.143 178.969 386.457 178.795 385.877 178.446C385.296 178.098 384.846 177.611 384.525 176.984C384.209 176.358 384.05 175.626 384.05 174.789C384.05 173.951 384.209 173.218 384.525 172.588C384.846 171.958 385.296 171.469 385.877 171.121C386.457 170.772 387.143 170.598 387.935 170.598C388.727 170.598 389.413 170.772 389.993 171.121C390.574 171.469 391.023 171.958 391.339 172.588C391.659 173.218 391.82 173.951 391.82 174.789C391.82 175.626 391.659 176.358 391.339 176.984C391.023 177.611 390.574 178.098 389.993 178.446C389.413 178.795 388.727 178.969 387.935 178.969ZM387.946 177.438C388.375 177.438 388.734 177.321 389.022 177.085C389.311 176.846 389.525 176.525 389.666 176.124C389.81 175.723 389.883 175.276 389.883 174.784C389.883 174.287 389.81 173.839 389.666 173.438C389.525 173.033 389.311 172.711 389.022 172.472C388.734 172.233 388.375 172.113 387.946 172.113C387.506 172.113 387.14 172.233 386.848 172.472C386.559 172.711 386.343 173.033 386.199 173.438C386.058 173.839 385.987 174.287 385.987 174.784C385.987 175.276 386.058 175.723 386.199 176.124C386.343 176.525 386.559 176.846 386.848 177.085C387.14 177.321 387.506 177.438 387.946 177.438ZM393.466 178.811V170.704H395.319V172.055H395.403C395.551 171.587 395.804 171.226 396.163 170.973C396.525 170.716 396.939 170.588 397.403 170.588C397.509 170.588 397.627 170.593 397.757 170.603C397.891 170.61 398.001 170.623 398.089 170.64V172.398C398.009 172.37 397.88 172.345 397.704 172.324C397.532 172.299 397.365 172.287 397.203 172.287C396.854 172.287 396.541 172.363 396.263 172.514C395.989 172.662 395.772 172.868 395.614 173.132C395.456 173.395 395.377 173.7 395.377 174.045V178.811H393.466ZM399.384 178.811V170.704H401.236V172.055H401.321C401.468 171.587 401.722 171.226 402.081 170.973C402.443 170.716 402.856 170.588 403.321 170.588C403.426 170.588 403.544 170.593 403.675 170.603C403.808 170.61 403.919 170.623 404.007 170.64V172.398C403.926 172.37 403.798 172.345 403.622 172.324C403.449 172.299 403.282 172.287 403.12 172.287C402.772 172.287 402.459 172.363 402.181 172.514C401.906 172.662 401.69 172.868 401.532 173.132C401.373 173.395 401.294 173.7 401.294 174.045V178.811H399.384ZM408.556 178.969C407.744 178.969 407.042 178.8 406.45 178.462C405.863 178.121 405.411 177.639 405.094 177.016C404.777 176.39 404.619 175.653 404.619 174.805C404.619 173.971 404.777 173.239 405.094 172.609C405.414 171.976 405.861 171.483 406.435 171.131C407.008 170.776 407.682 170.598 408.456 170.598C408.956 170.598 409.427 170.679 409.871 170.841C410.317 170.999 410.712 171.246 411.053 171.58C411.398 171.914 411.669 172.34 411.866 172.857C412.063 173.371 412.161 173.983 412.161 174.694V175.28H405.516V173.992H410.33C410.326 173.626 410.247 173.3 410.092 173.015C409.937 172.727 409.721 172.5 409.443 172.335C409.169 172.169 408.848 172.087 408.482 172.087C408.092 172.087 407.749 172.182 407.453 172.372C407.158 172.558 406.927 172.804 406.762 173.11C406.6 173.413 406.517 173.746 406.514 174.108V175.232C406.514 175.704 406.6 176.108 406.772 176.446C406.945 176.78 407.186 177.037 407.495 177.217C407.805 177.393 408.168 177.481 408.583 177.481C408.861 177.481 409.112 177.442 409.337 177.365C409.563 177.284 409.758 177.166 409.923 177.011C410.089 176.856 410.214 176.664 410.298 176.436L412.082 176.636C411.969 177.108 411.755 177.519 411.438 177.871C411.125 178.22 410.724 178.49 410.235 178.684C409.746 178.874 409.186 178.969 408.556 178.969ZM417.339 178.969C416.529 178.969 415.834 178.791 415.254 178.436C414.677 178.081 414.232 177.59 413.918 176.963C413.609 176.334 413.454 175.609 413.454 174.789C413.454 173.966 413.612 173.239 413.929 172.609C414.246 171.976 414.693 171.483 415.27 171.131C415.85 170.776 416.536 170.598 417.328 170.598C417.986 170.598 418.568 170.72 419.075 170.962C419.585 171.202 419.992 171.541 420.294 171.981C420.597 172.417 420.769 172.928 420.811 173.512H418.985C418.911 173.121 418.735 172.796 418.457 172.535C418.183 172.271 417.815 172.139 417.354 172.139C416.964 172.139 416.621 172.245 416.325 172.456C416.03 172.664 415.799 172.963 415.634 173.353C415.472 173.744 415.391 174.212 415.391 174.757C415.391 175.31 415.472 175.785 415.634 176.182C415.796 176.576 416.023 176.881 416.315 177.095C416.61 177.306 416.957 177.412 417.354 177.412C417.636 177.412 417.887 177.359 418.109 177.254C418.334 177.145 418.523 176.988 418.674 176.784C418.825 176.58 418.929 176.332 418.985 176.04H420.811C420.766 176.613 420.597 177.122 420.305 177.565C420.013 178.005 419.615 178.35 419.112 178.6C418.609 178.846 418.018 178.969 417.339 178.969ZM426.453 170.704V172.182H421.793V170.704H426.453ZM422.943 168.761H424.854V176.372C424.854 176.629 424.893 176.826 424.97 176.963C425.051 177.097 425.157 177.189 425.287 177.238C425.417 177.287 425.561 177.312 425.72 177.312C425.839 177.312 425.948 177.303 426.047 177.285C426.149 177.268 426.226 177.252 426.279 177.238L426.601 178.731C426.499 178.767 426.353 178.805 426.163 178.848C425.976 178.89 425.748 178.914 425.477 178.922C424.998 178.936 424.567 178.863 424.184 178.705C423.8 178.543 423.496 178.293 423.271 177.956C423.049 177.618 422.94 177.196 422.943 176.689V168.761Z" fill="black" fill-opacity="0.3"/>
<path d="M42.031 63.4597V52.6505H46.0845C46.9149 52.6505 47.6115 52.8053 48.1745 53.1149C48.741 53.4246 49.1685 53.8503 49.4571 54.3922C49.7491 54.9305 49.8951 55.5428 49.8951 56.2289C49.8951 56.9221 49.7491 57.5379 49.4571 58.0762C49.165 58.6146 48.734 59.0386 48.164 59.3482C47.594 59.6543 46.892 59.8074 46.0581 59.8074H43.3716V58.1976H45.7942C46.2797 58.1976 46.6773 58.1132 46.987 57.9443C47.2966 57.7754 47.5253 57.5431 47.6731 57.2476C47.8244 56.952 47.9001 56.6125 47.9001 56.2289C47.9001 55.8454 47.8244 55.5076 47.6731 55.2156C47.5253 54.9235 47.2949 54.6966 46.9817 54.5347C46.6721 54.3693 46.2727 54.2866 45.7836 54.2866H43.9891V63.4597H42.031ZM51.5363 63.4597V55.3528H53.3888V56.7039H53.4733C53.6211 56.236 53.8744 55.8753 54.2333 55.622C54.5957 55.3651 55.0092 55.2367 55.4736 55.2367C55.5792 55.2367 55.6971 55.2419 55.8273 55.2525C55.961 55.2595 56.0718 55.2719 56.1598 55.2894V57.047C56.0788 57.0189 55.9504 56.9942 55.7745 56.9731C55.6021 56.9485 55.4349 56.9362 55.2731 56.9362C54.9247 56.9362 54.6116 57.0118 54.3336 57.1631C54.0591 57.3109 53.8427 57.5167 53.6844 57.7806C53.5261 58.0445 53.4469 58.3489 53.4469 58.6937V63.4597H51.5363ZM60.6563 63.6181C59.8646 63.6181 59.1785 63.4439 58.5979 63.0955C58.0173 62.7472 57.5669 62.2599 57.2467 61.6335C56.9301 61.0072 56.7717 60.2754 56.7717 59.4379C56.7717 58.6005 56.9301 57.8668 57.2467 57.237C57.5669 56.6072 58.0173 56.1181 58.5979 55.7697C59.1785 55.4214 59.8646 55.2472 60.6563 55.2472C61.448 55.2472 62.1341 55.4214 62.7147 55.7697C63.2953 56.1181 63.7439 56.6072 64.0606 57.237C64.3808 57.8668 64.5409 58.6005 64.5409 59.4379C64.5409 60.2754 64.3808 61.0072 64.0606 61.6335C63.7439 62.2599 63.2953 62.7472 62.7147 63.0955C62.1341 63.4439 61.448 63.6181 60.6563 63.6181ZM60.6668 62.0874C61.0961 62.0874 61.455 61.9696 61.7435 61.7338C62.0321 61.4946 62.2467 61.1744 62.3875 60.7732C62.5317 60.3721 62.6039 59.9252 62.6039 59.4326C62.6039 58.9365 62.5317 58.4879 62.3875 58.0868C62.2467 57.6821 62.0321 57.3602 61.7435 57.1209C61.455 56.8816 61.0961 56.762 60.6668 56.762C60.227 56.762 59.8611 56.8816 59.569 57.1209C59.2805 57.3602 59.0641 57.6821 58.9198 58.0868C58.7791 58.4879 58.7087 58.9365 58.7087 59.4326C58.7087 59.9252 58.7791 60.3721 58.9198 60.7732C59.0641 61.1744 59.2805 61.4946 59.569 61.7338C59.8611 61.9696 60.227 62.0874 60.6668 62.0874ZM68.0979 58.7096V63.4597H66.1873V55.3528H68.0135V56.7303H68.1085C68.2949 56.2764 68.5923 55.9158 69.0004 55.6483C69.4121 55.3809 69.9206 55.2472 70.5258 55.2472C71.0852 55.2472 71.5726 55.3669 71.9878 55.6061C72.4065 55.8454 72.7302 56.192 72.9589 56.6459C73.1911 57.0998 73.3055 57.6504 73.302 58.2979V63.4597H71.3913V58.5934C71.3913 58.0516 71.2506 57.6276 70.9691 57.3215C70.6911 57.0153 70.3058 56.8623 69.8132 56.8623C69.479 56.8623 69.1816 56.9362 68.9213 57.0839C68.6644 57.2282 68.4621 57.4376 68.3143 57.712C68.17 57.9865 68.0979 58.319 68.0979 58.7096ZM80.4361 60.0502V55.3528H82.3468V63.4597H80.4942V62.0188H80.4097C80.2268 62.4727 79.9259 62.844 79.5072 63.1325C79.092 63.421 78.5801 63.5653 77.9713 63.5653C77.44 63.5653 76.9703 63.4474 76.5621 63.2117C76.1575 62.9724 75.8408 62.6258 75.6121 62.1719C75.3834 61.7145 75.269 61.162 75.269 60.5146V55.3528H77.1796V60.2191C77.1796 60.7328 77.3204 61.1409 77.6019 61.4435C77.8834 61.7461 78.2528 61.8974 78.7102 61.8974C78.9917 61.8974 79.2644 61.8288 79.5283 61.6916C79.7922 61.5544 80.0086 61.3503 80.1775 61.0794C80.3499 60.8049 80.4361 60.4618 80.4361 60.0502ZM86.2469 58.7096V63.4597H84.3362V55.3528H86.1624V56.7303H86.2574C86.4439 56.2764 86.7412 55.9158 87.1494 55.6483C87.5611 55.3809 88.0695 55.2472 88.6747 55.2472C89.2342 55.2472 89.7215 55.3669 90.1367 55.6061C90.5554 55.8454 90.8791 56.192 91.1079 56.6459C91.3401 57.0998 91.4544 57.6504 91.4509 58.2979V63.4597H89.5403V58.5934C89.5403 58.0516 89.3996 57.6276 89.1181 57.3215C88.8401 57.0153 88.4548 56.8623 87.9622 56.8623C87.6279 56.8623 87.3306 56.9362 87.0702 57.0839C86.8134 57.2282 86.611 57.4376 86.4633 57.712C86.319 57.9865 86.2469 58.319 86.2469 58.7096ZM96.9542 63.6181C96.1449 63.6181 95.45 63.4404 94.8694 63.085C94.2924 62.7296 93.8473 62.2388 93.5341 61.6124C93.2245 60.9826 93.0696 60.2578 93.0696 59.4379C93.0696 58.6146 93.228 57.888 93.5447 57.2581C93.8613 56.6248 94.3082 56.1322 94.8853 55.7803C95.4658 55.4249 96.152 55.2472 96.9437 55.2472C97.6016 55.2472 98.184 55.3686 98.6907 55.6114C99.2009 55.8507 99.6073 56.1902 99.9099 56.63C100.212 57.0664 100.385 57.5766 100.427 58.1607H98.6009C98.527 57.7701 98.3511 57.4446 98.0731 57.1842C97.7987 56.9203 97.431 56.7884 96.97 56.7884C96.5795 56.7884 96.2364 56.8939 95.9408 57.1051C95.6453 57.3127 95.4148 57.6117 95.2494 58.0023C95.0876 58.3929 95.0066 58.8609 95.0066 59.4062C95.0066 59.9587 95.0876 60.4337 95.2494 60.8313C95.4113 61.2254 95.6382 61.5297 95.9303 61.7444C96.2259 61.9555 96.5724 62.0611 96.97 62.0611C97.2515 62.0611 97.5031 62.0083 97.7248 61.9027C97.95 61.7936 98.1382 61.6371 98.2895 61.433C98.4408 61.2289 98.5446 60.9808 98.6009 60.6888H100.427C100.381 61.2623 100.212 61.7708 99.9204 62.2141C99.6284 62.6539 99.2308 62.9988 98.7276 63.2486C98.2244 63.4949 97.6333 63.6181 96.9542 63.6181ZM102.021 63.4597V55.3528H103.931V63.4597H102.021ZM102.981 54.2022C102.679 54.2022 102.418 54.1019 102.2 53.9013C101.982 53.6973 101.873 53.4527 101.873 53.1677C101.873 52.8792 101.982 52.6346 102.2 52.4341C102.418 52.23 102.679 52.128 102.981 52.128C103.287 52.128 103.548 52.23 103.762 52.4341C103.981 52.6346 104.09 52.8792 104.09 53.1677C104.09 53.4527 103.981 53.6973 103.762 53.9013C103.548 54.1019 103.287 54.2022 102.981 54.2022ZM108.254 63.6233C107.74 63.6233 107.277 63.5318 106.866 63.3489C106.457 63.1624 106.134 62.8879 105.894 62.5255C105.659 62.1631 105.541 61.7162 105.541 61.1849C105.541 60.7275 105.625 60.3492 105.794 60.0502C105.963 59.7511 106.194 59.5118 106.486 59.3324C106.778 59.1529 107.107 59.0174 107.473 58.926C107.842 58.831 108.224 58.7623 108.618 58.7201C109.093 58.6709 109.478 58.6269 109.774 58.5882C110.069 58.5459 110.284 58.4826 110.418 58.3982C110.555 58.3102 110.624 58.1747 110.624 57.9918V57.9601C110.624 57.5625 110.506 57.2546 110.27 57.0364C110.034 56.8183 109.695 56.7092 109.251 56.7092C108.783 56.7092 108.412 56.8113 108.138 57.0153C107.867 57.2194 107.684 57.4604 107.589 57.7384L105.805 57.4851C105.945 56.9925 106.178 56.5808 106.501 56.25C106.825 55.9158 107.221 55.6659 107.689 55.5006C108.157 55.3317 108.674 55.2472 109.241 55.2472C109.631 55.2472 110.02 55.293 110.407 55.3844C110.794 55.4759 111.148 55.6272 111.468 55.8384C111.788 56.046 112.045 56.3292 112.239 56.6881C112.436 57.047 112.534 57.4956 112.534 58.034V63.4597H110.697V62.3461H110.634C110.518 62.5713 110.354 62.7824 110.143 62.9794C109.936 63.1729 109.673 63.3295 109.357 63.4492C109.044 63.5653 108.676 63.6233 108.254 63.6233ZM108.75 62.2194C109.133 62.2194 109.466 62.1437 109.747 61.9924C110.029 61.8376 110.245 61.6335 110.397 61.3802C110.551 61.1269 110.629 60.8506 110.629 60.5516V59.5963C110.569 59.6455 110.467 59.6913 110.323 59.7335C110.182 59.7757 110.024 59.8127 109.848 59.8443C109.672 59.876 109.498 59.9041 109.325 59.9288C109.153 59.9534 109.003 59.9745 108.877 59.9921C108.591 60.0308 108.336 60.0941 108.111 60.1821C107.886 60.2701 107.708 60.3932 107.578 60.5516C107.448 60.7064 107.383 60.9069 107.383 61.1533C107.383 61.5051 107.511 61.7708 107.768 61.9502C108.025 62.1297 108.352 62.2194 108.75 62.2194ZM118.528 55.3528V56.8306H113.868V55.3528H118.528ZM115.018 53.4105H116.929V61.0213C116.929 61.2782 116.968 61.4752 117.045 61.6124C117.126 61.7461 117.232 61.8376 117.362 61.8869C117.492 61.9361 117.636 61.9608 117.795 61.9608C117.914 61.9608 118.023 61.952 118.122 61.9344C118.224 61.9168 118.301 61.901 118.354 61.8869L118.676 63.3805C118.574 63.4157 118.428 63.4544 118.238 63.4967C118.051 63.5389 117.823 63.5635 117.552 63.5706C117.073 63.5846 116.642 63.5125 116.259 63.3542C115.875 63.1923 115.571 62.9425 115.346 62.6047C115.124 62.2669 115.015 61.8447 115.018 61.338V53.4105ZM120.151 63.4597V55.3528H122.062V63.4597H120.151ZM121.112 54.2022C120.809 54.2022 120.549 54.1019 120.33 53.9013C120.112 53.6973 120.003 53.4527 120.003 53.1677C120.003 52.8792 120.112 52.6346 120.33 52.4341C120.549 52.23 120.809 52.128 121.112 52.128C121.418 52.128 121.678 52.23 121.893 52.4341C122.111 52.6346 122.22 52.8792 122.22 53.1677C122.22 53.4527 122.111 53.6973 121.893 53.9013C121.678 54.1019 121.418 54.2022 121.112 54.2022ZM127.587 63.6181C126.796 63.6181 126.109 63.4439 125.529 63.0955C124.948 62.7472 124.498 62.2599 124.178 61.6335C123.861 61.0072 123.703 60.2754 123.703 59.4379C123.703 58.6005 123.861 57.8668 124.178 57.237C124.498 56.6072 124.948 56.1181 125.529 55.7697C126.109 55.4214 126.796 55.2472 127.587 55.2472C128.379 55.2472 129.065 55.4214 129.646 55.7697C130.226 56.1181 130.675 56.6072 130.992 57.237C131.312 57.8668 131.472 58.6005 131.472 59.4379C131.472 60.2754 131.312 61.0072 130.992 61.6335C130.675 62.2599 130.226 62.7472 129.646 63.0955C129.065 63.4439 128.379 63.6181 127.587 63.6181ZM127.598 62.0874C128.027 62.0874 128.386 61.9696 128.675 61.7338C128.963 61.4946 129.178 61.1744 129.318 60.7732C129.463 60.3721 129.535 59.9252 129.535 59.4326C129.535 58.9365 129.463 58.4879 129.318 58.0868C129.178 57.6821 128.963 57.3602 128.675 57.1209C128.386 56.8816 128.027 56.762 127.598 56.762C127.158 56.762 126.792 56.8816 126.5 57.1209C126.211 57.3602 125.995 57.6821 125.851 58.0868C125.71 58.4879 125.64 58.9365 125.64 59.4326C125.64 59.9252 125.71 60.3721 125.851 60.7732C125.995 61.1744 126.211 61.4946 126.5 61.7338C126.792 61.9696 127.158 62.0874 127.598 62.0874ZM135.029 58.7096V63.4597H133.118V55.3528H134.944V56.7303H135.039C135.226 56.2764 135.523 55.9158 135.931 55.6483C136.343 55.3809 136.852 55.2472 137.457 55.2472C138.016 55.2472 138.504 55.3669 138.919 55.6061C139.337 55.8454 139.661 56.192 139.89 56.6459C140.122 57.0998 140.236 57.6504 140.233 58.2979V63.4597H138.322V58.5934C138.322 58.0516 138.182 57.6276 137.9 57.3215C137.622 57.0153 137.237 56.8623 136.744 56.8623C136.41 56.8623 136.113 56.9362 135.852 57.0839C135.595 57.2282 135.393 57.4376 135.245 57.712C135.101 57.9865 135.029 58.319 135.029 58.7096Z" fill="black"/>
<g opacity="0.2">
<rect x="41.749" y="83.9153" width="246.871" height="14.9807" rx="7.49034" fill="url(#paint2_linear_91_6904)"/>
</g>
<rect x="40.9658" y="83.9153" width="94.1947" height="14.9807" rx="7.49034" fill="url(#paint3_linear_91_6904)"/>
<path d="M338.155 91.923V90.5085L341.908 86.8297C342.267 86.4673 342.566 86.1454 342.805 85.8639C343.044 85.5824 343.224 85.3097 343.343 85.0458C343.463 84.7819 343.523 84.5004 343.523 84.2013C343.523 83.86 343.445 83.568 343.291 83.3252C343.136 83.0789 342.923 82.8889 342.652 82.7552C342.381 82.6215 342.073 82.5546 341.728 82.5546C341.373 82.5546 341.062 82.6285 340.794 82.7763C340.527 82.9205 340.319 83.1264 340.171 83.3938C340.027 83.6612 339.955 83.9797 339.955 84.3491H338.092C338.092 83.663 338.248 83.0666 338.562 82.5599C338.875 82.0532 339.306 81.6609 339.855 81.3829C340.407 81.1049 341.04 80.9659 341.755 80.9659C342.48 80.9659 343.116 81.1014 343.665 81.3723C344.214 81.6433 344.64 82.0145 344.943 82.486C345.249 82.9575 345.402 83.4958 345.402 84.101C345.402 84.5057 345.324 84.9033 345.17 85.2939C345.015 85.6844 344.742 86.1172 344.351 86.5922C343.964 87.0673 343.421 87.6426 342.721 88.3181L340.857 90.2129V90.2868H345.565V91.923H338.155ZM351.253 92.0708C350.469 92.0708 349.772 91.9388 349.163 91.6749C348.558 91.411 348.083 91.0504 347.738 90.5929C347.397 90.132 347.228 89.6095 347.232 89.0254C347.228 88.5715 347.327 88.1545 347.527 87.7745C347.728 87.3945 347.999 87.0778 348.34 86.8245C348.685 86.5676 349.068 86.404 349.491 86.3336V86.2597C348.935 86.1366 348.484 85.8533 348.139 85.41C347.798 84.9631 347.629 84.4476 347.633 83.8635C347.629 83.3076 347.784 82.8115 348.097 82.3752C348.41 81.9388 348.84 81.5958 349.385 81.346C349.93 81.0926 350.553 80.9659 351.253 80.9659C351.947 80.9659 352.564 81.0926 353.106 81.346C353.651 81.5958 354.081 81.9388 354.394 82.3752C354.71 82.8115 354.869 83.3076 354.869 83.8635C354.869 84.4476 354.695 84.9631 354.346 85.41C354.001 85.8533 353.556 86.1366 353.011 86.2597V86.3336C353.433 86.404 353.813 86.5676 354.151 86.8245C354.492 87.0778 354.763 87.3945 354.964 87.7745C355.168 88.1545 355.27 88.5715 355.27 89.0254C355.27 89.6095 355.098 90.132 354.753 90.5929C354.408 91.0504 353.933 91.411 353.328 91.6749C352.726 91.9388 352.035 92.0708 351.253 92.0708ZM351.253 90.5613C351.658 90.5613 352.01 90.4926 352.309 90.3554C352.608 90.2147 352.84 90.0176 353.006 89.7643C353.171 89.5109 353.256 89.2189 353.259 88.8882C353.256 88.5433 353.166 88.239 352.99 87.9751C352.817 87.7076 352.58 87.4983 352.277 87.347C351.978 87.1957 351.637 87.12 351.253 87.12C350.866 87.12 350.522 87.1957 350.219 87.347C349.916 87.4983 349.677 87.7076 349.501 87.9751C349.329 88.239 349.244 88.5433 349.248 88.8882C349.244 89.2189 349.325 89.5109 349.491 89.7643C349.656 90.0141 349.888 90.2094 350.187 90.3501C350.49 90.4909 350.845 90.5613 351.253 90.5613ZM351.253 85.6369C351.584 85.6369 351.876 85.5701 352.13 85.4364C352.386 85.3027 352.589 85.1162 352.737 84.8769C352.884 84.6376 352.96 84.3614 352.963 84.0483C352.96 83.7386 352.886 83.4677 352.742 83.2355C352.598 82.9997 352.397 82.8185 352.14 82.6918C351.883 82.5616 351.588 82.4965 351.253 82.4965C350.912 82.4965 350.611 82.5616 350.351 82.6918C350.094 82.8185 349.893 82.9997 349.749 83.2355C349.608 83.4677 349.54 83.7386 349.543 84.0483C349.54 84.3614 349.61 84.6376 349.754 84.8769C349.902 85.1127 350.105 85.2991 350.361 85.4364C350.622 85.5701 350.919 85.6369 351.253 85.6369ZM362.809 89.8962V89.3262C362.809 88.9075 362.897 88.5222 363.073 88.1703C363.253 87.8185 363.513 87.5352 363.854 87.3206C364.196 87.106 364.609 86.9986 365.095 86.9986C365.594 86.9986 366.013 87.106 366.351 87.3206C366.688 87.5317 366.944 87.8132 367.116 88.1651C367.292 88.5169 367.38 88.904 367.38 89.3262V89.8962C367.38 90.315 367.292 90.7002 367.116 91.0521C366.94 91.404 366.681 91.6872 366.34 91.9019C366.002 92.1165 365.587 92.2238 365.095 92.2238C364.602 92.2238 364.185 92.1165 363.844 91.9019C363.502 91.6872 363.244 91.404 363.068 91.0521C362.895 90.7002 362.809 90.315 362.809 89.8962ZM364.187 89.3262V89.8962C364.187 90.1742 364.254 90.4293 364.387 90.6615C364.521 90.8938 364.757 91.0099 365.095 91.0099C365.436 91.0099 365.67 90.8955 365.797 90.6668C365.927 90.4346 365.992 90.1777 365.992 89.8962V89.3262C365.992 89.0447 365.93 88.7879 365.807 88.5556C365.684 88.3199 365.446 88.202 365.095 88.202C364.764 88.202 364.53 88.3199 364.393 88.5556C364.255 88.7879 364.187 89.0447 364.187 89.3262ZM357.315 83.7105V83.1405C357.315 82.7182 357.405 82.3312 357.584 81.9793C357.763 81.6274 358.024 81.346 358.365 81.1348C358.706 80.9202 359.12 80.8129 359.605 80.8129C360.102 80.8129 360.519 80.9202 360.856 81.1348C361.198 81.346 361.455 81.6274 361.627 81.9793C361.799 82.3312 361.886 82.7182 361.886 83.1405V83.7105C361.886 84.1327 361.798 84.5198 361.622 84.8716C361.449 85.22 361.192 85.4997 360.851 85.7108C360.51 85.9219 360.095 86.0275 359.605 86.0275C359.109 86.0275 358.691 85.9219 358.349 85.7108C358.012 85.4997 357.755 85.2182 357.579 84.8664C357.403 84.5145 357.315 84.1292 357.315 83.7105ZM358.703 83.1405V83.7105C358.703 83.992 358.768 84.2488 358.898 84.4811C359.032 84.7098 359.268 84.8241 359.605 84.8241C359.943 84.8241 360.175 84.7098 360.302 84.4811C360.432 84.2488 360.497 83.992 360.497 83.7105V83.1405C360.497 82.859 360.436 82.6021 360.313 82.3699C360.19 82.1341 359.954 82.0163 359.605 82.0163C359.271 82.0163 359.037 82.1341 358.903 82.3699C358.77 82.6056 358.703 82.8625 358.703 83.1405ZM357.917 91.923L365.348 81.1137H366.667L359.236 91.923H357.917Z" fill="black" fill-opacity="0.7"/>
<path d="M382.664 84.7608H380.69C380.634 84.4371 380.53 84.1503 380.379 83.9005C380.228 83.6471 380.039 83.4325 379.814 83.2566C379.589 83.0806 379.332 82.9487 379.044 82.8607C378.759 82.7692 378.451 82.7235 378.12 82.7235C377.532 82.7235 377.012 82.8713 376.558 83.1668C376.104 83.4589 375.748 83.8882 375.492 84.4547C375.235 85.0177 375.106 85.7055 375.106 86.5183C375.106 87.3452 375.235 88.0419 375.492 88.6084C375.752 89.1714 376.107 89.5972 376.558 89.8857C377.012 90.1707 377.531 90.3132 378.115 90.3132C378.438 90.3132 378.741 90.271 379.022 90.1865C379.307 90.0986 379.563 89.9701 379.788 89.8012C380.016 89.6323 380.208 89.4247 380.363 89.1784C380.521 88.9321 380.63 88.6506 380.69 88.334L382.664 88.3445C382.59 88.8582 382.43 89.3403 382.184 89.7907C381.941 90.2411 381.623 90.6387 381.229 90.9835C380.835 91.3248 380.374 91.5922 379.846 91.7857C379.318 91.9758 378.732 92.0708 378.088 92.0708C377.138 92.0708 376.29 91.8508 375.544 91.411C374.798 90.9712 374.211 90.3361 373.781 89.5057C373.352 88.6753 373.138 87.6795 373.138 86.5183C373.138 85.3537 373.354 84.3579 373.787 83.531C374.22 82.7006 374.809 82.0655 375.555 81.6257C376.301 81.1859 377.145 80.9659 378.088 80.9659C378.69 80.9659 379.249 81.0504 379.767 81.2193C380.284 81.3882 380.745 81.6362 381.149 81.9635C381.554 82.2872 381.887 82.6848 382.147 83.1563C382.411 83.6243 382.583 84.1591 382.664 84.7608ZM387.934 92.0813C387.142 92.0813 386.456 91.9071 385.876 91.5588C385.295 91.2104 384.845 90.7231 384.524 90.0968C384.208 89.4705 384.049 88.7386 384.049 87.9012C384.049 87.0637 384.208 86.3301 384.524 85.7003C384.845 85.0704 385.295 84.5813 385.876 84.233C386.456 83.8847 387.142 83.7105 387.934 83.7105C388.726 83.7105 389.412 83.8847 389.992 84.233C390.573 84.5813 391.022 85.0704 391.338 85.7003C391.658 86.3301 391.819 87.0637 391.819 87.9012C391.819 88.7386 391.658 89.4705 391.338 90.0968C391.022 90.7231 390.573 91.2104 389.992 91.5588C389.412 91.9071 388.726 92.0813 387.934 92.0813ZM387.945 90.5507C388.374 90.5507 388.733 90.4328 389.021 90.1971C389.31 89.9578 389.524 89.6376 389.665 89.2365C389.809 88.8354 389.882 88.3885 389.882 87.8959C389.882 87.3998 389.809 86.9511 389.665 86.55C389.524 86.1454 389.31 85.8234 389.021 85.5842C388.733 85.3449 388.374 85.2253 387.945 85.2253C387.505 85.2253 387.139 85.3449 386.847 85.5842C386.558 85.8234 386.342 86.1454 386.198 86.55C386.057 86.9511 385.986 87.3998 385.986 87.8959C385.986 88.3885 386.057 88.8354 386.198 89.2365C386.342 89.6376 386.558 89.9578 386.847 90.1971C387.139 90.4328 387.505 90.5507 387.945 90.5507ZM393.465 91.923V83.816H395.318V85.1672H395.402C395.55 84.6992 395.803 84.3386 396.162 84.0852C396.524 83.8284 396.938 83.6999 397.402 83.6999C397.508 83.6999 397.626 83.7052 397.756 83.7158C397.89 83.7228 398 83.7351 398.088 83.7527V85.5103C398.008 85.4821 397.879 85.4575 397.703 85.4364C397.531 85.4117 397.364 85.3994 397.202 85.3994C396.853 85.3994 396.54 85.4751 396.262 85.6264C395.988 85.7742 395.771 85.98 395.613 86.2439C395.455 86.5078 395.376 86.8122 395.376 87.157V91.923H393.465ZM399.383 91.923V83.816H401.235V85.1672H401.32C401.467 84.6992 401.721 84.3386 402.08 84.0852C402.442 83.8284 402.855 83.6999 403.32 83.6999C403.425 83.6999 403.543 83.7052 403.674 83.7158C403.807 83.7228 403.918 83.7351 404.006 83.7527V85.5103C403.925 85.4821 403.797 85.4575 403.621 85.4364C403.448 85.4117 403.281 85.3994 403.119 85.3994C402.771 85.3994 402.458 85.4751 402.18 85.6264C401.905 85.7742 401.689 85.98 401.531 86.2439C401.372 86.5078 401.293 86.8122 401.293 87.157V91.923H399.383ZM408.555 92.0813C407.743 92.0813 407.041 91.9124 406.449 91.5746C405.862 91.2333 405.41 90.7513 405.093 90.1285C404.776 89.5022 404.618 88.765 404.618 87.917C404.618 87.0831 404.776 86.3512 405.093 85.7214C405.413 85.088 405.86 84.5954 406.434 84.2436C407.007 83.8882 407.681 83.7105 408.455 83.7105C408.955 83.7105 409.426 83.7914 409.87 83.9533C410.316 84.1116 410.711 84.3579 411.052 84.6922C411.397 85.0264 411.668 85.4522 411.865 85.9694C412.062 86.4832 412.16 87.0954 412.16 87.8062V88.392H405.515V87.1042H410.329C410.325 86.7383 410.246 86.4128 410.091 86.1278C409.936 85.8393 409.72 85.6123 409.442 85.4469C409.168 85.2815 408.847 85.1989 408.481 85.1989C408.091 85.1989 407.748 85.2939 407.452 85.4839C407.157 85.6704 406.926 85.9167 406.761 86.2228C406.599 86.5254 406.516 86.8579 406.513 87.2203V88.3445C406.513 88.816 406.599 89.2207 406.771 89.5585C406.944 89.8927 407.185 90.1496 407.494 90.329C407.804 90.505 408.167 90.5929 408.582 90.5929C408.86 90.5929 409.111 90.5542 409.337 90.4768C409.562 90.3959 409.757 90.278 409.922 90.1232C410.088 89.9684 410.213 89.7766 410.297 89.5479L412.081 89.7485C411.968 90.22 411.754 90.6316 411.437 90.9835C411.124 91.3318 410.723 91.6028 410.234 91.7963C409.745 91.9863 409.185 92.0813 408.555 92.0813ZM417.338 92.0813C416.528 92.0813 415.833 91.9036 415.253 91.5482C414.676 91.1929 414.231 90.702 413.917 90.0757C413.608 89.4459 413.453 88.721 413.453 87.9012C413.453 87.0778 413.611 86.3512 413.928 85.7214C414.245 85.088 414.692 84.5954 415.269 84.2436C415.849 83.8882 416.535 83.7105 417.327 83.7105C417.985 83.7105 418.567 83.8319 419.074 84.0747C419.584 84.3139 419.991 84.6535 420.293 85.0933C420.596 85.5296 420.768 86.0398 420.81 86.6239H418.984C418.91 86.2333 418.734 85.9079 418.457 85.6475C418.182 85.3836 417.814 85.2516 417.353 85.2516C416.963 85.2516 416.62 85.3572 416.324 85.5683C416.029 85.7759 415.798 86.075 415.633 86.4656C415.471 86.8561 415.39 87.3241 415.39 87.8695C415.39 88.4219 415.471 88.8969 415.633 89.2946C415.795 89.6886 416.022 89.993 416.314 90.2076C416.609 90.4188 416.956 90.5243 417.353 90.5243C417.635 90.5243 417.886 90.4715 418.108 90.366C418.333 90.2569 418.522 90.1003 418.673 89.8962C418.824 89.6922 418.928 89.4441 418.984 89.152H420.81C420.765 89.7256 420.596 90.234 420.304 90.6774C420.012 91.1172 419.614 91.462 419.111 91.7119C418.608 91.9582 418.017 92.0813 417.338 92.0813ZM426.452 83.816V85.2939H421.792V83.816H426.452ZM422.942 81.8738H424.853V89.4846C424.853 89.7414 424.892 89.9385 424.969 90.0757C425.05 90.2094 425.156 90.3009 425.286 90.3501C425.416 90.3994 425.56 90.424 425.719 90.424C425.838 90.424 425.947 90.4152 426.046 90.3976C426.148 90.3801 426.225 90.3642 426.278 90.3501L426.6 91.8438C426.498 91.879 426.352 91.9177 426.162 91.9599C425.976 92.0021 425.747 92.0268 425.476 92.0338C424.997 92.0479 424.566 91.9758 424.183 91.8174C423.799 91.6556 423.495 91.4057 423.27 91.0679C423.048 90.7302 422.939 90.3079 422.942 89.8012V81.8738Z" fill="black" fill-opacity="0.3"/>
<path d="M49.1382 231.271L47.3964 231.461C47.3472 231.285 47.261 231.12 47.1378 230.965C47.0182 230.81 46.8563 230.685 46.6522 230.59C46.4482 230.495 46.1983 230.448 45.9028 230.448C45.5052 230.448 45.1709 230.534 44.9 230.707C44.6325 230.879 44.5006 231.102 44.5041 231.377C44.5006 231.613 44.5868 231.804 44.7627 231.952C44.9422 232.1 45.2378 232.221 45.6494 232.316L47.0323 232.612C47.7993 232.777 48.3693 233.039 48.7423 233.398C49.1188 233.757 49.3088 234.227 49.3123 234.807C49.3088 235.318 49.1593 235.768 48.8637 236.159C48.5717 236.546 48.1653 236.848 47.6445 237.066C47.1237 237.285 46.5256 237.394 45.85 237.394C44.8577 237.394 44.059 237.186 43.4538 236.771C42.8486 236.352 42.4879 235.77 42.3718 235.024L44.2349 234.844C44.3194 235.21 44.4988 235.487 44.7733 235.673C45.0477 235.86 45.4049 235.953 45.8447 235.953C46.2986 235.953 46.6628 235.86 46.9373 235.673C47.2152 235.487 47.3542 235.256 47.3542 234.982C47.3542 234.749 47.2645 234.558 47.085 234.406C46.9091 234.255 46.6346 234.139 46.2617 234.058L44.8788 233.768C44.1012 233.606 43.5259 233.333 43.153 232.95C42.78 232.563 42.5953 232.074 42.5988 231.482C42.5953 230.983 42.7307 230.55 43.0052 230.184C43.2831 229.815 43.6684 229.53 44.161 229.329C44.6572 229.125 45.229 229.023 45.8764 229.023C46.8264 229.023 47.5741 229.225 48.1195 229.63C48.6684 230.034 49.008 230.582 49.1382 231.271ZM54.9608 229.128V230.606H50.3003V229.128H54.9608ZM51.4509 227.186H53.3615V234.797C53.3615 235.054 53.4002 235.251 53.4777 235.388C53.5586 235.522 53.6641 235.613 53.7943 235.663C53.9245 235.712 54.0688 235.736 54.2271 235.736C54.3468 235.736 54.4558 235.728 54.5544 235.71C54.6564 235.692 54.7338 235.677 54.7866 235.663L55.1085 237.156C55.0065 237.191 54.8605 237.23 54.6705 237.272C54.484 237.315 54.2553 237.339 53.9843 237.346C53.5058 237.36 53.0748 237.288 52.6912 237.13C52.3077 236.968 52.0033 236.718 51.7782 236.38C51.5565 236.043 51.4474 235.62 51.4509 235.114V227.186ZM61.7505 233.826V229.128H63.6612V237.235H61.8086V235.794H61.7242C61.5412 236.248 61.2403 236.62 60.8216 236.908C60.4064 237.197 59.8945 237.341 59.2857 237.341C58.7544 237.341 58.2847 237.223 57.8765 236.987C57.4719 236.748 57.1552 236.401 56.9265 235.948C56.6978 235.49 56.5834 234.938 56.5834 234.29V229.128H58.494V233.995C58.494 234.508 58.6348 234.917 58.9163 235.219C59.1978 235.522 59.5672 235.673 60.0247 235.673C60.3061 235.673 60.5788 235.604 60.8427 235.467C61.1066 235.33 61.323 235.126 61.4919 234.855C61.6643 234.581 61.7505 234.237 61.7505 233.826ZM69.6988 229.128V230.606H65.0384V229.128H69.6988ZM66.189 227.186H68.0996V234.797C68.0996 235.054 68.1383 235.251 68.2157 235.388C68.2967 235.522 68.4022 235.613 68.5324 235.663C68.6626 235.712 68.8069 235.736 68.9652 235.736C69.0848 235.736 69.1939 235.728 69.2924 235.71C69.3945 235.692 69.4719 235.677 69.5247 235.663L69.8466 237.156C69.7446 237.191 69.5986 237.23 69.4086 237.272C69.2221 237.315 68.9934 237.339 68.7224 237.346C68.2439 237.36 67.8129 237.288 67.4293 237.13C67.0458 236.968 66.7414 236.718 66.5162 236.38C66.2946 236.043 66.1855 235.62 66.189 235.114V227.186ZM75.3697 229.128V230.606H70.7093V229.128H75.3697ZM71.8599 227.186H73.7705V234.797C73.7705 235.054 73.8092 235.251 73.8866 235.388C73.9675 235.522 74.0731 235.613 74.2033 235.663C74.3335 235.712 74.4777 235.736 74.6361 235.736C74.7557 235.736 74.8648 235.728 74.9633 235.71C75.0653 235.692 75.1428 235.677 75.1955 235.663L75.5175 237.156C75.4154 237.191 75.2694 237.23 75.0794 237.272C74.8929 237.315 74.6642 237.339 74.3933 237.346C73.9148 237.36 73.4837 237.288 73.1002 237.13C72.7167 236.968 72.4123 236.718 72.1871 236.38C71.9654 236.043 71.8563 235.62 71.8599 235.114V227.186ZM80.4943 237.394C79.6815 237.394 78.9795 237.225 78.3884 236.887C77.8008 236.546 77.3486 236.064 77.032 235.441C76.7153 234.815 76.5569 234.077 76.5569 233.229C76.5569 232.395 76.7153 231.664 77.032 231.034C77.3522 230.4 77.799 229.908 78.3726 229.556C78.9461 229.201 79.6199 229.023 80.394 229.023C80.8937 229.023 81.3652 229.104 81.8085 229.266C82.2554 229.424 82.6495 229.67 82.9908 230.005C83.3356 230.339 83.6065 230.765 83.8036 231.282C84.0006 231.796 84.0991 232.408 84.0991 233.119V233.704H77.4542V232.417H82.2677C82.2642 232.051 82.185 231.725 82.0302 231.44C81.8754 231.152 81.659 230.925 81.381 230.759C81.1065 230.594 80.7863 230.511 80.4204 230.511C80.0298 230.511 79.6868 230.606 79.3912 230.796C79.0956 230.983 78.8652 231.229 78.6998 231.535C78.5379 231.838 78.4552 232.17 78.4517 232.533V233.657C78.4517 234.128 78.5379 234.533 78.7104 234.871C78.8828 235.205 79.1238 235.462 79.4334 235.641C79.7431 235.817 80.1055 235.905 80.5207 235.905C80.7987 235.905 81.0502 235.867 81.2754 235.789C81.5006 235.708 81.6959 235.59 81.8613 235.436C82.0267 235.281 82.1516 235.089 82.236 234.86L84.02 235.061C83.9074 235.532 83.6927 235.944 83.3761 236.296C83.0629 236.644 82.6618 236.915 82.1727 237.109C81.6836 237.299 81.1241 237.394 80.4943 237.394ZM85.7403 237.235V229.128H87.5928V230.48H87.6773C87.8251 230.012 88.0784 229.651 88.4373 229.398C88.7997 229.141 89.2132 229.012 89.6776 229.012C89.7832 229.012 89.9011 229.018 90.0313 229.028C90.165 229.035 90.2758 229.047 90.3638 229.065V230.823C90.2828 230.794 90.1544 230.77 89.9785 230.749C89.8061 230.724 89.6389 230.712 89.4771 230.712C89.1287 230.712 88.8156 230.787 88.5376 230.939C88.2631 231.087 88.0468 231.292 87.8884 231.556C87.7301 231.82 87.6509 232.125 87.6509 232.469V237.235H85.7403ZM91.6579 237.235V229.128H93.5685V237.235H91.6579ZM92.6185 227.978C92.3159 227.978 92.0555 227.878 91.8373 227.677C91.6192 227.473 91.5101 227.228 91.5101 226.943C91.5101 226.655 91.6192 226.41 91.8373 226.21C92.0555 226.006 92.3159 225.904 92.6185 225.904C92.9246 225.904 93.185 226.006 93.3996 226.21C93.6178 226.41 93.7268 226.655 93.7268 226.943C93.7268 227.228 93.6178 227.473 93.3996 227.677C93.185 227.878 92.9246 227.978 92.6185 227.978ZM97.4686 232.485V237.235H95.558V229.128H97.3842V230.506H97.4792C97.6657 230.052 97.963 229.691 98.3711 229.424C98.7828 229.157 99.2913 229.023 99.8965 229.023C100.456 229.023 100.943 229.142 101.358 229.382C101.777 229.621 102.101 229.968 102.33 230.422C102.562 230.875 102.676 231.426 102.673 232.074V237.235H100.762V232.369C100.762 231.827 100.621 231.403 100.34 231.097C100.062 230.791 99.6766 230.638 99.184 230.638C98.8497 230.638 98.5524 230.712 98.292 230.86C98.0351 231.004 97.8328 231.213 97.685 231.488C97.5407 231.762 97.4686 232.095 97.4686 232.485ZM108.165 240.444C107.479 240.444 106.89 240.351 106.397 240.165C105.905 239.982 105.509 239.735 105.21 239.426C104.911 239.116 104.703 238.773 104.587 238.397L106.308 237.98C106.385 238.138 106.498 238.294 106.645 238.449C106.793 238.608 106.992 238.738 107.242 238.84C107.495 238.945 107.814 238.998 108.197 238.998C108.739 238.998 109.188 238.866 109.543 238.602C109.898 238.342 110.076 237.913 110.076 237.315V235.779H109.981C109.883 235.976 109.738 236.178 109.548 236.386C109.362 236.593 109.114 236.767 108.804 236.908C108.498 237.049 108.113 237.119 107.648 237.119C107.025 237.119 106.461 236.973 105.954 236.681C105.451 236.386 105.05 235.946 104.751 235.362C104.455 234.774 104.307 234.039 104.307 233.155C104.307 232.265 104.455 231.514 104.751 230.902C105.05 230.286 105.453 229.82 105.959 229.503C106.466 229.183 107.031 229.023 107.653 229.023C108.128 229.023 108.519 229.104 108.825 229.266C109.135 229.424 109.381 229.616 109.564 229.841C109.747 230.063 109.886 230.272 109.981 230.469H110.087V229.128H111.971V237.367C111.971 238.06 111.805 238.634 111.475 239.088C111.144 239.542 110.692 239.881 110.118 240.107C109.545 240.332 108.894 240.444 108.165 240.444ZM108.181 235.62C108.586 235.62 108.931 235.522 109.216 235.325C109.501 235.128 109.717 234.844 109.865 234.475C110.013 234.106 110.087 233.662 110.087 233.145C110.087 232.635 110.013 232.188 109.865 231.804C109.721 231.421 109.506 231.123 109.221 230.912C108.94 230.698 108.593 230.59 108.181 230.59C107.755 230.59 107.4 230.701 107.115 230.923C106.83 231.145 106.615 231.449 106.471 231.836C106.327 232.22 106.255 232.656 106.255 233.145C106.255 233.641 106.327 234.076 106.471 234.449C106.619 234.818 106.835 235.107 107.12 235.314C107.409 235.518 107.763 235.62 108.181 235.62ZM119.998 237.399C119.484 237.399 119.022 237.307 118.61 237.125C118.202 236.938 117.878 236.664 117.639 236.301C117.403 235.939 117.285 235.492 117.285 234.961C117.285 234.503 117.37 234.125 117.538 233.826C117.707 233.527 117.938 233.287 118.23 233.108C118.522 232.929 118.851 232.793 119.217 232.702C119.586 232.607 119.968 232.538 120.362 232.496C120.837 232.446 121.222 232.403 121.518 232.364C121.814 232.322 122.028 232.258 122.162 232.174C122.299 232.086 122.368 231.95 122.368 231.767V231.736C122.368 231.338 122.25 231.03 122.014 230.812C121.778 230.594 121.439 230.485 120.996 230.485C120.528 230.485 120.156 230.587 119.882 230.791C119.611 230.995 119.428 231.236 119.333 231.514L117.549 231.261C117.69 230.768 117.922 230.356 118.246 230.026C118.569 229.691 118.965 229.442 119.433 229.276C119.901 229.107 120.418 229.023 120.985 229.023C121.376 229.023 121.764 229.069 122.151 229.16C122.538 229.252 122.892 229.403 123.212 229.614C123.532 229.822 123.789 230.105 123.983 230.464C124.18 230.823 124.278 231.271 124.278 231.81V237.235H122.442V236.122H122.378C122.262 236.347 122.099 236.558 121.887 236.755C121.68 236.949 121.418 237.105 121.101 237.225C120.788 237.341 120.42 237.399 119.998 237.399ZM120.494 235.995C120.878 235.995 121.21 235.919 121.492 235.768C121.773 235.613 121.99 235.409 122.141 235.156C122.296 234.902 122.373 234.626 122.373 234.327V233.372C122.313 233.421 122.211 233.467 122.067 233.509C121.926 233.551 121.768 233.588 121.592 233.62C121.416 233.652 121.242 233.68 121.069 233.704C120.897 233.729 120.747 233.75 120.621 233.768C120.336 233.806 120.081 233.87 119.855 233.958C119.63 234.046 119.453 234.169 119.322 234.327C119.192 234.482 119.127 234.683 119.127 234.929C119.127 235.281 119.256 235.546 119.512 235.726C119.769 235.905 120.097 235.995 120.494 235.995ZM133.175 229.128L130.288 237.235H128.177L125.29 229.128H127.327L129.191 235.151H129.275L131.143 229.128H133.175ZM137.836 237.394C137.023 237.394 136.321 237.225 135.73 236.887C135.142 236.546 134.69 236.064 134.373 235.441C134.057 234.815 133.898 234.077 133.898 233.229C133.898 232.395 134.057 231.664 134.373 231.034C134.693 230.4 135.14 229.908 135.714 229.556C136.287 229.201 136.961 229.023 137.735 229.023C138.235 229.023 138.706 229.104 139.15 229.266C139.597 229.424 139.991 229.67 140.332 230.005C140.677 230.339 140.948 230.765 141.145 231.282C141.342 231.796 141.44 232.408 141.44 233.119V233.704H134.795V232.417H139.609C139.605 232.051 139.526 231.725 139.371 231.44C139.217 231.152 139 230.925 138.722 230.759C138.448 230.594 138.128 230.511 137.762 230.511C137.371 230.511 137.028 230.606 136.732 230.796C136.437 230.983 136.206 231.229 136.041 231.535C135.879 231.838 135.796 232.17 135.793 232.533V233.657C135.793 234.128 135.879 234.533 136.052 234.871C136.224 235.205 136.465 235.462 136.775 235.641C137.084 235.817 137.447 235.905 137.862 235.905C138.14 235.905 138.391 235.867 138.617 235.789C138.842 235.708 139.037 235.59 139.203 235.436C139.368 235.281 139.493 235.089 139.577 234.86L141.361 235.061C141.249 235.532 141.034 235.944 140.717 236.296C140.404 236.644 140.003 236.915 139.514 237.109C139.025 237.299 138.465 237.394 137.836 237.394ZM143.082 237.235V229.128H144.934V230.48H145.019C145.166 230.012 145.42 229.651 145.779 229.398C146.141 229.141 146.554 229.012 147.019 229.012C147.124 229.012 147.242 229.018 147.373 229.028C147.506 229.035 147.617 229.047 147.705 229.065V230.823C147.624 230.794 147.496 230.77 147.32 230.749C147.147 230.724 146.98 230.712 146.818 230.712C146.47 230.712 146.157 230.787 145.879 230.939C145.604 231.087 145.388 231.292 145.23 231.556C145.071 231.82 144.992 232.125 144.992 232.469V237.235H143.082ZM151.187 237.399C150.673 237.399 150.21 237.307 149.799 237.125C149.391 236.938 149.067 236.664 148.828 236.301C148.592 235.939 148.474 235.492 148.474 234.961C148.474 234.503 148.558 234.125 148.727 233.826C148.896 233.527 149.127 233.287 149.419 233.108C149.711 232.929 150.04 232.793 150.406 232.702C150.775 232.607 151.157 232.538 151.551 232.496C152.026 232.446 152.411 232.403 152.707 232.364C153.002 232.322 153.217 232.258 153.351 232.174C153.488 232.086 153.557 231.95 153.557 231.767V231.736C153.557 231.338 153.439 231.03 153.203 230.812C152.967 230.594 152.628 230.485 152.184 230.485C151.716 230.485 151.345 230.587 151.071 230.791C150.8 230.995 150.617 231.236 150.522 231.514L148.738 231.261C148.879 230.768 149.111 230.356 149.435 230.026C149.758 229.691 150.154 229.442 150.622 229.276C151.09 229.107 151.607 229.023 152.174 229.023C152.564 229.023 152.953 229.069 153.34 229.16C153.727 229.252 154.081 229.403 154.401 229.614C154.721 229.822 154.978 230.105 155.172 230.464C155.369 230.823 155.467 231.271 155.467 231.81V237.235H153.631V236.122H153.567C153.451 236.347 153.287 236.558 153.076 236.755C152.869 236.949 152.607 237.105 152.29 237.225C151.977 237.341 151.609 237.399 151.187 237.399ZM151.683 235.995C152.067 235.995 152.399 235.919 152.681 235.768C152.962 235.613 153.178 235.409 153.33 235.156C153.485 234.902 153.562 234.626 153.562 234.327V233.372C153.502 233.421 153.4 233.467 153.256 233.509C153.115 233.551 152.957 233.588 152.781 233.62C152.605 233.652 152.431 233.68 152.258 233.704C152.086 233.729 151.936 233.75 151.81 233.768C151.525 233.806 151.27 233.87 151.044 233.958C150.819 234.046 150.641 234.169 150.511 234.327C150.381 234.482 150.316 234.683 150.316 234.929C150.316 235.281 150.444 235.546 150.701 235.726C150.958 235.905 151.285 235.995 151.683 235.995ZM160.939 240.444C160.253 240.444 159.663 240.351 159.171 240.165C158.678 239.982 158.282 239.735 157.983 239.426C157.684 239.116 157.477 238.773 157.36 238.397L159.081 237.98C159.158 238.138 159.271 238.294 159.419 238.449C159.567 238.608 159.765 238.738 160.015 238.84C160.269 238.945 160.587 238.998 160.971 238.998C161.512 238.998 161.961 238.866 162.316 238.602C162.672 238.342 162.85 237.913 162.85 237.315V235.779H162.754C162.656 235.976 162.512 236.178 162.322 236.386C162.135 236.593 161.887 236.767 161.578 236.908C161.271 237.049 160.886 237.119 160.422 237.119C159.799 237.119 159.234 236.973 158.727 236.681C158.224 236.386 157.823 235.946 157.524 235.362C157.228 234.774 157.081 234.039 157.081 233.155C157.081 232.265 157.228 231.514 157.524 230.902C157.823 230.286 158.226 229.82 158.733 229.503C159.239 229.183 159.804 229.023 160.427 229.023C160.902 229.023 161.293 229.104 161.599 229.266C161.908 229.424 162.155 229.616 162.338 229.841C162.521 230.063 162.659 230.272 162.754 230.469H162.86V229.128H164.744V237.367C164.744 238.06 164.579 238.634 164.248 239.088C163.917 239.542 163.465 239.881 162.892 240.107C162.318 240.332 161.667 240.444 160.939 240.444ZM160.955 235.62C161.359 235.62 161.704 235.522 161.989 235.325C162.274 235.128 162.491 234.844 162.638 234.475C162.786 234.106 162.86 233.662 162.86 233.145C162.86 232.635 162.786 232.188 162.638 231.804C162.494 231.421 162.279 231.123 161.994 230.912C161.713 230.698 161.366 230.59 160.955 230.59C160.529 230.59 160.174 230.701 159.889 230.923C159.604 231.145 159.389 231.449 159.245 231.836C159.1 232.22 159.028 232.656 159.028 233.145C159.028 233.641 159.1 234.076 159.245 234.449C159.392 234.818 159.609 235.107 159.894 235.314C160.182 235.518 160.536 235.62 160.955 235.62ZM170.316 237.394C169.503 237.394 168.801 237.225 168.21 236.887C167.623 236.546 167.171 236.064 166.854 235.441C166.537 234.815 166.379 234.077 166.379 233.229C166.379 232.395 166.537 231.664 166.854 231.034C167.174 230.4 167.621 229.908 168.194 229.556C168.768 229.201 169.442 229.023 170.216 229.023C170.716 229.023 171.187 229.104 171.63 229.266C172.077 229.424 172.471 229.67 172.813 230.005C173.157 230.339 173.428 230.765 173.625 231.282C173.823 231.796 173.921 232.408 173.921 233.119V233.704H167.276V232.417H172.09C172.086 232.051 172.007 231.725 171.852 231.44C171.697 231.152 171.481 230.925 171.203 230.759C170.928 230.594 170.608 230.511 170.242 230.511C169.852 230.511 169.509 230.606 169.213 230.796C168.918 230.983 168.687 231.229 168.522 231.535C168.36 231.838 168.277 232.17 168.274 232.533V233.657C168.274 234.128 168.36 234.533 168.532 234.871C168.705 235.205 168.946 235.462 169.255 235.641C169.565 235.817 169.927 235.905 170.343 235.905C170.621 235.905 170.872 235.867 171.097 235.789C171.323 235.708 171.518 235.59 171.683 235.436C171.849 235.281 171.973 235.089 172.058 234.86L173.842 235.061C173.729 235.532 173.515 235.944 173.198 236.296C172.885 236.644 172.484 236.915 171.995 237.109C171.505 237.299 170.946 237.394 170.316 237.394Z" fill="black"/>
<g opacity="0.2">
<rect x="41.749" y="257.691" width="246.871" height="14.9807" rx="7.49034" fill="url(#paint4_linear_91_6904)"/>
</g>
<rect x="40.9658" y="257.691" width="120.883" height="14.9807" rx="7.49034" fill="url(#paint5_linear_91_6904)"/>
<path d="M336.974 263.693V262.136L341.56 254.889H342.859V257.106H342.067L338.979 261.999V262.083H345.382V263.693H336.974ZM342.13 265.699V263.218L342.152 262.521V254.889H343.999V265.699H342.13ZM351.088 265.905C350.219 265.905 349.473 265.685 348.85 265.245C348.231 264.801 347.754 264.163 347.42 263.329C347.089 262.491 346.924 261.483 346.924 260.305C346.927 259.126 347.094 258.123 347.425 257.296C347.759 256.466 348.236 255.832 348.856 255.396C349.478 254.96 350.223 254.742 351.088 254.742C351.954 254.742 352.698 254.96 353.321 255.396C353.943 255.832 354.42 256.466 354.751 257.296C355.085 258.127 355.252 259.129 355.252 260.305C355.252 261.487 355.085 262.497 354.751 263.334C354.42 264.168 353.943 264.805 353.321 265.245C352.701 265.685 351.957 265.905 351.088 265.905ZM351.088 264.253C351.764 264.253 352.297 263.92 352.687 263.255C353.081 262.586 353.278 261.603 353.278 260.305C353.278 259.446 353.189 258.725 353.009 258.141C352.83 257.557 352.577 257.117 352.249 256.821C351.922 256.522 351.535 256.373 351.088 256.373C350.416 256.373 349.885 256.707 349.494 257.375C349.104 258.04 348.907 259.017 348.903 260.305C348.9 261.167 348.986 261.892 349.162 262.479C349.341 263.067 349.594 263.51 349.922 263.809C350.249 264.105 350.638 264.253 351.088 264.253ZM362.81 263.672V263.102C362.81 262.683 362.898 262.298 363.074 261.946C363.254 261.594 363.514 261.311 363.855 261.096C364.197 260.882 364.61 260.774 365.096 260.774C365.595 260.774 366.014 260.882 366.352 261.096C366.689 261.307 366.945 261.589 367.117 261.941C367.293 262.293 367.381 262.68 367.381 263.102V263.672C367.381 264.091 367.293 264.476 367.117 264.828C366.941 265.18 366.682 265.463 366.341 265.678C366.003 265.892 365.588 266 365.096 266C364.603 266 364.186 265.892 363.845 265.678C363.503 265.463 363.245 265.18 363.069 264.828C362.896 264.476 362.81 264.091 362.81 263.672ZM364.188 263.102V263.672C364.188 263.95 364.255 264.205 364.388 264.437C364.522 264.67 364.758 264.786 365.096 264.786C365.437 264.786 365.671 264.671 365.797 264.443C365.928 264.21 365.993 263.953 365.993 263.672V263.102C365.993 262.82 365.931 262.564 365.808 262.331C365.685 262.096 365.447 261.978 365.096 261.978C364.765 261.978 364.531 262.096 364.394 262.331C364.256 262.564 364.188 262.82 364.188 263.102ZM357.316 257.486V256.916C357.316 256.494 357.406 256.107 357.585 255.755C357.764 255.403 358.025 255.122 358.366 254.911C358.707 254.696 359.121 254.589 359.606 254.589C360.103 254.589 360.52 254.696 360.857 254.911C361.199 255.122 361.455 255.403 361.628 255.755C361.8 256.107 361.887 256.494 361.887 256.916V257.486C361.887 257.908 361.799 258.296 361.623 258.647C361.45 258.996 361.193 259.275 360.852 259.487C360.511 259.698 360.096 259.803 359.606 259.803C359.11 259.803 358.692 259.698 358.35 259.487C358.012 259.275 357.756 258.994 357.58 258.642C357.404 258.29 357.316 257.905 357.316 257.486ZM358.704 256.916V257.486C358.704 257.768 358.769 258.025 358.899 258.257C359.033 258.486 359.269 258.6 359.606 258.6C359.944 258.6 360.176 258.486 360.303 258.257C360.433 258.025 360.498 257.768 360.498 257.486V256.916C360.498 256.635 360.437 256.378 360.314 256.146C360.191 255.91 359.955 255.792 359.606 255.792C359.272 255.792 359.038 255.91 358.904 256.146C358.771 256.381 358.704 256.638 358.704 256.916ZM357.917 265.699L365.349 254.889H366.668L359.237 265.699H357.917Z" fill="black" fill-opacity="0.7"/>
<path d="M382.665 258.537H380.691C380.635 258.213 380.531 257.926 380.38 257.676C380.229 257.423 380.04 257.208 379.815 257.032C379.59 256.856 379.333 256.724 379.045 256.636C378.76 256.545 378.452 256.499 378.121 256.499C377.533 256.499 377.013 256.647 376.559 256.943C376.105 257.235 375.749 257.664 375.492 258.23C375.236 258.793 375.107 259.481 375.107 260.294C375.107 261.121 375.236 261.818 375.492 262.384C375.753 262.947 376.108 263.373 376.559 263.661C377.013 263.946 377.532 264.089 378.116 264.089C378.439 264.089 378.742 264.047 379.023 263.962C379.308 263.874 379.564 263.746 379.789 263.577C380.017 263.408 380.209 263.2 380.364 262.954C380.522 262.708 380.631 262.426 380.691 262.11L382.665 262.12C382.591 262.634 382.431 263.116 382.185 263.566C381.942 264.017 381.624 264.414 381.23 264.759C380.836 265.101 380.375 265.368 379.847 265.562C379.319 265.752 378.733 265.847 378.089 265.847C377.139 265.847 376.291 265.627 375.545 265.187C374.799 264.747 374.212 264.112 373.782 263.281C373.353 262.451 373.139 261.455 373.139 260.294C373.139 259.129 373.355 258.134 373.788 257.307C374.22 256.476 374.81 255.841 375.556 255.401C376.302 254.962 377.146 254.742 378.089 254.742C378.691 254.742 379.25 254.826 379.768 254.995C380.285 255.164 380.746 255.412 381.15 255.739C381.555 256.063 381.888 256.461 382.148 256.932C382.412 257.4 382.584 257.935 382.665 258.537ZM387.935 265.857C387.143 265.857 386.457 265.683 385.877 265.335C385.296 264.986 384.846 264.499 384.525 263.873C384.209 263.246 384.05 262.514 384.05 261.677C384.05 260.839 384.209 260.106 384.525 259.476C384.846 258.846 385.296 258.357 385.877 258.009C386.457 257.66 387.143 257.486 387.935 257.486C388.727 257.486 389.413 257.66 389.993 258.009C390.574 258.357 391.023 258.846 391.339 259.476C391.659 260.106 391.82 260.839 391.82 261.677C391.82 262.514 391.659 263.246 391.339 263.873C391.023 264.499 390.574 264.986 389.993 265.335C389.413 265.683 388.727 265.857 387.935 265.857ZM387.946 264.326C388.375 264.326 388.734 264.209 389.022 263.973C389.311 263.734 389.525 263.413 389.666 263.012C389.81 262.611 389.883 262.164 389.883 261.672C389.883 261.176 389.81 260.727 389.666 260.326C389.525 259.921 389.311 259.599 389.022 259.36C388.734 259.121 388.375 259.001 387.946 259.001C387.506 259.001 387.14 259.121 386.848 259.36C386.559 259.599 386.343 259.921 386.199 260.326C386.058 260.727 385.987 261.176 385.987 261.672C385.987 262.164 386.058 262.611 386.199 263.012C386.343 263.413 386.559 263.734 386.848 263.973C387.14 264.209 387.506 264.326 387.946 264.326ZM393.466 265.699V257.592H395.319V258.943H395.403C395.551 258.475 395.804 258.114 396.163 257.861C396.525 257.604 396.939 257.476 397.403 257.476C397.509 257.476 397.627 257.481 397.757 257.492C397.891 257.499 398.001 257.511 398.089 257.528V259.286C398.009 259.258 397.88 259.233 397.704 259.212C397.532 259.187 397.365 259.175 397.203 259.175C396.854 259.175 396.541 259.251 396.263 259.402C395.989 259.55 395.772 259.756 395.614 260.02C395.456 260.284 395.377 260.588 395.377 260.933V265.699H393.466ZM399.384 265.699V257.592H401.236V258.943H401.321C401.468 258.475 401.722 258.114 402.081 257.861C402.443 257.604 402.856 257.476 403.321 257.476C403.426 257.476 403.544 257.481 403.675 257.492C403.808 257.499 403.919 257.511 404.007 257.528V259.286C403.926 259.258 403.798 259.233 403.622 259.212C403.449 259.187 403.282 259.175 403.12 259.175C402.772 259.175 402.459 259.251 402.181 259.402C401.906 259.55 401.69 259.756 401.532 260.02C401.373 260.284 401.294 260.588 401.294 260.933V265.699H399.384ZM408.556 265.857C407.744 265.857 407.042 265.688 406.45 265.35C405.863 265.009 405.411 264.527 405.094 263.904C404.777 263.278 404.619 262.541 404.619 261.693C404.619 260.859 404.777 260.127 405.094 259.497C405.414 258.864 405.861 258.371 406.435 258.019C407.008 257.664 407.682 257.486 408.456 257.486C408.956 257.486 409.427 257.567 409.871 257.729C410.317 257.887 410.712 258.134 411.053 258.468C411.398 258.802 411.669 259.228 411.866 259.745C412.063 260.259 412.161 260.871 412.161 261.582V262.168H405.516V260.88H410.33C410.326 260.514 410.247 260.189 410.092 259.904C409.937 259.615 409.721 259.388 409.443 259.223C409.169 259.057 408.848 258.975 408.482 258.975C408.092 258.975 407.749 259.07 407.453 259.26C407.158 259.446 406.927 259.692 406.762 259.999C406.6 260.301 406.517 260.634 406.514 260.996V262.12C406.514 262.592 406.6 262.996 406.772 263.334C406.945 263.668 407.186 263.925 407.495 264.105C407.805 264.281 408.168 264.369 408.583 264.369C408.861 264.369 409.112 264.33 409.337 264.253C409.563 264.172 409.758 264.054 409.923 263.899C410.089 263.744 410.214 263.552 410.298 263.324L412.082 263.524C411.969 263.996 411.755 264.407 411.438 264.759C411.125 265.108 410.724 265.379 410.235 265.572C409.746 265.762 409.186 265.857 408.556 265.857ZM417.339 265.857C416.529 265.857 415.834 265.679 415.254 265.324C414.677 264.969 414.232 264.478 413.918 263.851C413.609 263.222 413.454 262.497 413.454 261.677C413.454 260.854 413.612 260.127 413.929 259.497C414.246 258.864 414.693 258.371 415.27 258.019C415.85 257.664 416.536 257.486 417.328 257.486C417.986 257.486 418.568 257.608 419.075 257.85C419.585 258.09 419.992 258.429 420.294 258.869C420.597 259.305 420.769 259.816 420.811 260.4H418.985C418.911 260.009 418.735 259.684 418.457 259.423C418.183 259.159 417.815 259.027 417.354 259.027C416.964 259.027 416.621 259.133 416.325 259.344C416.03 259.552 415.799 259.851 415.634 260.241C415.472 260.632 415.391 261.1 415.391 261.645C415.391 262.198 415.472 262.673 415.634 263.07C415.796 263.464 416.023 263.769 416.315 263.983C416.61 264.195 416.957 264.3 417.354 264.3C417.636 264.3 417.887 264.247 418.109 264.142C418.334 264.033 418.523 263.876 418.674 263.672C418.825 263.468 418.929 263.22 418.985 262.928H420.811C420.766 263.501 420.597 264.01 420.305 264.453C420.013 264.893 419.615 265.238 419.112 265.488C418.609 265.734 418.018 265.857 417.339 265.857ZM426.453 257.592V259.07H421.793V257.592H426.453ZM422.943 255.65H424.854V263.26C424.854 263.517 424.893 263.714 424.97 263.851C425.051 263.985 425.157 264.077 425.287 264.126C425.417 264.175 425.561 264.2 425.72 264.2C425.839 264.2 425.948 264.191 426.047 264.173C426.149 264.156 426.226 264.14 426.279 264.126L426.601 265.62C426.499 265.655 426.353 265.693 426.163 265.736C425.977 265.778 425.748 265.803 425.477 265.81C424.998 265.824 424.567 265.752 424.184 265.593C423.8 265.431 423.496 265.181 423.271 264.844C423.049 264.506 422.94 264.084 422.943 263.577V255.65Z" fill="black" fill-opacity="0.3"/>
</g>
<defs>
<filter id="filter0_dd_91_6904" x="0.660166" y="0.660166" width="487.395" height="332.017" filterUnits="userSpaceOnUse" color-interpolation-filters="sRGB">
<feFlood flood-opacity="0" result="BackgroundImageFix"/>
<feColorMatrix in="SourceAlpha" type="matrix" values="0 0 0 0 0 0 0 0 0 0 0 0 0 0 0 0 0 0 127 0" result="hardAlpha"/>
<feOffset dx="2.47712" dy="2.47712"/>
<feGaussianBlur stdDeviation="9.2892"/>
<feColorMatrix type="matrix" values="0 0 0 0 0.6512 0 0 0 0 0.66896 0 0 0 0 0.74 0 0 0 0.5 0"/>
<feBlend mode="normal" in2="BackgroundImageFix" result="effect1_dropShadow_91_6904"/>
<feColorMatrix in="SourceAlpha" type="matrix" values="0 0 0 0 0 0 0 0 0 0 0 0 0 0 0 0 0 0 127 0" result="hardAlpha"/>
<feOffset dx="-1.23856" dy="-1.23856"/>
<feGaussianBlur stdDeviation="8.05064"/>
<feColorMatrix type="matrix" values="0 0 0 0 0.979167 0 0 0 0 0.983333 0 0 0 0 1 0 0 0 1 0"/>
<feBlend mode="normal" in2="effect1_dropShadow_91_6904" result="effect2_dropShadow_91_6904"/>
<feBlend mode="normal" in="SourceGraphic" in2="effect2_dropShadow_91_6904" result="shape"/>
</filter>
<linearGradient id="paint0_linear_91_6904" x1="72.6079" y1="170.803" x2="73.671" y2="194.162" gradientUnits="userSpaceOnUse">
<stop stop-color="#98005F"/>
<stop offset="1" stop-color="#FF4080"/>
</linearGradient>
<linearGradient id="paint1_linear_91_6904" x1="52.7402" y1="170.803" x2="55.493" y2="193.882" gradientUnits="userSpaceOnUse">
<stop offset="0.9999" stop-color="#98005F"/>
<stop offset="1" stop-color="#FF4080"/>
</linearGradient>
<linearGradient id="paint2_linear_91_6904" x1="72.6079" y1="83.9153" x2="73.671" y2="107.274" gradientUnits="userSpaceOnUse">
<stop stop-color="#98005F"/>
<stop offset="1" stop-color="#FF4080"/>
</linearGradient>
<linearGradient id="paint3_linear_91_6904" x1="52.7402" y1="83.9153" x2="55.493" y2="106.994" gradientUnits="userSpaceOnUse">
<stop offset="0.9998" stop-color="#98005F"/>
<stop offset="0.9999" stop-color="#F93C7E"/>
<stop offset="1" stop-color="#FF4080"/>
</linearGradient>
<linearGradient id="paint4_linear_91_6904" x1="72.6079" y1="257.691" x2="73.671" y2="281.05" gradientUnits="userSpaceOnUse">
<stop stop-color="#98005F"/>
<stop offset="1" stop-color="#FF4080"/>
</linearGradient>
<linearGradient id="paint5_linear_91_6904" x1="56.0763" y1="257.691" x2="58.2332" y2="280.898" gradientUnits="userSpaceOnUse">
<stop offset="0.9999" stop-color="#98005F"/>
<stop offset="1" stop-color="#FF4080"/>
</linearGradient>
</defs>
</svg>
