<svg width="36" height="36" viewBox="0 0 36 36" fill="none" xmlns="http://www.w3.org/2000/svg">
<path d="M4.39661 25.5575C3.55501 26.0145 2.49351 25.7052 2.12286 24.8222C1.18602 22.5903 0.724323 20.1807 0.775288 17.7479C0.838394 14.7356 1.68533 11.7917 3.23263 9.20633C4.77993 6.62099 6.97419 4.48345 9.59915 3.00436C12.2241 1.52527 15.1892 0.755699 18.2021 0.771478C21.2151 0.787257 24.1719 1.58785 26.7812 3.09434C29.3906 4.60084 31.5623 6.76125 33.0825 9.36265C34.6026 11.9641 35.4187 14.9167 35.4502 17.9295C35.4757 20.3627 34.9888 22.7673 34.0286 24.9893C33.6487 25.8684 32.5841 26.1665 31.7473 25.7007C30.9105 25.235 30.6209 24.1819 30.9787 23.2936C31.6583 21.6062 32.0016 19.7961 31.9824 17.9658C31.9572 15.5555 31.3043 13.1935 30.0882 11.1123C28.8721 9.03121 27.1347 7.30289 25.0473 6.09769C22.9598 4.89249 20.5943 4.25202 18.184 4.2394C15.7736 4.22677 13.4016 4.84243 11.3016 6.0257C9.20161 7.20897 7.44621 8.91901 6.20837 10.9873C4.97053 13.0555 4.29298 15.4107 4.24249 17.8205C4.20416 19.6505 4.52843 21.4641 5.19034 23.1586C5.5388 24.0506 5.23821 25.1006 4.39661 25.5575Z" fill="#E4E4E4"/>
<path d="M4.39661 25.5575C3.55501 26.0145 2.49348 25.7052 2.12281 24.8222C0.581167 21.1498 0.344343 17.0389 1.48555 13.1863C2.7917 8.77683 5.79598 5.06687 9.8375 2.87251C13.879 0.67816 18.6267 0.179168 23.0361 1.48531C26.8888 2.62652 30.2074 5.06409 32.4478 8.35719C32.9864 9.14899 32.6676 10.2077 31.826 10.6646C30.9844 11.1216 29.9401 10.8018 29.3818 10.0237C27.5948 7.53323 25.0214 5.69028 22.0512 4.81046C18.5236 3.76555 14.7255 4.16474 11.4923 5.92023C8.25905 7.67571 5.85562 10.6437 4.81071 14.1712C3.93089 17.1414 4.07489 20.3034 5.19029 23.1586C5.53876 24.0506 5.23821 25.1006 4.39661 25.5575Z" fill="url(#paint0_linear_91_6895)"/>
<path d="M14.876 16.6835L14.8762 16.6834C15.2514 16.3378 15.8496 16.3378 16.2247 16.6834L18.3313 18.6234L21.3282 15.8634L20.5422 15.1396C20.3422 14.9554 20.3107 14.6916 20.4059 14.4815C20.5001 14.2736 20.713 14.1245 20.9764 14.1245H23.9625C24.2808 14.1245 24.5849 14.3634 24.5746 14.7204V17.4724C24.5746 17.7493 24.3874 17.9417 24.1844 18.0184C23.9822 18.0947 23.7224 18.0748 23.5284 17.8961L22.7094 17.1419L19.0021 20.55L14.876 16.6835ZM14.876 16.6835L10.6997 20.5361M14.876 16.6835L10.6997 20.5361M10.6997 20.5361C10.6997 20.5361 10.6996 20.5362 10.6996 20.5362L10.6997 20.5361Z" fill="url(#paint1_linear_91_6895)" stroke="url(#paint2_linear_91_6895)" stroke-width="0.54187"/>
<defs>
<linearGradient id="paint0_linear_91_6895" x1="38.0521" y1="29.0681" x2="-2.69648" y2="29.0681" gradientUnits="userSpaceOnUse">
<stop stop-color="#6BD5BF"/>
<stop offset="0.159669" stop-color="#32D172"/>
<stop offset="0.268196" stop-color="#8ACD41"/>
<stop offset="0.658066" stop-color="#F3AF3D"/>
<stop offset="0.804268" stop-color="#FF7A00"/>
<stop offset="1" stop-color="#FF2E00"/>
</linearGradient>
<linearGradient id="paint1_linear_91_6895" x1="22.1921" y1="18.4207" x2="12.6552" y2="18.4207" gradientUnits="userSpaceOnUse">
<stop stop-color="#52D060"/>
<stop offset="0.395833" stop-color="#EDB13E"/>
<stop offset="1" stop-color="#FF7501"/>
</linearGradient>
<linearGradient id="paint2_linear_91_6895" x1="22.1921" y1="18.4207" x2="12.6552" y2="18.4207" gradientUnits="userSpaceOnUse">
<stop stop-color="#98005F"/>
<stop offset="0.395833" stop-color="#FF4080"/>
<stop offset="1" stop-color="#20B2AA"/>
</linearGradient>
</defs>
</svg>
