<svg width="281" height="146" viewBox="0 0 281 146" fill="none" xmlns="http://www.w3.org/2000/svg">
<path d="M13.5077 21.1981L19.3226 24.8902C20.0725 25.3632 20.9956 24.6594 20.7763 23.7941L19.0919 17.1715C19.0463 16.9879 19.0535 16.7952 19.1127 16.6156C19.1719 16.436 19.2807 16.2767 19.4264 16.1562L24.6414 11.8065C25.3222 11.2412 24.976 10.099 24.0876 10.0413L17.2804 9.60283C17.0947 9.59203 16.9161 9.52735 16.7666 9.41671C16.617 9.30606 16.5029 9.15424 16.4382 8.9798L13.8999 2.58797C13.8327 2.40326 13.7103 2.24369 13.5493 2.13094C13.3883 2.01819 13.1966 1.9577 13 1.9577C12.8034 1.9577 12.6117 2.01819 12.4507 2.13094C12.2897 2.24369 12.1673 2.40326 12.1001 2.58797L9.56179 8.9798C9.4971 9.15424 9.383 9.30606 9.23343 9.41671C9.08385 9.52735 8.90529 9.59203 8.71955 9.60283L1.91237 10.0413C1.02397 10.099 0.677844 11.2412 1.35856 11.8065L6.57356 16.1562C6.71932 16.2767 6.82806 16.436 6.88726 16.6156C6.94645 16.7952 6.9537 16.9879 6.90815 17.1715L5.35057 23.3095C5.08521 24.3479 6.19282 25.1901 7.08121 24.6248L12.4923 21.1981C12.6441 21.1016 12.8202 21.0504 13 21.0504C13.1798 21.0504 13.3559 21.1016 13.5077 21.1981Z" fill="#F8D57E" stroke="#F8D57E" stroke-width="2" stroke-linecap="round" stroke-linejoin="round"/>
<path d="M42.5077 21.1981L48.3226 24.8902C49.0725 25.3632 49.9956 24.6594 49.7763 23.7941L48.0919 17.1715C48.0463 16.9879 48.0535 16.7952 48.1127 16.6156C48.1719 16.436 48.2807 16.2767 48.4264 16.1562L53.6414 11.8065C54.3222 11.2412 53.976 10.099 53.0876 10.0413L46.2804 9.60283C46.0947 9.59203 45.9161 9.52735 45.7666 9.41671C45.617 9.30606 45.5029 9.15424 45.4382 8.9798L42.8999 2.58797C42.8327 2.40326 42.7103 2.24369 42.5493 2.13094C42.3883 2.01819 42.1966 1.9577 42 1.9577C41.8034 1.9577 41.6117 2.01819 41.4507 2.13094C41.2897 2.24369 41.1673 2.40326 41.1001 2.58797L38.5618 8.9798C38.4971 9.15424 38.383 9.30606 38.2334 9.41671C38.0839 9.52735 37.9053 9.59203 37.7196 9.60283L30.9124 10.0413C30.024 10.099 29.6778 11.2412 30.3586 11.8065L35.5736 16.1562C35.7193 16.2767 35.8281 16.436 35.8873 16.6156C35.9465 16.7952 35.9537 16.9879 35.9081 17.1715L34.3506 23.3095C34.0852 24.3479 35.1928 25.1901 36.0812 24.6248L41.4923 21.1981C41.6441 21.1016 41.8202 21.0504 42 21.0504C42.1798 21.0504 42.3559 21.1016 42.5077 21.1981Z" fill="#F8D57E" stroke="#F8D57E" stroke-width="2" stroke-linecap="round" stroke-linejoin="round"/>
<path d="M71.5077 21.1981L77.3226 24.8902C78.0725 25.3632 78.9956 24.6594 78.7763 23.7941L77.0919 17.1715C77.0463 16.9879 77.0535 16.7952 77.1127 16.6156C77.1719 16.436 77.2807 16.2767 77.4264 16.1562L82.6414 11.8065C83.3222 11.2412 82.976 10.099 82.0876 10.0413L75.2804 9.60283C75.0947 9.59203 74.9161 9.52735 74.7666 9.41671C74.617 9.30606 74.5029 9.15424 74.4382 8.9798L71.8999 2.58797C71.8327 2.40326 71.7103 2.24369 71.5493 2.13094C71.3883 2.01819 71.1966 1.9577 71 1.9577C70.8034 1.9577 70.6117 2.01819 70.4507 2.13094C70.2897 2.24369 70.1673 2.40326 70.1001 2.58797L67.5618 8.9798C67.4971 9.15424 67.383 9.30606 67.2334 9.41671C67.0839 9.52735 66.9053 9.59203 66.7196 9.60283L59.9124 10.0413C59.024 10.099 58.6778 11.2412 59.3586 11.8065L64.5736 16.1562C64.7193 16.2767 64.8281 16.436 64.8873 16.6156C64.9465 16.7952 64.9537 16.9879 64.9081 17.1715L63.3506 23.3095C63.0852 24.3479 64.1928 25.1901 65.0812 24.6248L70.4923 21.1981C70.6441 21.1016 70.8202 21.0504 71 21.0504C71.1798 21.0504 71.3559 21.1016 71.5077 21.1981Z" fill="#F8D57E" stroke="#F8D57E" stroke-width="2" stroke-linecap="round" stroke-linejoin="round"/>
<path d="M100.508 21.1981L106.323 24.8902C107.073 25.3632 107.996 24.6594 107.776 23.7941L106.092 17.1715C106.046 16.9879 106.054 16.7952 106.113 16.6156C106.172 16.436 106.281 16.2767 106.426 16.1562L111.641 11.8065C112.322 11.2412 111.976 10.099 111.088 10.0413L104.28 9.60283C104.095 9.59203 103.916 9.52735 103.767 9.41671C103.617 9.30606 103.503 9.15424 103.438 8.9798L100.9 2.58797C100.833 2.40326 100.71 2.24369 100.549 2.13094C100.388 2.01819 100.197 1.9577 100 1.9577C99.8034 1.9577 99.6117 2.01819 99.4507 2.13094C99.2897 2.24369 99.1673 2.40326 99.1001 2.58797L96.5618 8.9798C96.4971 9.15424 96.383 9.30606 96.2334 9.41671C96.0839 9.52735 95.9053 9.59203 95.7196 9.60283L88.9124 10.0413C88.024 10.099 87.6778 11.2412 88.3586 11.8065L93.5736 16.1562C93.7193 16.2767 93.8281 16.436 93.8873 16.6156C93.9465 16.7952 93.9537 16.9879 93.9081 17.1715L92.3506 23.3095C92.0852 24.3479 93.1928 25.1901 94.0812 24.6248L99.4923 21.1981C99.6441 21.1016 99.8202 21.0504 100 21.0504C100.18 21.0504 100.356 21.1016 100.508 21.1981Z" fill="#F8D57E" stroke="#F8D57E" stroke-width="2" stroke-linecap="round" stroke-linejoin="round"/>
<path d="M129.508 21.1981L135.323 24.8902C136.073 25.3632 136.996 24.6594 136.776 23.7941L135.092 17.1715C135.046 16.9879 135.054 16.7952 135.113 16.6156C135.172 16.436 135.281 16.2767 135.426 16.1562L140.641 11.8065C141.322 11.2412 140.976 10.099 140.088 10.0413L133.28 9.60283C133.095 9.59203 132.916 9.52735 132.767 9.41671C132.617 9.30606 132.503 9.15424 132.438 8.9798L129.9 2.58797C129.833 2.40326 129.71 2.24369 129.549 2.13094C129.388 2.01819 129.197 1.9577 129 1.9577C128.803 1.9577 128.612 2.01819 128.451 2.13094C128.29 2.24369 128.167 2.40326 128.1 2.58797L125.562 8.9798C125.497 9.15424 125.383 9.30606 125.233 9.41671C125.084 9.52735 124.905 9.59203 124.72 9.60283L117.912 10.0413C117.024 10.099 116.678 11.2412 117.359 11.8065L122.574 16.1562C122.719 16.2767 122.828 16.436 122.887 16.6156C122.946 16.7952 122.954 16.9879 122.908 17.1715L121.351 23.3095C121.085 24.3479 122.193 25.1901 123.081 24.6248L128.492 21.1981C128.644 21.1016 128.82 21.0504 129 21.0504C129.18 21.0504 129.356 21.1016 129.508 21.1981Z" fill="#F8D57E" stroke="#F8D57E" stroke-width="2" stroke-linecap="round" stroke-linejoin="round"/>
<path d="M1.288 67.0423L6.264 55.7623H7.416L12.472 67.0423H11.096L9.688 63.8263L10.28 64.1623H3.384L4.024 63.8263L2.648 67.0423H1.288ZM6.824 57.2823L4.232 63.3623L3.848 63.0743H9.8L9.512 63.3623L6.856 57.2823H6.824ZM14.0296 67.0423V60.8663C14.0296 60.5676 14.0136 60.2636 13.9816 59.9543C13.9603 59.6343 13.9336 59.3196 13.9016 59.0103H15.1496L15.3096 60.7703H15.1176C15.331 60.1623 15.667 59.693 16.1256 59.3623C16.595 59.0316 17.1603 58.8663 17.8216 58.8663C18.4936 58.8663 19.0376 59.0263 19.4536 59.3463C19.8803 59.6663 20.1683 60.1623 20.3176 60.8343H20.0776C20.2803 60.2263 20.6376 59.7463 21.1496 59.3943C21.6616 59.0423 22.259 58.8663 22.9416 58.8663C23.827 58.8663 24.4936 59.1223 24.9416 59.6343C25.3896 60.1356 25.6136 60.9303 25.6136 62.0183V67.0423H24.3176V62.0983C24.3176 61.341 24.1843 60.7916 23.9176 60.4503C23.651 60.0983 23.2243 59.9223 22.6376 59.9223C21.9656 59.9223 21.4323 60.157 21.0376 60.6263C20.6536 61.085 20.4616 61.7036 20.4616 62.4823V67.0423H19.1656V62.0983C19.1656 61.341 19.0323 60.7916 18.7656 60.4503C18.499 60.0983 18.0723 59.9223 17.4856 59.9223C16.8136 59.9223 16.2856 60.157 15.9016 60.6263C15.5176 61.085 15.3256 61.7036 15.3256 62.4823V67.0423H14.0296ZM31.6445 67.1863C30.3858 67.1863 29.3938 66.8236 28.6685 66.0983C27.9432 65.3623 27.5805 64.3436 27.5805 63.0423C27.5805 62.1996 27.7405 61.469 28.0605 60.8503C28.3805 60.221 28.8285 59.7356 29.4045 59.3943C29.9805 59.0423 30.6418 58.8663 31.3885 58.8663C32.1245 58.8663 32.7432 59.021 33.2445 59.3303C33.7458 59.6396 34.1298 60.0823 34.3965 60.6583C34.6632 61.2236 34.7965 61.8956 34.7965 62.6743V63.1543H28.5725V62.3383H33.9485L33.6765 62.5463C33.6765 61.693 33.4845 61.0263 33.1005 60.5463C32.7165 60.0663 32.1458 59.8263 31.3885 59.8263C30.5885 59.8263 29.9645 60.109 29.5165 60.6743C29.0685 61.229 28.8445 61.981 28.8445 62.9303V63.0743C28.8445 64.077 29.0898 64.8396 29.5805 65.3623C30.0818 65.8743 30.7805 66.1303 31.6765 66.1303C32.1565 66.1303 32.6045 66.061 33.0205 65.9223C33.4472 65.773 33.8525 65.533 34.2365 65.2023L34.6845 66.1143C34.3325 66.4556 33.8845 66.7223 33.3405 66.9143C32.8072 67.0956 32.2418 67.1863 31.6445 67.1863ZM39.6276 67.1863C38.8383 67.1863 38.2356 66.9623 37.8196 66.5143C37.4036 66.0556 37.1956 65.3676 37.1956 64.4503V60.0183H35.6276V59.0103H37.1956V56.8183L38.4916 56.4503V59.0103H40.7956V60.0183H38.4916V64.3063C38.4916 64.9463 38.5983 65.405 38.8116 65.6823C39.0356 65.949 39.3663 66.0823 39.8036 66.0823C40.0063 66.0823 40.1876 66.0663 40.3476 66.0343C40.5076 65.9916 40.6516 65.9436 40.7796 65.8903V66.9783C40.6303 67.0423 40.449 67.0903 40.2356 67.1223C40.033 67.165 39.8303 67.1863 39.6276 67.1863ZM46.5453 67.0423V60.8663C46.5453 60.5676 46.5293 60.2636 46.4973 59.9543C46.4759 59.6343 46.4493 59.3196 46.4173 59.0103H47.6653L47.8253 60.7703H47.6332C47.8466 60.1623 48.1826 59.693 48.6413 59.3623C49.1106 59.0316 49.6759 58.8663 50.3373 58.8663C51.0093 58.8663 51.5533 59.0263 51.9693 59.3463C52.3959 59.6663 52.6839 60.1623 52.8333 60.8343H52.5933C52.7959 60.2263 53.1533 59.7463 53.6653 59.3943C54.1773 59.0423 54.7746 58.8663 55.4573 58.8663C56.3426 58.8663 57.0093 59.1223 57.4573 59.6343C57.9053 60.1356 58.1293 60.9303 58.1293 62.0183V67.0423H56.8333V62.0983C56.8333 61.341 56.6999 60.7916 56.4333 60.4503C56.1666 60.0983 55.7399 59.9223 55.1533 59.9223C54.4813 59.9223 53.9479 60.157 53.5533 60.6263C53.1693 61.085 52.9773 61.7036 52.9773 62.4823V67.0423H51.6813V62.0983C51.6813 61.341 51.5479 60.7916 51.2813 60.4503C51.0146 60.0983 50.5879 59.9223 50.0013 59.9223C49.3293 59.9223 48.8013 60.157 48.4173 60.6263C48.0333 61.085 47.8413 61.7036 47.8413 62.4823V67.0423H46.5453ZM60.5921 67.0423V59.0103H61.8881V67.0423H60.5921ZM60.4321 57.1863V55.7303H62.0321V57.1863H60.4321ZM64.4046 67.0423V60.8663C64.4046 60.5676 64.3886 60.2636 64.3566 59.9543C64.3353 59.6343 64.3086 59.3196 64.2766 59.0103H65.5246L65.6846 60.7703H65.4926C65.7273 60.1516 66.1006 59.6823 66.6126 59.3623C67.1353 59.0316 67.738 58.8663 68.4206 58.8663C69.37 58.8663 70.0846 59.1223 70.5646 59.6343C71.0553 60.1356 71.3006 60.9303 71.3006 62.0183V67.0423H70.0046V62.0983C70.0046 61.341 69.85 60.7916 69.5406 60.4503C69.242 60.0983 68.7726 59.9223 68.1326 59.9223C67.386 59.9223 66.794 60.1516 66.3566 60.6103C65.9193 61.069 65.7006 61.6823 65.7006 62.4503V67.0423H64.4046ZM73.7796 67.0423V59.0103H75.0756V67.0423H73.7796ZM73.6196 57.1863V55.7303H75.2196V57.1863H73.6196ZM77.5921 67.0423V60.8663C77.5921 60.5676 77.5761 60.2636 77.5441 59.9543C77.5228 59.6343 77.4961 59.3196 77.4641 59.0103H78.7121L78.8721 60.7703H78.6801C78.8935 60.1623 79.2295 59.693 79.6881 59.3623C80.1575 59.0316 80.7228 58.8663 81.3841 58.8663C82.0561 58.8663 82.6001 59.0263 83.0161 59.3463C83.4428 59.6663 83.7308 60.1623 83.8801 60.8343H83.6401C83.8428 60.2263 84.2001 59.7463 84.7121 59.3943C85.2241 59.0423 85.8215 58.8663 86.5041 58.8663C87.3895 58.8663 88.0561 59.1223 88.5041 59.6343C88.9521 60.1356 89.1761 60.9303 89.1761 62.0183V67.0423H87.8801V62.0983C87.8801 61.341 87.7468 60.7916 87.4801 60.4503C87.2135 60.0983 86.7868 59.9223 86.2001 59.9223C85.5281 59.9223 84.9948 60.157 84.6001 60.6263C84.2161 61.085 84.0241 61.7036 84.0241 62.4823V67.0423H82.7281V62.0983C82.7281 61.341 82.5948 60.7916 82.3281 60.4503C82.0615 60.0983 81.6348 59.9223 81.0481 59.9223C80.3761 59.9223 79.8481 60.157 79.4641 60.6263C79.0801 61.085 78.8881 61.7036 78.8881 62.4823V67.0423H77.5921ZM95.8109 67.0423V60.8663C95.8109 60.5676 95.7949 60.2636 95.7629 59.9543C95.7415 59.6343 95.7149 59.3196 95.6829 59.0103H96.9309L97.0909 60.7703H96.8989C97.1122 60.1623 97.4482 59.693 97.9069 59.3623C98.3762 59.0316 98.9415 58.8663 99.6029 58.8663C100.275 58.8663 100.819 59.0263 101.235 59.3463C101.662 59.6663 101.95 60.1623 102.099 60.8343H101.859C102.062 60.2263 102.419 59.7463 102.931 59.3943C103.443 59.0423 104.04 58.8663 104.723 58.8663C105.608 58.8663 106.275 59.1223 106.723 59.6343C107.171 60.1356 107.395 60.9303 107.395 62.0183V67.0423H106.099V62.0983C106.099 61.341 105.966 60.7916 105.699 60.4503C105.432 60.0983 105.006 59.9223 104.419 59.9223C103.747 59.9223 103.214 60.157 102.819 60.6263C102.435 61.085 102.243 61.7036 102.243 62.4823V67.0423H100.947V62.0983C100.947 61.341 100.814 60.7916 100.547 60.4503C100.28 60.0983 99.8535 59.9223 99.2669 59.9223C98.5949 59.9223 98.0669 60.157 97.6829 60.6263C97.2989 61.085 97.1069 61.7036 97.1069 62.4823V67.0423H95.8109ZM113.154 67.1863C112.386 67.1863 111.714 67.021 111.138 66.6903C110.572 66.349 110.135 65.869 109.826 65.2503C109.516 64.621 109.362 63.8796 109.362 63.0263C109.362 62.1623 109.516 61.421 109.826 60.8023C110.135 60.1836 110.572 59.709 111.138 59.3783C111.714 59.037 112.386 58.8663 113.154 58.8663C113.932 58.8663 114.604 59.037 115.17 59.3783C115.746 59.709 116.188 60.1836 116.498 60.8023C116.818 61.421 116.978 62.1623 116.978 63.0263C116.978 63.8796 116.818 64.621 116.498 65.2503C116.188 65.869 115.746 66.349 115.17 66.6903C114.604 67.021 113.932 67.1863 113.154 67.1863ZM113.154 66.1303C113.922 66.1303 114.53 65.869 114.978 65.3463C115.426 64.813 115.65 64.0396 115.65 63.0263C115.65 62.0023 115.42 61.229 114.962 60.7063C114.514 60.173 113.911 59.9063 113.154 59.9063C112.396 59.9063 111.794 60.173 111.346 60.7063C110.898 61.229 110.674 62.0023 110.674 63.0263C110.674 64.0396 110.898 64.813 111.346 65.3463C111.794 65.869 112.396 66.1303 113.154 66.1303ZM118.998 67.0423V55.2663H120.294V67.0423H118.998ZM122.811 67.0423V55.2663H124.107V67.0423H122.811ZM126.623 67.0423V59.0103H127.919V67.0423H126.623ZM126.463 57.1863V55.7303H128.063V57.1863H126.463ZM133.284 67.1863C132.495 67.1863 131.892 66.9623 131.476 66.5143C131.06 66.0556 130.852 65.3676 130.852 64.4503V60.0183H129.284V59.0103H130.852V56.8183L132.148 56.4503V59.0103H134.452V60.0183H132.148V64.3063C132.148 64.9463 132.255 65.405 132.468 65.6823C132.692 65.949 133.023 66.0823 133.46 66.0823C133.663 66.0823 133.844 66.0663 134.004 66.0343C134.164 65.9916 134.308 65.9436 134.436 65.8903V66.9783C134.287 67.0423 134.105 67.0903 133.892 67.1223C133.689 67.165 133.487 67.1863 133.284 67.1863ZM140.202 67.0423V60.8663C140.202 60.5676 140.186 60.2636 140.154 59.9543C140.132 59.6343 140.106 59.3196 140.074 59.0103H141.322L141.482 60.7703H141.289C141.524 60.1516 141.898 59.6823 142.41 59.3623C142.932 59.0316 143.535 58.8663 144.218 58.8663C145.167 58.8663 145.882 59.1223 146.362 59.6343C146.852 60.1356 147.098 60.9303 147.098 62.0183V67.0423H145.802V62.0983C145.802 61.341 145.647 60.7916 145.338 60.4503C145.039 60.0983 144.57 59.9223 143.93 59.9223C143.183 59.9223 142.591 60.1516 142.154 60.6103C141.716 61.069 141.498 61.6823 141.498 62.4503V67.0423H140.202ZM152.873 67.1863C152.105 67.1863 151.433 67.021 150.857 66.6903C150.291 66.349 149.854 65.869 149.545 65.2503C149.235 64.621 149.081 63.8796 149.081 63.0263C149.081 62.1623 149.235 61.421 149.545 60.8023C149.854 60.1836 150.291 59.709 150.857 59.3783C151.433 59.037 152.105 58.8663 152.873 58.8663C153.651 58.8663 154.323 59.037 154.889 59.3783C155.465 59.709 155.907 60.1836 156.217 60.8023C156.537 61.421 156.697 62.1623 156.697 63.0263C156.697 63.8796 156.537 64.621 156.217 65.2503C155.907 65.869 155.465 66.349 154.889 66.6903C154.323 67.021 153.651 67.1863 152.873 67.1863ZM152.873 66.1303C153.641 66.1303 154.249 65.869 154.697 65.3463C155.145 64.813 155.369 64.0396 155.369 63.0263C155.369 62.0023 155.139 61.229 154.681 60.7063C154.233 60.173 153.63 59.9063 152.873 59.9063C152.115 59.9063 151.513 60.173 151.065 60.7063C150.617 61.229 150.393 62.0023 150.393 63.0263C150.393 64.0396 150.617 64.813 151.065 65.3463C151.513 65.869 152.115 66.1303 152.873 66.1303ZM158.717 67.0423V60.8663C158.717 60.5676 158.701 60.2636 158.669 59.9543C158.648 59.6343 158.621 59.3196 158.589 59.0103H159.837L159.997 60.7703H159.805C160.04 60.1516 160.413 59.6823 160.925 59.3623C161.448 59.0316 162.05 58.8663 162.733 58.8663C163.682 58.8663 164.397 59.1223 164.877 59.6343C165.368 60.1356 165.613 60.9303 165.613 62.0183V67.0423H164.317V62.0983C164.317 61.341 164.162 60.7916 163.853 60.4503C163.554 60.0983 163.085 59.9223 162.445 59.9223C161.698 59.9223 161.106 60.1516 160.669 60.6103C160.232 61.069 160.013 61.6823 160.013 62.4503V67.0423H158.717ZM175.304 67.1863C174.6 67.1863 173.981 67.021 173.448 66.6903C172.915 66.349 172.499 65.869 172.2 65.2503C171.912 64.6316 171.768 63.8903 171.768 63.0263C171.768 62.1516 171.912 61.405 172.2 60.7863C172.499 60.1676 172.915 59.693 173.448 59.3623C173.981 59.0316 174.6 58.8663 175.304 58.8663C176.029 58.8663 176.653 59.0476 177.176 59.4103C177.709 59.773 178.067 60.2636 178.248 60.8823H178.056V55.2663H179.352V67.0423H178.072V65.1223H178.248C178.077 65.7623 177.725 66.269 177.192 66.6423C176.659 67.005 176.029 67.1863 175.304 67.1863ZM175.576 66.1303C176.333 66.1303 176.941 65.869 177.4 65.3463C177.859 64.813 178.088 64.0396 178.088 63.0263C178.088 62.0023 177.859 61.229 177.4 60.7063C176.941 60.173 176.333 59.9063 175.576 59.9063C174.819 59.9063 174.211 60.173 173.752 60.7063C173.304 61.229 173.08 62.0023 173.08 63.0263C173.08 64.0396 173.304 64.813 173.752 65.3463C174.211 65.869 174.819 66.1303 175.576 66.1303ZM185.426 67.1863C184.167 67.1863 183.175 66.8236 182.45 66.0983C181.724 65.3623 181.362 64.3436 181.362 63.0423C181.362 62.1996 181.522 61.469 181.842 60.8503C182.162 60.221 182.61 59.7356 183.186 59.3943C183.762 59.0423 184.423 58.8663 185.17 58.8663C185.906 58.8663 186.524 59.021 187.026 59.3303C187.527 59.6396 187.911 60.0823 188.178 60.6583C188.444 61.2236 188.578 61.8956 188.578 62.6743V63.1543H182.354V62.3383H187.73L187.458 62.5463C187.458 61.693 187.266 61.0263 186.882 60.5463C186.498 60.0663 185.927 59.8263 185.17 59.8263C184.37 59.8263 183.746 60.109 183.298 60.6743C182.85 61.229 182.626 61.981 182.626 62.9303V63.0743C182.626 64.077 182.871 64.8396 183.362 65.3623C183.863 65.8743 184.562 66.1303 185.458 66.1303C185.938 66.1303 186.386 66.061 186.802 65.9223C187.228 65.773 187.634 65.533 188.018 65.2023L188.466 66.1143C188.114 66.4556 187.666 66.7223 187.122 66.9143C186.588 67.0956 186.023 67.1863 185.426 67.1863ZM193.233 67.1863C192.593 67.1863 191.996 67.101 191.441 66.9303C190.886 66.749 190.428 66.4983 190.065 66.1783L190.513 65.2663C190.908 65.5756 191.334 65.805 191.793 65.9543C192.262 66.1036 192.748 66.1783 193.249 66.1783C193.889 66.1783 194.369 66.0663 194.689 65.8423C195.02 65.6076 195.185 65.2876 195.185 64.8823C195.185 64.573 195.078 64.3276 194.865 64.1463C194.662 63.9543 194.326 63.805 193.857 63.6983L192.369 63.3943C191.686 63.245 191.174 62.9943 190.833 62.6423C190.492 62.2796 190.321 61.821 190.321 61.2663C190.321 60.797 190.444 60.3863 190.689 60.0343C190.934 59.6716 191.292 59.389 191.761 59.1863C192.23 58.973 192.78 58.8663 193.409 58.8663C193.996 58.8663 194.534 58.957 195.025 59.1383C195.526 59.309 195.942 59.5596 196.273 59.8903L195.809 60.7863C195.489 60.477 195.121 60.2476 194.705 60.0983C194.3 59.9383 193.878 59.8583 193.441 59.8583C192.812 59.8583 192.337 59.9863 192.017 60.2423C191.708 60.4876 191.553 60.813 191.553 61.2183C191.553 61.5276 191.649 61.7836 191.841 61.9863C192.044 62.1783 192.353 62.3223 192.769 62.4183L194.257 62.7223C194.982 62.8823 195.521 63.133 195.873 63.4743C196.236 63.805 196.417 64.253 196.417 64.8183C196.417 65.2983 196.284 65.7196 196.017 66.0823C195.75 66.4343 195.377 66.7063 194.897 66.8983C194.428 67.0903 193.873 67.1863 193.233 67.1863ZM202.066 67.1863C200.808 67.1863 199.816 66.8236 199.09 66.0983C198.365 65.3623 198.002 64.3436 198.002 63.0423C198.002 62.1996 198.162 61.469 198.482 60.8503C198.802 60.221 199.25 59.7356 199.826 59.3943C200.402 59.0423 201.064 58.8663 201.81 58.8663C202.546 58.8663 203.165 59.021 203.666 59.3303C204.168 59.6396 204.552 60.0823 204.818 60.6583C205.085 61.2236 205.218 61.8956 205.218 62.6743V63.1543H198.994V62.3383H204.37L204.098 62.5463C204.098 61.693 203.906 61.0263 203.522 60.5463C203.138 60.0663 202.568 59.8263 201.81 59.8263C201.01 59.8263 200.386 60.109 199.938 60.6743C199.49 61.229 199.266 61.981 199.266 62.9303V63.0743C199.266 64.077 199.512 64.8396 200.002 65.3623C200.504 65.8743 201.202 66.1303 202.098 66.1303C202.578 66.1303 203.026 66.061 203.442 65.9223C203.869 65.773 204.274 65.533 204.658 65.2023L205.106 66.1143C204.754 66.4556 204.306 66.7223 203.762 66.9143C203.229 67.0956 202.664 67.1863 202.066 67.1863ZM207.17 67.0423V60.9463C207.17 60.6263 207.159 60.301 207.138 59.9703C207.127 59.6396 207.106 59.3196 207.074 59.0103H208.322L208.482 60.9623L208.258 60.9783C208.364 60.4983 208.551 60.1036 208.818 59.7943C209.084 59.485 209.399 59.2556 209.762 59.1063C210.124 58.9463 210.503 58.8663 210.898 58.8663C211.058 58.8663 211.196 58.8716 211.314 58.8823C211.442 58.893 211.559 58.9196 211.666 58.9623L211.65 60.1143C211.49 60.061 211.34 60.029 211.202 60.0183C211.074 59.997 210.924 59.9863 210.754 59.9863C210.284 59.9863 209.874 60.0983 209.522 60.3223C209.18 60.5463 208.919 60.8343 208.738 61.1863C208.567 61.5383 208.482 61.9116 208.482 62.3063V67.0423H207.17ZM215.846 67.1863C214.897 67.1863 214.177 66.925 213.686 66.4023C213.206 65.8796 212.966 65.0796 212.966 64.0023V59.0103H214.262V63.9703C214.262 64.7063 214.411 65.2503 214.71 65.6023C215.009 65.9436 215.473 66.1143 216.102 66.1143C216.806 66.1143 217.371 65.885 217.798 65.4263C218.225 64.9676 218.438 64.3543 218.438 63.5863V59.0103H219.734V67.0423H218.47V65.2343H218.678C218.454 65.853 218.091 66.333 217.59 66.6743C217.099 67.0156 216.518 67.1863 215.846 67.1863ZM222.248 67.0423V60.8663C222.248 60.5676 222.232 60.2636 222.2 59.9543C222.179 59.6343 222.152 59.3196 222.12 59.0103H223.368L223.528 60.7703H223.336C223.571 60.1516 223.944 59.6823 224.456 59.3623C224.979 59.0316 225.582 58.8663 226.264 58.8663C227.214 58.8663 227.928 59.1223 228.408 59.6343C228.899 60.1356 229.144 60.9303 229.144 62.0183V67.0423H227.848V62.0983C227.848 61.341 227.694 60.7916 227.384 60.4503C227.086 60.0983 226.616 59.9223 225.976 59.9223C225.23 59.9223 224.638 60.1516 224.2 60.6103C223.763 61.069 223.544 61.6823 223.544 62.4503V67.0423H222.248ZM234.471 67.1863C233.682 67.1863 233.079 66.9623 232.663 66.5143C232.247 66.0556 232.039 65.3676 232.039 64.4503V60.0183H230.471V59.0103H232.039V56.8183L233.335 56.4503V59.0103H235.639V60.0183H233.335V64.3063C233.335 64.9463 233.442 65.405 233.655 65.6823C233.879 65.949 234.21 66.0823 234.647 66.0823C234.85 66.0823 235.031 66.0663 235.191 66.0343C235.351 65.9916 235.495 65.9436 235.623 65.8903V66.9783C235.474 67.0423 235.293 67.0903 235.079 67.1223C234.877 67.165 234.674 67.1863 234.471 67.1863ZM5.096 91.1863C4.14667 91.1863 3.42667 90.925 2.936 90.4023C2.456 89.8796 2.216 89.0796 2.216 88.0023V83.0103H3.512V87.9703C3.512 88.7063 3.66133 89.2503 3.96 89.6023C4.25867 89.9436 4.72267 90.1143 5.352 90.1143C6.056 90.1143 6.62133 89.885 7.048 89.4263C7.47467 88.9676 7.688 88.3543 7.688 87.5863V83.0103H8.984V91.0423H7.72V89.2343H7.928C7.704 89.853 7.34133 90.333 6.84 90.6743C6.34933 91.0156 5.768 91.1863 5.096 91.1863ZM11.4984 91.0423V79.2663H12.7944V91.0423H11.4984ZM15.3109 91.0423V79.2663H16.6069V91.0423H15.3109ZM22.1794 91.1863C21.4647 91.1863 20.8407 91.021 20.3074 90.6903C19.774 90.349 19.358 89.869 19.0594 89.2503C18.7714 88.6316 18.6274 87.8903 18.6274 87.0263C18.6274 86.1516 18.7714 85.405 19.0594 84.7863C19.358 84.1676 19.774 83.693 20.3074 83.3623C20.8407 83.0316 21.4647 82.8663 22.1794 82.8663C22.9047 82.8663 23.5287 83.053 24.0514 83.4263C24.5847 83.789 24.9367 84.285 25.1074 84.9143H24.9154L25.0914 83.0103H26.3394C26.3074 83.3196 26.2754 83.6343 26.2434 83.9543C26.222 84.2636 26.2114 84.5676 26.2114 84.8663V91.0423H24.9154V89.1543H25.0914C24.9207 89.7836 24.5687 90.2796 24.0354 90.6423C23.502 91.005 22.8834 91.1863 22.1794 91.1863ZM22.4354 90.1303C23.2034 90.1303 23.8114 89.869 24.2594 89.3463C24.7074 88.813 24.9314 88.0396 24.9314 87.0263C24.9314 86.0023 24.7074 85.229 24.2594 84.7063C23.8114 84.173 23.2034 83.9063 22.4354 83.9063C21.678 83.9063 21.07 84.173 20.6114 84.7063C20.1634 85.229 19.9394 86.0023 19.9394 87.0263C19.9394 88.0396 20.1634 88.813 20.6114 89.3463C21.07 89.869 21.678 90.1303 22.4354 90.1303ZM28.7171 91.0423V84.8663C28.7171 84.5676 28.7011 84.2636 28.6691 83.9543C28.6478 83.6343 28.6211 83.3196 28.5891 83.0103H29.8371L29.9971 84.7703H29.8051C30.0185 84.1623 30.3545 83.693 30.8131 83.3623C31.2825 83.0316 31.8478 82.8663 32.5091 82.8663C33.1811 82.8663 33.7251 83.0263 34.1411 83.3463C34.5678 83.6663 34.8558 84.1623 35.0051 84.8343H34.7651C34.9678 84.2263 35.3251 83.7463 35.8371 83.3943C36.3491 83.0423 36.9465 82.8663 37.6291 82.8663C38.5145 82.8663 39.1811 83.1223 39.6291 83.6343C40.0771 84.1356 40.3011 84.9303 40.3011 86.0183V91.0423H39.0051V86.0983C39.0051 85.341 38.8718 84.7916 38.6051 84.4503C38.3385 84.0983 37.9118 83.9223 37.3251 83.9223C36.6531 83.9223 36.1198 84.157 35.7251 84.6263C35.3411 85.085 35.1491 85.7036 35.1491 86.4823V91.0423H33.8531V86.0983C33.8531 85.341 33.7198 84.7916 33.4531 84.4503C33.1865 84.0983 32.7598 83.9223 32.1731 83.9223C31.5011 83.9223 30.9731 84.157 30.5891 84.6263C30.2051 85.085 30.0131 85.7036 30.0131 86.4823V91.0423H28.7171ZM46.14 91.1863C45.3507 91.1863 44.6627 91.0156 44.076 90.6743C43.5 90.333 43.052 89.8476 42.732 89.2183C42.4227 88.589 42.268 87.8423 42.268 86.9783C42.268 86.1036 42.428 85.3623 42.748 84.7543C43.068 84.1356 43.516 83.6663 44.092 83.3463C44.6787 83.0263 45.3613 82.8663 46.14 82.8663C46.652 82.8663 47.148 82.957 47.628 83.1383C48.1187 83.3196 48.524 83.5756 48.844 83.9063L48.38 84.8343C48.06 84.525 47.708 84.2956 47.324 84.1463C46.9507 83.997 46.5827 83.9223 46.22 83.9223C45.388 83.9223 44.7427 84.1836 44.284 84.7063C43.8253 85.229 43.596 85.9916 43.596 86.9943C43.596 87.9863 43.8253 88.7543 44.284 89.2983C44.7427 89.8423 45.388 90.1143 46.22 90.1143C46.572 90.1143 46.9347 90.045 47.308 89.9063C47.692 89.7676 48.0493 89.5383 48.38 89.2183L48.844 90.1303C48.5133 90.4716 48.1027 90.733 47.612 90.9143C47.1213 91.0956 46.6307 91.1863 46.14 91.1863ZM53.8256 91.1863C53.0576 91.1863 52.3856 91.021 51.8096 90.6903C51.2443 90.349 50.807 89.869 50.4976 89.2503C50.1883 88.621 50.0336 87.8796 50.0336 87.0263C50.0336 86.1623 50.1883 85.421 50.4976 84.8023C50.807 84.1836 51.2443 83.709 51.8096 83.3783C52.3856 83.037 53.0576 82.8663 53.8256 82.8663C54.6043 82.8663 55.2763 83.037 55.8416 83.3783C56.4176 83.709 56.8603 84.1836 57.1696 84.8023C57.4896 85.421 57.6496 86.1623 57.6496 87.0263C57.6496 87.8796 57.4896 88.621 57.1696 89.2503C56.8603 89.869 56.4176 90.349 55.8416 90.6903C55.2763 91.021 54.6043 91.1863 53.8256 91.1863ZM53.8256 90.1303C54.5936 90.1303 55.2016 89.869 55.6496 89.3463C56.0976 88.813 56.3216 88.0396 56.3216 87.0263C56.3216 86.0023 56.0923 85.229 55.6336 84.7063C55.1856 84.173 54.583 83.9063 53.8256 83.9063C53.0683 83.9063 52.4656 84.173 52.0176 84.7063C51.5696 85.229 51.3456 86.0023 51.3456 87.0263C51.3456 88.0396 51.5696 88.813 52.0176 89.3463C52.4656 89.869 53.0683 90.1303 53.8256 90.1303ZM67.4101 91.1863C66.1515 91.1863 65.1595 90.8236 64.4341 90.0983C63.7088 89.3623 63.3461 88.3436 63.3461 87.0423C63.3461 86.1996 63.5061 85.469 63.8261 84.8503C64.1461 84.221 64.5941 83.7356 65.1701 83.3943C65.7461 83.0423 66.4075 82.8663 67.1541 82.8663C67.8901 82.8663 68.5088 83.021 69.0101 83.3303C69.5115 83.6396 69.8955 84.0823 70.1621 84.6583C70.4288 85.2236 70.5621 85.8956 70.5621 86.6743V87.1543H64.3381V86.3383H69.7141L69.4421 86.5463C69.4421 85.693 69.2501 85.0263 68.8661 84.5463C68.4821 84.0663 67.9115 83.8263 67.1541 83.8263C66.3541 83.8263 65.7301 84.109 65.2821 84.6743C64.8341 85.229 64.6101 85.981 64.6101 86.9303V87.0743C64.6101 88.077 64.8555 88.8396 65.3461 89.3623C65.8475 89.8743 66.5461 90.1303 67.4421 90.1303C67.9221 90.1303 68.3701 90.061 68.7861 89.9223C69.2128 89.773 69.6181 89.533 70.0021 89.2023L70.4501 90.1143C70.0981 90.4556 69.6501 90.7223 69.1061 90.9143C68.5728 91.0956 68.0075 91.1863 67.4101 91.1863ZM75.2173 91.1863C74.5773 91.1863 73.9799 91.101 73.4253 90.9303C72.8706 90.749 72.4119 90.4983 72.0493 90.1783L72.4973 89.2663C72.8919 89.5756 73.3186 89.805 73.7773 89.9543C74.2466 90.1036 74.7319 90.1783 75.2333 90.1783C75.8733 90.1783 76.3533 90.0663 76.6733 89.8423C77.0039 89.6076 77.1693 89.2876 77.1693 88.8823C77.1693 88.573 77.0626 88.3276 76.8493 88.1463C76.6466 87.9543 76.3106 87.805 75.8413 87.6983L74.3533 87.3943C73.6706 87.245 73.1586 86.9943 72.8173 86.6423C72.4759 86.2796 72.3053 85.821 72.3053 85.2663C72.3053 84.797 72.4279 84.3863 72.6733 84.0343C72.9186 83.6716 73.2759 83.389 73.7453 83.1863C74.2146 82.973 74.7639 82.8663 75.3932 82.8663C75.9799 82.8663 76.5186 82.957 77.0093 83.1383C77.5106 83.309 77.9266 83.5596 78.2573 83.8903L77.7933 84.7863C77.4733 84.477 77.1053 84.2476 76.6893 84.0983C76.2839 83.9383 75.8626 83.8583 75.4253 83.8583C74.7959 83.8583 74.3213 83.9863 74.0013 84.2423C73.6919 84.4876 73.5373 84.813 73.5373 85.2183C73.5373 85.5276 73.6333 85.7836 73.8253 85.9863C74.0279 86.1783 74.3373 86.3223 74.7533 86.4183L76.2413 86.7223C76.9666 86.8823 77.5053 87.133 77.8573 87.4743C78.2199 87.805 78.4013 88.253 78.4013 88.8183C78.4013 89.2983 78.2679 89.7196 78.0013 90.0823C77.7346 90.4343 77.3613 90.7063 76.8813 90.8983C76.4119 91.0903 75.8573 91.1863 75.2173 91.1863ZM83.2526 91.1863C82.4633 91.1863 81.8606 90.9623 81.4446 90.5143C81.0286 90.0556 80.8206 89.3676 80.8206 88.4503V84.0183H79.2526V83.0103H80.8206V80.8183L82.1166 80.4503V83.0103H84.4206V84.0183H82.1166V88.3063C82.1166 88.9463 82.2233 89.405 82.4366 89.6823C82.6606 89.949 82.9913 90.0823 83.4286 90.0823C83.6313 90.0823 83.8126 90.0663 83.9726 90.0343C84.1326 89.9916 84.2766 89.9436 84.4046 89.8903V90.9783C84.2553 91.0423 84.074 91.0903 83.8606 91.1223C83.658 91.165 83.4553 91.1863 83.2526 91.1863ZM92.8423 91.1863C92.2023 91.1863 91.6049 91.101 91.0503 90.9303C90.4956 90.749 90.0369 90.4983 89.6743 90.1783L90.1223 89.2663C90.5169 89.5756 90.9436 89.805 91.4023 89.9543C91.8716 90.1036 92.3569 90.1783 92.8583 90.1783C93.4983 90.1783 93.9783 90.0663 94.2983 89.8423C94.6289 89.6076 94.7943 89.2876 94.7943 88.8823C94.7943 88.573 94.6876 88.3276 94.4743 88.1463C94.2716 87.9543 93.9356 87.805 93.4663 87.6983L91.9783 87.3943C91.2956 87.245 90.7836 86.9943 90.4423 86.6423C90.1009 86.2796 89.9303 85.821 89.9303 85.2663C89.9303 84.797 90.0529 84.3863 90.2983 84.0343C90.5436 83.6716 90.9009 83.389 91.3703 83.1863C91.8396 82.973 92.3889 82.8663 93.0182 82.8663C93.6049 82.8663 94.1436 82.957 94.6343 83.1383C95.1356 83.309 95.5516 83.5596 95.8823 83.8903L95.4183 84.7863C95.0983 84.477 94.7303 84.2476 94.3143 84.0983C93.9089 83.9383 93.4876 83.8583 93.0503 83.8583C92.4209 83.8583 91.9463 83.9863 91.6263 84.2423C91.3169 84.4876 91.1623 84.813 91.1623 85.2183C91.1623 85.5276 91.2583 85.7836 91.4503 85.9863C91.6529 86.1783 91.9623 86.3223 92.3783 86.4183L93.8663 86.7223C94.5916 86.8823 95.1303 87.133 95.4823 87.4743C95.8449 87.805 96.0263 88.253 96.0263 88.8183C96.0263 89.2983 95.8929 89.7196 95.6263 90.0823C95.3596 90.4343 94.9863 90.7063 94.5063 90.8983C94.0369 91.0903 93.4823 91.1863 92.8423 91.1863ZM98.1078 91.0423V83.0103H99.4038V91.0423H98.1078ZM97.9478 81.1863V79.7303H99.5478V81.1863H97.9478ZM104.768 91.1863C103.979 91.1863 103.376 90.9623 102.96 90.5143C102.544 90.0556 102.336 89.3676 102.336 88.4503V84.0183H100.768V83.0103H102.336V80.8183L103.632 80.4503V83.0103H105.936V84.0183H103.632V88.3063C103.632 88.9463 103.739 89.405 103.952 89.6823C104.176 89.949 104.507 90.0823 104.944 90.0823C105.147 90.0823 105.328 90.0663 105.488 90.0343C105.648 89.9916 105.792 89.9436 105.92 89.8903V90.9783C105.771 91.0423 105.59 91.0903 105.376 91.1223C105.174 91.165 104.971 91.1863 104.768 91.1863ZM114.742 91.1863C114.027 91.1863 113.403 91.021 112.87 90.6903C112.337 90.349 111.921 89.869 111.622 89.2503C111.334 88.6316 111.19 87.8903 111.19 87.0263C111.19 86.1516 111.334 85.405 111.622 84.7863C111.921 84.1676 112.337 83.693 112.87 83.3623C113.403 83.0316 114.027 82.8663 114.742 82.8663C115.467 82.8663 116.091 83.053 116.614 83.4263C117.147 83.789 117.499 84.285 117.67 84.9143H117.478L117.654 83.0103H118.902C118.87 83.3196 118.838 83.6343 118.806 83.9543C118.785 84.2636 118.774 84.5676 118.774 84.8663V91.0423H117.478V89.1543H117.654C117.483 89.7836 117.131 90.2796 116.598 90.6423C116.065 91.005 115.446 91.1863 114.742 91.1863ZM114.998 90.1303C115.766 90.1303 116.374 89.869 116.822 89.3463C117.27 88.813 117.494 88.0396 117.494 87.0263C117.494 86.0023 117.27 85.229 116.822 84.7063C116.374 84.173 115.766 83.9063 114.998 83.9063C114.241 83.9063 113.633 84.173 113.174 84.7063C112.726 85.229 112.502 86.0023 112.502 87.0263C112.502 88.0396 112.726 88.813 113.174 89.3463C113.633 89.869 114.241 90.1303 114.998 90.1303ZM121.28 91.0423V79.2663H122.576V91.0423H121.28ZM125.092 91.0423V83.0103H126.388V91.0423H125.092ZM124.932 81.1863V79.7303H126.532V81.1863H124.932ZM134.697 94.4983V89.1543H134.873C134.702 89.7836 134.35 90.2796 133.817 90.6423C133.283 91.005 132.665 91.1863 131.961 91.1863C131.246 91.1863 130.622 91.021 130.089 90.6903C129.555 90.349 129.139 89.869 128.841 89.2503C128.553 88.6316 128.409 87.8903 128.409 87.0263C128.409 86.1516 128.553 85.405 128.841 84.7863C129.139 84.1676 129.555 83.693 130.089 83.3623C130.622 83.0316 131.246 82.8663 131.961 82.8663C132.686 82.8663 133.31 83.053 133.833 83.4263C134.366 83.789 134.718 84.285 134.889 84.9143H134.697L134.873 83.0103H136.121C136.089 83.3196 136.057 83.6343 136.025 83.9543C136.003 84.2636 135.993 84.5676 135.993 84.8663V94.4983H134.697ZM132.217 90.1303C132.985 90.1303 133.593 89.869 134.041 89.3463C134.489 88.813 134.713 88.0396 134.713 87.0263C134.713 86.0023 134.489 85.229 134.041 84.7063C133.593 84.173 132.985 83.9063 132.217 83.9063C131.459 83.9063 130.851 84.173 130.393 84.7063C129.945 85.229 129.721 86.0023 129.721 87.0263C129.721 88.0396 129.945 88.813 130.393 89.3463C130.851 89.869 131.459 90.1303 132.217 90.1303ZM141.33 91.1863C140.381 91.1863 139.661 90.925 139.17 90.4023C138.69 89.8796 138.45 89.0796 138.45 88.0023V83.0103H139.746V87.9703C139.746 88.7063 139.896 89.2503 140.194 89.6023C140.493 89.9436 140.957 90.1143 141.586 90.1143C142.29 90.1143 142.856 89.885 143.282 89.4263C143.709 88.9676 143.922 88.3543 143.922 87.5863V83.0103H145.218V91.0423H143.954V89.2343H144.162C143.938 89.853 143.576 90.333 143.074 90.6743C142.584 91.0156 142.002 91.1863 141.33 91.1863ZM150.789 91.1863C150.074 91.1863 149.45 91.021 148.917 90.6903C148.383 90.349 147.967 89.869 147.669 89.2503C147.381 88.6316 147.237 87.8903 147.237 87.0263C147.237 86.1516 147.381 85.405 147.669 84.7863C147.967 84.1676 148.383 83.693 148.917 83.3623C149.45 83.0316 150.074 82.8663 150.789 82.8663C151.514 82.8663 152.138 83.053 152.661 83.4263C153.194 83.789 153.546 84.285 153.717 84.9143H153.525L153.701 83.0103H154.949C154.917 83.3196 154.885 83.6343 154.853 83.9543C154.831 84.2636 154.821 84.5676 154.821 84.8663V91.0423H153.525V89.1543H153.701C153.53 89.7836 153.178 90.2796 152.645 90.6423C152.111 91.005 151.493 91.1863 150.789 91.1863ZM151.045 90.1303C151.813 90.1303 152.421 89.869 152.869 89.3463C153.317 88.813 153.541 88.0396 153.541 87.0263C153.541 86.0023 153.317 85.229 152.869 84.7063C152.421 84.173 151.813 83.9063 151.045 83.9063C150.287 83.9063 149.679 84.173 149.221 84.7063C148.773 85.229 148.549 86.0023 148.549 87.0263C148.549 88.0396 148.773 88.813 149.221 89.3463C149.679 89.869 150.287 90.1303 151.045 90.1303ZM164.538 91.1863C163.834 91.1863 163.216 91.021 162.682 90.6903C162.149 90.349 161.733 89.869 161.434 89.2503C161.146 88.6316 161.002 87.8903 161.002 87.0263C161.002 86.1516 161.146 85.405 161.434 84.7863C161.733 84.1676 162.149 83.693 162.682 83.3623C163.216 83.0316 163.834 82.8663 164.538 82.8663C165.264 82.8663 165.888 83.0476 166.41 83.4103C166.944 83.773 167.301 84.2636 167.482 84.8823H167.29V79.2663H168.586V91.0423H167.306V89.1223H167.482C167.312 89.7623 166.96 90.269 166.426 90.6423C165.893 91.005 165.264 91.1863 164.538 91.1863ZM164.81 90.1303C165.568 90.1303 166.176 89.869 166.634 89.3463C167.093 88.813 167.322 88.0396 167.322 87.0263C167.322 86.0023 167.093 85.229 166.634 84.7063C166.176 84.173 165.568 83.9063 164.81 83.9063C164.053 83.9063 163.445 84.173 162.986 84.7063C162.538 85.229 162.314 86.0023 162.314 87.0263C162.314 88.0396 162.538 88.813 162.986 89.3463C163.445 89.869 164.053 90.1303 164.81 90.1303ZM174.388 91.1863C173.62 91.1863 172.948 91.021 172.372 90.6903C171.807 90.349 171.369 89.869 171.06 89.2503C170.751 88.621 170.596 87.8796 170.596 87.0263C170.596 86.1623 170.751 85.421 171.06 84.8023C171.369 84.1836 171.807 83.709 172.372 83.3783C172.948 83.037 173.62 82.8663 174.388 82.8663C175.167 82.8663 175.839 83.037 176.404 83.3783C176.98 83.709 177.423 84.1836 177.732 84.8023C178.052 85.421 178.212 86.1623 178.212 87.0263C178.212 87.8796 178.052 88.621 177.732 89.2503C177.423 89.869 176.98 90.349 176.404 90.6903C175.839 91.021 175.167 91.1863 174.388 91.1863ZM174.388 90.1303C175.156 90.1303 175.764 89.869 176.212 89.3463C176.66 88.813 176.884 88.0396 176.884 87.0263C176.884 86.0023 176.655 85.229 176.196 84.7063C175.748 84.173 175.145 83.9063 174.388 83.9063C173.631 83.9063 173.028 84.173 172.58 84.7063C172.132 85.229 171.908 86.0023 171.908 87.0263C171.908 88.0396 172.132 88.813 172.58 89.3463C173.028 89.869 173.631 90.1303 174.388 90.1303ZM180.233 91.0423V79.2663H181.529V91.0423H180.233ZM187.341 91.1863C186.573 91.1863 185.901 91.021 185.325 90.6903C184.76 90.349 184.323 89.869 184.013 89.2503C183.704 88.621 183.549 87.8796 183.549 87.0263C183.549 86.1623 183.704 85.421 184.013 84.8023C184.323 84.1836 184.76 83.709 185.325 83.3783C185.901 83.037 186.573 82.8663 187.341 82.8663C188.12 82.8663 188.792 83.037 189.357 83.3783C189.933 83.709 190.376 84.1836 190.685 84.8023C191.005 85.421 191.165 86.1623 191.165 87.0263C191.165 87.8796 191.005 88.621 190.685 89.2503C190.376 89.869 189.933 90.349 189.357 90.6903C188.792 91.021 188.12 91.1863 187.341 91.1863ZM187.341 90.1303C188.109 90.1303 188.717 89.869 189.165 89.3463C189.613 88.813 189.837 88.0396 189.837 87.0263C189.837 86.0023 189.608 85.229 189.149 84.7063C188.701 84.173 188.099 83.9063 187.341 83.9063C186.584 83.9063 185.981 84.173 185.533 84.7063C185.085 85.229 184.861 86.0023 184.861 87.0263C184.861 88.0396 185.085 88.813 185.533 89.3463C185.981 89.869 186.584 90.1303 187.341 90.1303ZM193.154 91.0423V84.9463C193.154 84.6263 193.143 84.301 193.122 83.9703C193.111 83.6396 193.09 83.3196 193.058 83.0103H194.306L194.466 84.9623L194.242 84.9783C194.349 84.4983 194.535 84.1036 194.802 83.7943C195.069 83.485 195.383 83.2556 195.746 83.1063C196.109 82.9463 196.487 82.8663 196.882 82.8663C197.042 82.8663 197.181 82.8716 197.298 82.8823C197.426 82.893 197.543 82.9196 197.65 82.9623L197.634 84.1143C197.474 84.061 197.325 84.029 197.186 84.0183C197.058 83.997 196.909 83.9863 196.738 83.9863C196.269 83.9863 195.858 84.0983 195.506 84.3223C195.165 84.5463 194.903 84.8343 194.722 85.1863C194.551 85.5383 194.466 85.9116 194.466 86.3063V91.0423H193.154ZM206.21 91.1863C205.506 91.1863 204.888 91.021 204.354 90.6903C203.821 90.349 203.405 89.869 203.106 89.2503C202.818 88.6316 202.674 87.8903 202.674 87.0263C202.674 86.1516 202.818 85.405 203.106 84.7863C203.405 84.1676 203.821 83.693 204.354 83.3623C204.888 83.0316 205.506 82.8663 206.21 82.8663C206.936 82.8663 207.56 83.0476 208.082 83.4103C208.616 83.773 208.973 84.2636 209.154 84.8823H208.962V79.2663H210.258V91.0423H208.978V89.1223H209.154C208.984 89.7623 208.632 90.269 208.098 90.6423C207.565 91.005 206.936 91.1863 206.21 91.1863ZM206.482 90.1303C207.24 90.1303 207.848 89.869 208.306 89.3463C208.765 88.813 208.994 88.0396 208.994 87.0263C208.994 86.0023 208.765 85.229 208.306 84.7063C207.848 84.173 207.24 83.9063 206.482 83.9063C205.725 83.9063 205.117 84.173 204.658 84.7063C204.21 85.229 203.986 86.0023 203.986 87.0263C203.986 88.0396 204.21 88.813 204.658 89.3463C205.117 89.869 205.725 90.1303 206.482 90.1303ZM216.06 91.1863C215.292 91.1863 214.62 91.021 214.044 90.6903C213.479 90.349 213.041 89.869 212.732 89.2503C212.423 88.621 212.268 87.8796 212.268 87.0263C212.268 86.1623 212.423 85.421 212.732 84.8023C213.041 84.1836 213.479 83.709 214.044 83.3783C214.62 83.037 215.292 82.8663 216.06 82.8663C216.839 82.8663 217.511 83.037 218.076 83.3783C218.652 83.709 219.095 84.1836 219.404 84.8023C219.724 85.421 219.884 86.1623 219.884 87.0263C219.884 87.8796 219.724 88.621 219.404 89.2503C219.095 89.869 218.652 90.349 218.076 90.6903C217.511 91.021 216.839 91.1863 216.06 91.1863ZM216.06 90.1303C216.828 90.1303 217.436 89.869 217.884 89.3463C218.332 88.813 218.556 88.0396 218.556 87.0263C218.556 86.0023 218.327 85.229 217.868 84.7063C217.42 84.173 216.817 83.9063 216.06 83.9063C215.303 83.9063 214.7 84.173 214.252 84.7063C213.804 85.229 213.58 86.0023 213.58 87.0263C213.58 88.0396 213.804 88.813 214.252 89.3463C214.7 89.869 215.303 90.1303 216.06 90.1303ZM229.133 91.1863C228.418 91.1863 227.794 91.021 227.261 90.6903C226.727 90.349 226.311 89.869 226.013 89.2503C225.725 88.6316 225.581 87.8903 225.581 87.0263C225.581 86.1516 225.725 85.405 226.013 84.7863C226.311 84.1676 226.727 83.693 227.261 83.3623C227.794 83.0316 228.418 82.8663 229.133 82.8663C229.858 82.8663 230.482 83.053 231.005 83.4263C231.538 83.789 231.89 84.285 232.061 84.9143H231.869L232.045 83.0103H233.293C233.261 83.3196 233.229 83.6343 233.197 83.9543C233.175 84.2636 233.165 84.5676 233.165 84.8663V91.0423H231.869V89.1543H232.045C231.874 89.7836 231.522 90.2796 230.989 90.6423C230.455 91.005 229.837 91.1863 229.133 91.1863ZM229.389 90.1303C230.157 90.1303 230.765 89.869 231.213 89.3463C231.661 88.813 231.885 88.0396 231.885 87.0263C231.885 86.0023 231.661 85.229 231.213 84.7063C230.765 84.173 230.157 83.9063 229.389 83.9063C228.631 83.9063 228.023 84.173 227.565 84.7063C227.117 85.229 226.893 86.0023 226.893 87.0263C226.893 88.0396 227.117 88.813 227.565 89.3463C228.023 89.869 228.631 90.1303 229.389 90.1303ZM235.67 91.0423V84.8663C235.67 84.5676 235.654 84.2636 235.622 83.9543C235.601 83.6343 235.574 83.3196 235.542 83.0103H236.79L236.95 84.7703H236.758C236.972 84.1623 237.308 83.693 237.766 83.3623C238.236 83.0316 238.801 82.8663 239.462 82.8663C240.134 82.8663 240.678 83.0263 241.094 83.3463C241.521 83.6663 241.809 84.1623 241.958 84.8343H241.718C241.921 84.2263 242.278 83.7463 242.79 83.3943C243.302 83.0423 243.9 82.8663 244.582 82.8663C245.468 82.8663 246.134 83.1223 246.582 83.6343C247.03 84.1356 247.254 84.9303 247.254 86.0183V91.0423H245.958V86.0983C245.958 85.341 245.825 84.7916 245.558 84.4503C245.292 84.0983 244.865 83.9223 244.278 83.9223C243.606 83.9223 243.073 84.157 242.678 84.6263C242.294 85.085 242.102 85.7036 242.102 86.4823V91.0423H240.806V86.0983C240.806 85.341 240.673 84.7916 240.406 84.4503C240.14 84.0983 239.713 83.9223 239.126 83.9223C238.454 83.9223 237.926 84.157 237.542 84.6263C237.158 85.085 236.966 85.7036 236.966 86.4823V91.0423H235.67ZM253.285 91.1863C252.026 91.1863 251.034 90.8236 250.309 90.0983C249.584 89.3623 249.221 88.3436 249.221 87.0423C249.221 86.1996 249.381 85.469 249.701 84.8503C250.021 84.221 250.469 83.7356 251.045 83.3943C251.621 83.0423 252.282 82.8663 253.029 82.8663C253.765 82.8663 254.384 83.021 254.885 83.3303C255.386 83.6396 255.77 84.0823 256.037 84.6583C256.304 85.2236 256.437 85.8956 256.437 86.6743V87.1543H250.213V86.3383H255.589L255.317 86.5463C255.317 85.693 255.125 85.0263 254.741 84.5463C254.357 84.0663 253.786 83.8263 253.029 83.8263C252.229 83.8263 251.605 84.109 251.157 84.6743C250.709 85.229 250.485 85.981 250.485 86.9303V87.0743C250.485 88.077 250.73 88.8396 251.221 89.3623C251.722 89.8743 252.421 90.1303 253.317 90.1303C253.797 90.1303 254.245 90.061 254.661 89.9223C255.088 89.773 255.493 89.533 255.877 89.2023L256.325 90.1143C255.973 90.4556 255.525 90.7223 254.981 90.9143C254.448 91.0956 253.882 91.1863 253.285 91.1863ZM261.268 91.1863C260.479 91.1863 259.876 90.9623 259.46 90.5143C259.044 90.0556 258.836 89.3676 258.836 88.4503V84.0183H257.268V83.0103H258.836V80.8183L260.132 80.4503V83.0103H262.436V84.0183H260.132V88.3063C260.132 88.9463 260.239 89.405 260.452 89.6823C260.676 89.949 261.007 90.0823 261.444 90.0823C261.647 90.0823 261.828 90.0663 261.988 90.0343C262.148 89.9916 262.292 89.9436 262.42 89.8903V90.9783C262.271 91.0423 262.09 91.0903 261.876 91.1223C261.674 91.165 261.471 91.1863 261.268 91.1863ZM4.936 115.186C4.296 115.186 3.69867 115.101 3.144 114.93C2.58933 114.749 2.13067 114.498 1.768 114.178L2.216 113.266C2.61067 113.576 3.03733 113.805 3.496 113.954C3.96533 114.104 4.45067 114.178 4.952 114.178C5.592 114.178 6.072 114.066 6.392 113.842C6.72267 113.608 6.888 113.288 6.888 112.882C6.888 112.573 6.78133 112.328 6.568 112.146C6.36533 111.954 6.02933 111.805 5.56 111.698L4.072 111.394C3.38933 111.245 2.87733 110.994 2.536 110.642C2.19467 110.28 2.024 109.821 2.024 109.266C2.024 108.797 2.14667 108.386 2.392 108.034C2.63733 107.672 2.99467 107.389 3.464 107.186C3.93333 106.973 4.48267 106.866 5.112 106.866C5.69867 106.866 6.23733 106.957 6.728 107.138C7.22933 107.309 7.64533 107.56 7.976 107.89L7.512 108.786C7.192 108.477 6.824 108.248 6.408 108.098C6.00267 107.938 5.58133 107.858 5.144 107.858C4.51467 107.858 4.04 107.986 3.72 108.242C3.41067 108.488 3.256 108.813 3.256 109.218C3.256 109.528 3.352 109.784 3.544 109.986C3.74667 110.178 4.056 110.322 4.472 110.418L5.96 110.722C6.68533 110.882 7.224 111.133 7.576 111.474C7.93867 111.805 8.12 112.253 8.12 112.818C8.12 113.298 7.98667 113.72 7.72 114.082C7.45333 114.434 7.08 114.706 6.6 114.898C6.13067 115.09 5.576 115.186 4.936 115.186ZM10.2015 115.042V107.01H11.4975V115.042H10.2015ZM10.0415 105.186V103.73H11.6415V105.186H10.0415ZM14.014 115.042V108.866C14.014 108.568 13.998 108.264 13.966 107.954C13.9447 107.634 13.918 107.32 13.886 107.01H15.134L15.294 108.77H15.102C15.3367 108.152 15.71 107.682 16.222 107.362C16.7447 107.032 17.3473 106.866 18.03 106.866C18.9793 106.866 19.694 107.122 20.174 107.634C20.6647 108.136 20.91 108.93 20.91 110.018V115.042H19.614V110.098C19.614 109.341 19.4593 108.792 19.15 108.45C18.8513 108.098 18.382 107.922 17.742 107.922C16.9953 107.922 16.4033 108.152 15.966 108.61C15.5287 109.069 15.31 109.682 15.31 110.45V115.042H14.014ZM26.237 115.186C25.4477 115.186 24.845 114.962 24.429 114.514C24.013 114.056 23.805 113.368 23.805 112.45V108.018H22.237V107.01H23.805V104.818L25.101 104.45V107.01H27.405V108.018H25.101V112.306C25.101 112.946 25.2077 113.405 25.421 113.682C25.645 113.949 25.9757 114.082 26.413 114.082C26.6157 114.082 26.797 114.066 26.957 114.034C27.117 113.992 27.261 113.944 27.389 113.89V114.978C27.2397 115.042 27.0583 115.09 26.845 115.122C26.6423 115.165 26.4397 115.186 26.237 115.186ZM28.9455 115.042V113.41H30.5775V115.042H28.9455ZM40.71 115.042L35.798 103.762H37.222L41.59 113.986H41.094L45.494 103.762H46.87L41.926 115.042H40.71ZM50.8164 115.186C49.5577 115.186 48.5657 114.824 47.8404 114.098C47.115 113.362 46.7524 112.344 46.7524 111.042C46.7524 110.2 46.9124 109.469 47.2324 108.85C47.5524 108.221 48.0004 107.736 48.5764 107.394C49.1524 107.042 49.8137 106.866 50.5604 106.866C51.2964 106.866 51.915 107.021 52.4164 107.33C52.9177 107.64 53.3017 108.082 53.5684 108.658C53.835 109.224 53.9684 109.896 53.9684 110.674V111.154H47.7444V110.338H53.1204L52.8484 110.546C52.8484 109.693 52.6564 109.026 52.2724 108.546C51.8884 108.066 51.3177 107.826 50.5604 107.826C49.7604 107.826 49.1364 108.109 48.6884 108.674C48.2404 109.229 48.0164 109.981 48.0164 110.93V111.074C48.0164 112.077 48.2617 112.84 48.7524 113.362C49.2537 113.874 49.9524 114.13 50.8484 114.13C51.3284 114.13 51.7764 114.061 52.1924 113.922C52.619 113.773 53.0244 113.533 53.4084 113.202L53.8564 114.114C53.5044 114.456 53.0564 114.722 52.5124 114.914C51.979 115.096 51.4137 115.186 50.8164 115.186ZM55.9515 115.042V103.266H57.2475V115.042H55.9515ZM59.764 115.042V107.01H61.06V115.042H59.764ZM59.604 105.186V103.73H61.204V105.186H59.604ZM66.4245 115.186C65.6352 115.186 65.0325 114.962 64.6165 114.514C64.2005 114.056 63.9925 113.368 63.9925 112.45V108.018H62.4245V107.01H63.9925V104.818L65.2885 104.45V107.01H67.5925V108.018H65.2885V112.306C65.2885 112.946 65.3952 113.405 65.6085 113.682C65.8325 113.949 66.1632 114.082 66.6005 114.082C66.8032 114.082 66.9845 114.066 67.1445 114.034C67.3045 113.992 67.4485 113.944 67.5765 113.89V114.978C67.4272 115.042 67.2458 115.09 67.0325 115.122C66.8298 115.165 66.6272 115.186 66.4245 115.186ZM76.6381 115.186C75.8701 115.186 75.1981 115.021 74.6221 114.69C74.0568 114.349 73.6195 113.869 73.3101 113.25C73.0008 112.621 72.8461 111.88 72.8461 111.026C72.8461 110.162 73.0008 109.421 73.3101 108.802C73.6195 108.184 74.0568 107.709 74.6221 107.378C75.1981 107.037 75.8701 106.866 76.6381 106.866C77.4168 106.866 78.0888 107.037 78.6541 107.378C79.2301 107.709 79.6728 108.184 79.9821 108.802C80.3021 109.421 80.4621 110.162 80.4621 111.026C80.4621 111.88 80.3021 112.621 79.9821 113.25C79.6728 113.869 79.2301 114.349 78.6541 114.69C78.0888 115.021 77.4168 115.186 76.6381 115.186ZM76.6381 114.13C77.4061 114.13 78.0141 113.869 78.4621 113.346C78.9101 112.813 79.1341 112.04 79.1341 111.026C79.1341 110.002 78.9048 109.229 78.4461 108.706C77.9981 108.173 77.3955 107.906 76.6381 107.906C75.8808 107.906 75.2781 108.173 74.8301 108.706C74.3821 109.229 74.1581 110.002 74.1581 111.026C74.1581 112.04 74.3821 112.813 74.8301 113.346C75.2781 113.869 75.8808 114.13 76.6381 114.13ZM82.8206 115.042V108.018H81.2526V107.01H83.1726L82.8206 107.346V106.002C82.8206 105.096 83.05 104.402 83.5086 103.922C83.9673 103.442 84.6233 103.202 85.4766 103.202C85.69 103.202 85.9086 103.224 86.1326 103.266C86.3673 103.298 86.5593 103.346 86.7086 103.41V104.482C86.5806 104.429 86.4206 104.386 86.2286 104.354C86.0473 104.312 85.8606 104.29 85.6686 104.29C85.338 104.29 85.0553 104.36 84.8206 104.498C84.586 104.626 84.41 104.824 84.2926 105.09C84.1753 105.357 84.1166 105.698 84.1166 106.114V107.282L83.9086 107.01H86.3566V108.018H84.1166V115.042H82.8206ZM87.9769 115.042V108.018H86.4089V107.01H88.3289L87.9769 107.346V106.002C87.9769 105.096 88.2009 104.402 88.6489 103.922C89.1075 103.442 89.7582 103.202 90.6009 103.202C90.8035 103.202 91.0169 103.224 91.2409 103.266C91.4755 103.298 91.6729 103.346 91.8329 103.41V104.482C91.7049 104.429 91.5449 104.386 91.3529 104.354C91.1715 104.312 90.9849 104.29 90.7929 104.29C90.2915 104.29 89.9129 104.44 89.6569 104.738C89.4009 105.037 89.2729 105.496 89.2729 106.114V107.282L89.0649 107.01H94.2169V115.042H92.9209V108.018H89.2729V115.042H87.9769ZM92.7769 105.186V103.73H94.3769V105.186H92.7769ZM100.124 115.186C99.335 115.186 98.647 115.016 98.0604 114.674C97.4844 114.333 97.0364 113.848 96.7164 113.218C96.407 112.589 96.2524 111.842 96.2524 110.978C96.2524 110.104 96.4124 109.362 96.7324 108.754C97.0524 108.136 97.5004 107.666 98.0764 107.346C98.663 107.026 99.3457 106.866 100.124 106.866C100.636 106.866 101.132 106.957 101.612 107.138C102.103 107.32 102.508 107.576 102.828 107.906L102.364 108.834C102.044 108.525 101.692 108.296 101.308 108.146C100.935 107.997 100.567 107.922 100.204 107.922C99.3724 107.922 98.727 108.184 98.2684 108.706C97.8097 109.229 97.5804 109.992 97.5804 110.994C97.5804 111.986 97.8097 112.754 98.2684 113.298C98.727 113.842 99.3724 114.114 100.204 114.114C100.556 114.114 100.919 114.045 101.292 113.906C101.676 113.768 102.034 113.538 102.364 113.218L102.828 114.13C102.498 114.472 102.087 114.733 101.596 114.914C101.106 115.096 100.615 115.186 100.124 115.186ZM104.67 115.042V107.01H105.966V115.042H104.67ZM104.51 105.186V103.73H106.11V105.186H104.51ZM111.539 115.186C110.824 115.186 110.2 115.021 109.667 114.69C109.133 114.349 108.717 113.869 108.419 113.25C108.131 112.632 107.987 111.89 107.987 111.026C107.987 110.152 108.131 109.405 108.419 108.786C108.717 108.168 109.133 107.693 109.667 107.362C110.2 107.032 110.824 106.866 111.539 106.866C112.264 106.866 112.888 107.053 113.411 107.426C113.944 107.789 114.296 108.285 114.467 108.914H114.275L114.451 107.01H115.699C115.667 107.32 115.635 107.634 115.603 107.954C115.581 108.264 115.571 108.568 115.571 108.866V115.042H114.275V113.154H114.451C114.28 113.784 113.928 114.28 113.395 114.642C112.861 115.005 112.243 115.186 111.539 115.186ZM111.795 114.13C112.563 114.13 113.171 113.869 113.619 113.346C114.067 112.813 114.291 112.04 114.291 111.026C114.291 110.002 114.067 109.229 113.619 108.706C113.171 108.173 112.563 107.906 111.795 107.906C111.037 107.906 110.429 108.173 109.971 108.706C109.523 109.229 109.299 110.002 109.299 111.026C109.299 112.04 109.523 112.813 109.971 113.346C110.429 113.869 111.037 114.13 111.795 114.13ZM125.624 115.186C124.835 115.186 124.147 115.016 123.56 114.674C122.984 114.333 122.536 113.848 122.216 113.218C121.907 112.589 121.752 111.842 121.752 110.978C121.752 110.104 121.912 109.362 122.232 108.754C122.552 108.136 123 107.666 123.576 107.346C124.163 107.026 124.846 106.866 125.624 106.866C126.136 106.866 126.632 106.957 127.112 107.138C127.603 107.32 128.008 107.576 128.328 107.906L127.864 108.834C127.544 108.525 127.192 108.296 126.808 108.146C126.435 107.997 126.067 107.922 125.704 107.922C124.872 107.922 124.227 108.184 123.768 108.706C123.31 109.229 123.08 109.992 123.08 110.994C123.08 111.986 123.31 112.754 123.768 113.298C124.227 113.842 124.872 114.114 125.704 114.114C126.056 114.114 126.419 114.045 126.792 113.906C127.176 113.768 127.534 113.538 127.864 113.218L128.328 114.13C127.998 114.472 127.587 114.733 127.096 114.914C126.606 115.096 126.115 115.186 125.624 115.186ZM133.31 115.186C132.542 115.186 131.87 115.021 131.294 114.69C130.729 114.349 130.291 113.869 129.982 113.25C129.673 112.621 129.518 111.88 129.518 111.026C129.518 110.162 129.673 109.421 129.982 108.802C130.291 108.184 130.729 107.709 131.294 107.378C131.87 107.037 132.542 106.866 133.31 106.866C134.089 106.866 134.761 107.037 135.326 107.378C135.902 107.709 136.345 108.184 136.654 108.802C136.974 109.421 137.134 110.162 137.134 111.026C137.134 111.88 136.974 112.621 136.654 113.25C136.345 113.869 135.902 114.349 135.326 114.69C134.761 115.021 134.089 115.186 133.31 115.186ZM133.31 114.13C134.078 114.13 134.686 113.869 135.134 113.346C135.582 112.813 135.806 112.04 135.806 111.026C135.806 110.002 135.577 109.229 135.118 108.706C134.67 108.173 134.067 107.906 133.31 107.906C132.553 107.906 131.95 108.173 131.502 108.706C131.054 109.229 130.83 110.002 130.83 111.026C130.83 112.04 131.054 112.813 131.502 113.346C131.95 113.869 132.553 114.13 133.31 114.13ZM139.155 115.042V108.866C139.155 108.568 139.139 108.264 139.107 107.954C139.085 107.634 139.059 107.32 139.027 107.01H140.275L140.435 108.77H140.243C140.477 108.152 140.851 107.682 141.363 107.362C141.885 107.032 142.488 106.866 143.171 106.866C144.12 106.866 144.835 107.122 145.315 107.634C145.805 108.136 146.051 108.93 146.051 110.018V115.042H144.755V110.098C144.755 109.341 144.6 108.792 144.291 108.45C143.992 108.098 143.523 107.922 142.883 107.922C142.136 107.922 141.544 108.152 141.107 108.61C140.669 109.069 140.451 109.682 140.451 110.45V115.042H139.155ZM151.202 115.186C150.562 115.186 149.964 115.101 149.41 114.93C148.855 114.749 148.396 114.498 148.034 114.178L148.482 113.266C148.876 113.576 149.303 113.805 149.762 113.954C150.231 114.104 150.716 114.178 151.218 114.178C151.858 114.178 152.338 114.066 152.658 113.842C152.988 113.608 153.154 113.288 153.154 112.882C153.154 112.573 153.047 112.328 152.834 112.146C152.631 111.954 152.295 111.805 151.826 111.698L150.338 111.394C149.655 111.245 149.143 110.994 148.802 110.642C148.46 110.28 148.29 109.821 148.29 109.266C148.29 108.797 148.412 108.386 148.658 108.034C148.903 107.672 149.26 107.389 149.73 107.186C150.199 106.973 150.748 106.866 151.378 106.866C151.964 106.866 152.503 106.957 152.994 107.138C153.495 107.309 153.911 107.56 154.242 107.89L153.778 108.786C153.458 108.477 153.09 108.248 152.674 108.098C152.268 107.938 151.847 107.858 151.41 107.858C150.78 107.858 150.306 107.986 149.986 108.242C149.676 108.488 149.522 108.813 149.522 109.218C149.522 109.528 149.618 109.784 149.81 109.986C150.012 110.178 150.322 110.322 150.738 110.418L152.226 110.722C152.951 110.882 153.49 111.133 153.842 111.474C154.204 111.805 154.386 112.253 154.386 112.818C154.386 113.298 154.252 113.72 153.986 114.082C153.719 114.434 153.346 114.706 152.866 114.898C152.396 115.09 151.842 115.186 151.202 115.186ZM160.035 115.186C158.776 115.186 157.784 114.824 157.059 114.098C156.334 113.362 155.971 112.344 155.971 111.042C155.971 110.2 156.131 109.469 156.451 108.85C156.771 108.221 157.219 107.736 157.795 107.394C158.371 107.042 159.032 106.866 159.779 106.866C160.515 106.866 161.134 107.021 161.635 107.33C162.136 107.64 162.52 108.082 162.787 108.658C163.054 109.224 163.187 109.896 163.187 110.674V111.154H156.963V110.338H162.339L162.067 110.546C162.067 109.693 161.875 109.026 161.491 108.546C161.107 108.066 160.536 107.826 159.779 107.826C158.979 107.826 158.355 108.109 157.907 108.674C157.459 109.229 157.235 109.981 157.235 110.93V111.074C157.235 112.077 157.48 112.84 157.971 113.362C158.472 113.874 159.171 114.13 160.067 114.13C160.547 114.13 160.995 114.061 161.411 113.922C161.838 113.773 162.243 113.533 162.627 113.202L163.075 114.114C162.723 114.456 162.275 114.722 161.731 114.914C161.198 115.096 160.632 115.186 160.035 115.186ZM170.962 118.498V113.154H171.138C170.968 113.784 170.616 114.28 170.082 114.642C169.549 115.005 168.93 115.186 168.226 115.186C167.512 115.186 166.888 115.021 166.354 114.69C165.821 114.349 165.405 113.869 165.106 113.25C164.818 112.632 164.674 111.89 164.674 111.026C164.674 110.152 164.818 109.405 165.106 108.786C165.405 108.168 165.821 107.693 166.354 107.362C166.888 107.032 167.512 106.866 168.226 106.866C168.952 106.866 169.576 107.053 170.098 107.426C170.632 107.789 170.984 108.285 171.154 108.914H170.962L171.138 107.01H172.386C172.354 107.32 172.322 107.634 172.29 107.954C172.269 108.264 172.258 108.568 172.258 108.866V118.498H170.962ZM168.482 114.13C169.25 114.13 169.858 113.869 170.306 113.346C170.754 112.813 170.978 112.04 170.978 111.026C170.978 110.002 170.754 109.229 170.306 108.706C169.858 108.173 169.25 107.906 168.482 107.906C167.725 107.906 167.117 108.173 166.658 108.706C166.21 109.229 165.986 110.002 165.986 111.026C165.986 112.04 166.21 112.813 166.658 113.346C167.117 113.869 167.725 114.13 168.482 114.13ZM177.596 115.186C176.647 115.186 175.927 114.925 175.436 114.402C174.956 113.88 174.716 113.08 174.716 112.002V107.01H176.012V111.97C176.012 112.706 176.161 113.25 176.46 113.602C176.759 113.944 177.223 114.114 177.852 114.114C178.556 114.114 179.121 113.885 179.548 113.426C179.975 112.968 180.188 112.354 180.188 111.586V107.01H181.484V115.042H180.22V113.234H180.428C180.204 113.853 179.841 114.333 179.34 114.674C178.849 115.016 178.268 115.186 177.596 115.186ZM187.054 115.186C186.34 115.186 185.716 115.021 185.182 114.69C184.649 114.349 184.233 113.869 183.934 113.25C183.646 112.632 183.502 111.89 183.502 111.026C183.502 110.152 183.646 109.405 183.934 108.786C184.233 108.168 184.649 107.693 185.182 107.362C185.716 107.032 186.34 106.866 187.054 106.866C187.78 106.866 188.404 107.053 188.926 107.426C189.46 107.789 189.812 108.285 189.982 108.914H189.79L189.966 107.01H191.214C191.182 107.32 191.15 107.634 191.118 107.954C191.097 108.264 191.086 108.568 191.086 108.866V115.042H189.79V113.154H189.966C189.796 113.784 189.444 114.28 188.91 114.642C188.377 115.005 187.758 115.186 187.054 115.186ZM187.31 114.13C188.078 114.13 188.686 113.869 189.134 113.346C189.582 112.813 189.806 112.04 189.806 111.026C189.806 110.002 189.582 109.229 189.134 108.706C188.686 108.173 188.078 107.906 187.31 107.906C186.553 107.906 185.945 108.173 185.486 108.706C185.038 109.229 184.814 110.002 184.814 111.026C184.814 112.04 185.038 112.813 185.486 113.346C185.945 113.869 186.553 114.13 187.31 114.13ZM196.44 115.186C195.651 115.186 195.048 114.962 194.632 114.514C194.216 114.056 194.008 113.368 194.008 112.45V108.018H192.44V107.01H194.008V104.818L195.304 104.45V107.01H197.608V108.018H195.304V112.306C195.304 112.946 195.411 113.405 195.624 113.682C195.848 113.949 196.179 114.082 196.616 114.082C196.819 114.082 197 114.066 197.16 114.034C197.32 113.992 197.464 113.944 197.592 113.89V114.978C197.443 115.042 197.261 115.09 197.048 115.122C196.845 115.165 196.643 115.186 196.44 115.186ZM206.398 115.186C205.694 115.186 205.075 115.021 204.542 114.69C204.008 114.349 203.592 113.869 203.294 113.25C203.006 112.632 202.862 111.89 202.862 111.026C202.862 110.152 203.006 109.405 203.294 108.786C203.592 108.168 204.008 107.693 204.542 107.362C205.075 107.032 205.694 106.866 206.398 106.866C207.123 106.866 207.747 107.048 208.27 107.41C208.803 107.773 209.16 108.264 209.342 108.882H209.15V103.266H210.446V115.042H209.166V113.122H209.342C209.171 113.762 208.819 114.269 208.286 114.642C207.752 115.005 207.123 115.186 206.398 115.186ZM206.67 114.13C207.427 114.13 208.035 113.869 208.494 113.346C208.952 112.813 209.182 112.04 209.182 111.026C209.182 110.002 208.952 109.229 208.494 108.706C208.035 108.173 207.427 107.906 206.67 107.906C205.912 107.906 205.304 108.173 204.846 108.706C204.398 109.229 204.174 110.002 204.174 111.026C204.174 112.04 204.398 112.813 204.846 113.346C205.304 113.869 205.912 114.13 206.67 114.13ZM215.784 115.186C214.834 115.186 214.114 114.925 213.624 114.402C213.144 113.88 212.904 113.08 212.904 112.002V107.01H214.2V111.97C214.2 112.706 214.349 113.25 214.648 113.602C214.946 113.944 215.41 114.114 216.04 114.114C216.744 114.114 217.309 113.885 217.736 113.426C218.162 112.968 218.376 112.354 218.376 111.586V107.01H219.672V115.042H218.408V113.234H218.616C218.392 113.853 218.029 114.333 217.528 114.674C217.037 115.016 216.456 115.186 215.784 115.186ZM222.186 115.042V107.01H223.482V115.042H222.186ZM222.026 105.186V103.73H223.626V105.186H222.026ZM228.67 115.186C228.03 115.186 227.433 115.101 226.878 114.93C226.324 114.749 225.865 114.498 225.502 114.178L225.95 113.266C226.345 113.576 226.772 113.805 227.23 113.954C227.7 114.104 228.185 114.178 228.686 114.178C229.326 114.178 229.806 114.066 230.126 113.842C230.457 113.608 230.622 113.288 230.622 112.882C230.622 112.573 230.516 112.328 230.302 112.146C230.1 111.954 229.764 111.805 229.294 111.698L227.806 111.394C227.124 111.245 226.612 110.994 226.27 110.642C225.929 110.28 225.758 109.821 225.758 109.266C225.758 108.797 225.881 108.386 226.126 108.034C226.372 107.672 226.729 107.389 227.198 107.186C227.668 106.973 228.217 106.866 228.846 106.866C229.433 106.866 229.972 106.957 230.462 107.138C230.964 107.309 231.38 107.56 231.71 107.89L231.246 108.786C230.926 108.477 230.558 108.248 230.142 108.098C229.737 107.938 229.316 107.858 228.878 107.858C228.249 107.858 227.774 107.986 227.454 108.242C227.145 108.488 226.99 108.813 226.99 109.218C226.99 109.528 227.086 109.784 227.278 109.986C227.481 110.178 227.79 110.322 228.206 110.418L229.694 110.722C230.42 110.882 230.958 111.133 231.31 111.474C231.673 111.805 231.854 112.253 231.854 112.818C231.854 113.298 231.721 113.72 231.454 114.082C231.188 114.434 230.814 114.706 230.334 114.898C229.865 115.09 229.31 115.186 228.67 115.186ZM241.676 115.186C240.417 115.186 239.425 114.824 238.7 114.098C237.974 113.362 237.612 112.344 237.612 111.042C237.612 110.2 237.772 109.469 238.092 108.85C238.412 108.221 238.86 107.736 239.436 107.394C240.012 107.042 240.673 106.866 241.42 106.866C242.156 106.866 242.774 107.021 243.276 107.33C243.777 107.64 244.161 108.082 244.428 108.658C244.694 109.224 244.828 109.896 244.828 110.674V111.154H238.604V110.338H243.98L243.708 110.546C243.708 109.693 243.516 109.026 243.132 108.546C242.748 108.066 242.177 107.826 241.42 107.826C240.62 107.826 239.996 108.109 239.548 108.674C239.1 109.229 238.876 109.981 238.876 110.93V111.074C238.876 112.077 239.121 112.84 239.612 113.362C240.113 113.874 240.812 114.13 241.708 114.13C242.188 114.13 242.636 114.061 243.052 113.922C243.478 113.773 243.884 113.533 244.268 113.202L244.716 114.114C244.364 114.456 243.916 114.722 243.372 114.914C242.838 115.096 242.273 115.186 241.676 115.186ZM246.811 115.042V108.866C246.811 108.568 246.795 108.264 246.763 107.954C246.742 107.634 246.715 107.32 246.683 107.01H247.931L248.091 108.77H247.899C248.134 108.152 248.507 107.682 249.019 107.362C249.542 107.032 250.144 106.866 250.827 106.866C251.776 106.866 252.491 107.122 252.971 107.634C253.462 108.136 253.707 108.93 253.707 110.018V115.042H252.411V110.098C252.411 109.341 252.256 108.792 251.947 108.45C251.648 108.098 251.179 107.922 250.539 107.922C249.792 107.922 249.2 108.152 248.763 108.61C248.326 109.069 248.107 109.682 248.107 110.45V115.042H246.811ZM256.186 115.042V107.01H257.482V115.042H256.186ZM256.026 105.186V103.73H257.626V105.186H256.026ZM259.998 115.042V108.866C259.998 108.568 259.982 108.264 259.95 107.954C259.929 107.634 259.902 107.32 259.87 107.01H261.118L261.278 108.77H261.086C261.3 108.162 261.636 107.693 262.094 107.362C262.564 107.032 263.129 106.866 263.79 106.866C264.462 106.866 265.006 107.026 265.422 107.346C265.849 107.666 266.137 108.162 266.286 108.834H266.046C266.249 108.226 266.606 107.746 267.118 107.394C267.63 107.042 268.228 106.866 268.91 106.866C269.796 106.866 270.462 107.122 270.91 107.634C271.358 108.136 271.582 108.93 271.582 110.018V115.042H270.286V110.098C270.286 109.341 270.153 108.792 269.886 108.45C269.62 108.098 269.193 107.922 268.606 107.922C267.934 107.922 267.401 108.157 267.006 108.626C266.622 109.085 266.43 109.704 266.43 110.482V115.042H265.134V110.098C265.134 109.341 265.001 108.792 264.734 108.45C264.468 108.098 264.041 107.922 263.454 107.922C262.782 107.922 262.254 108.157 261.87 108.626C261.486 109.085 261.294 109.704 261.294 110.482V115.042H259.998ZM4.632 139.042L1.192 131.01H2.6L5.48 138.082H5.048L7.96 131.01H9.304L5.864 139.042H4.632ZM14.2226 139.186C12.964 139.186 11.972 138.824 11.2466 138.098C10.5213 137.362 10.1586 136.344 10.1586 135.042C10.1586 134.2 10.3186 133.469 10.6386 132.85C10.9586 132.221 11.4066 131.736 11.9826 131.394C12.5586 131.042 13.22 130.866 13.9666 130.866C14.7026 130.866 15.3213 131.021 15.8226 131.33C16.324 131.64 16.708 132.082 16.9746 132.658C17.2413 133.224 17.3746 133.896 17.3746 134.674V135.154H11.1506V134.338H16.5266L16.2546 134.546C16.2546 133.693 16.0626 133.026 15.6786 132.546C15.2946 132.066 14.724 131.826 13.9666 131.826C13.1666 131.826 12.5426 132.109 12.0946 132.674C11.6466 133.229 11.4226 133.981 11.4226 134.93V135.074C11.4226 136.077 11.668 136.84 12.1586 137.362C12.66 137.874 13.3586 138.13 14.2546 138.13C14.7346 138.13 15.1826 138.061 15.5986 137.922C16.0253 137.773 16.4306 137.533 16.8146 137.202L17.2626 138.114C16.9106 138.456 16.4626 138.722 15.9186 138.914C15.3853 139.096 14.82 139.186 14.2226 139.186ZM19.3578 139.042V127.266H20.6538V139.042H19.3578ZM23.1703 139.042V131.01H24.4663V139.042H23.1703ZM23.0103 129.186V127.73H24.6103V129.186H23.0103ZM29.8307 139.186C29.0414 139.186 28.4388 138.962 28.0228 138.514C27.6068 138.056 27.3988 137.368 27.3988 136.45V132.018H25.8308V131.01H27.3988V128.818L28.6948 128.45V131.01H30.9988V132.018H28.6948V136.306C28.6948 136.946 28.8014 137.405 29.0148 137.682C29.2388 137.949 29.5694 138.082 30.0068 138.082C30.2094 138.082 30.3908 138.066 30.5508 138.034C30.7108 137.992 30.8548 137.944 30.9828 137.89V138.978C30.8334 139.042 30.6521 139.09 30.4388 139.122C30.2361 139.165 30.0334 139.186 29.8307 139.186ZM36.7484 139.042V132.866C36.7484 132.568 36.7324 132.264 36.7004 131.954C36.679 131.634 36.6524 131.32 36.6204 131.01H37.8684L38.0284 132.77H37.8364C38.0497 132.162 38.3857 131.693 38.8444 131.362C39.3137 131.032 39.879 130.866 40.5404 130.866C41.2124 130.866 41.7564 131.026 42.1724 131.346C42.599 131.666 42.887 132.162 43.0364 132.834H42.7964C42.999 132.226 43.3564 131.746 43.8684 131.394C44.3804 131.042 44.9777 130.866 45.6604 130.866C46.5457 130.866 47.2124 131.122 47.6604 131.634C48.1084 132.136 48.3324 132.93 48.3324 134.018V139.042H47.0364V134.098C47.0364 133.341 46.903 132.792 46.6364 132.45C46.3697 132.098 45.943 131.922 45.3564 131.922C44.6844 131.922 44.151 132.157 43.7564 132.626C43.3724 133.085 43.1804 133.704 43.1804 134.482V139.042H41.8844V134.098C41.8844 133.341 41.751 132.792 41.4844 132.45C41.2177 132.098 40.791 131.922 40.2044 131.922C39.5324 131.922 39.0044 132.157 38.6204 132.626C38.2364 133.085 38.0444 133.704 38.0444 134.482V139.042H36.7484ZM54.0913 139.186C53.3233 139.186 52.6513 139.021 52.0753 138.69C51.5099 138.349 51.0726 137.869 50.7633 137.25C50.4539 136.621 50.2993 135.88 50.2993 135.026C50.2993 134.162 50.4539 133.421 50.7633 132.802C51.0726 132.184 51.5099 131.709 52.0753 131.378C52.6513 131.037 53.3233 130.866 54.0913 130.866C54.8699 130.866 55.5419 131.037 56.1073 131.378C56.6833 131.709 57.1259 132.184 57.4353 132.802C57.7553 133.421 57.9153 134.162 57.9153 135.026C57.9153 135.88 57.7553 136.621 57.4353 137.25C57.1259 137.869 56.6833 138.349 56.1073 138.69C55.5419 139.021 54.8699 139.186 54.0913 139.186ZM54.0913 138.13C54.8593 138.13 55.4673 137.869 55.9153 137.346C56.3633 136.813 56.5873 136.04 56.5873 135.026C56.5873 134.002 56.3579 133.229 55.8993 132.706C55.4513 132.173 54.8486 131.906 54.0913 131.906C53.3339 131.906 52.7313 132.173 52.2833 132.706C51.8353 133.229 51.6113 134.002 51.6113 135.026C51.6113 136.04 51.8353 136.813 52.2833 137.346C52.7313 137.869 53.3339 138.13 54.0913 138.13ZM59.9359 139.042V127.266H61.2319V139.042H59.9359ZM63.7484 139.042V127.266H65.0444V139.042H63.7484ZM67.5609 139.042V131.01H68.8569V139.042H67.5609ZM67.4009 129.186V127.73H69.0009V129.186H67.4009ZM74.2214 139.186C73.432 139.186 72.8294 138.962 72.4134 138.514C71.9974 138.056 71.7894 137.368 71.7894 136.45V132.018H70.2214V131.01H71.7894V128.818L73.0854 128.45V131.01H75.3894V132.018H73.0854V136.306C73.0854 136.946 73.192 137.405 73.4054 137.682C73.6294 137.949 73.96 138.082 74.3974 138.082C74.6 138.082 74.7814 138.066 74.9414 138.034C75.1014 137.992 75.2454 137.944 75.3734 137.89V138.978C75.224 139.042 75.0427 139.09 74.8294 139.122C74.6267 139.165 74.424 139.186 74.2214 139.186ZM76.9299 139.042V137.41H78.5619V139.042H76.9299Z" fill="#444444"/>
</svg>
