<svg width="24" height="26" viewBox="0 0 24 26" fill="none" xmlns="http://www.w3.org/2000/svg">
<path d="M18.0677 25.3638L17.1692 22.1976H16.8203C16.1034 23.3511 15.0854 24.2392 13.7711 24.8666C12.4568 25.4941 10.9561 25.8078 9.27379 25.8078C6.39188 25.8078 4.22208 25.0307 2.75962 23.4718C1.29715 21.9128 0.565918 19.6734 0.565918 16.7485V0.599121H7.25693V15.0641C7.25693 16.8499 7.57236 18.1916 8.19845 19.0845C8.82932 19.9774 9.82819 20.4263 11.2046 20.4263C13.0781 20.4263 14.4307 19.794 15.2622 18.5343C16.0938 17.2746 16.5144 15.1799 16.5144 12.2551V0.603949H23.2054V25.3686H18.0725L18.0677 25.3638Z" fill="#20B2AA"/>
</svg>
