<?xml version="1.0" encoding="UTF-8"?>
<svg id="Layer_1" data-name="Layer 1" xmlns="http://www.w3.org/2000/svg" viewBox="0 0 221.79 87.02">
  <defs>
    <style>
      .cls-1 {
        fill: #20b2aa;
      }

      .cls-2 {
        fill: #98005f;
      }
    </style>
  </defs>
  <path class="cls-2" d="m220.84,19.95l-3.93,7.93c-9.21,1.04-19.23,3.28-28.84,8.97l-.8-.8,3.6-5.85c1.36-1.28,2.8-2.56,4.57-3.2v-.4c-5.05-1.76-8.81-4.81-8.81-9.61s2.88-8.65,5.37-10.97c3.93-3.68,9.53-6.01,13.78-6.01s7.77,2.56,7.77,6.25c0,2.4-.96,4.89-3.68,7.45h-.48c-.56-1.6-1.52-3.44-2.32-4.49-1.04-1.28-2.32-1.92-4.25-1.92-2.4,0-5.37,1.2-6.89,2.24-1.28.8-2.24,1.84-2.24,2.8,0,1.84,1.04,3.68,3.04,5.05,2.56,1.76,6.49,3.2,10.33,3.2,4.57,0,9.85-.64,13.46-1.28l.32.64Z"/>
  <path class="cls-2" d="m181.2,19.95l-3.93,7.93c-9.21,1.04-19.23,3.28-28.84,8.97l-.8-.8,3.6-5.85c1.36-1.28,2.8-2.56,4.57-3.2v-.4c-5.05-1.76-8.81-4.81-8.81-9.61s2.88-8.65,5.37-10.97c3.93-3.68,9.53-6.01,13.78-6.01s7.77,2.56,7.77,6.25c0,2.4-.96,4.89-3.68,7.45h-.48c-.56-1.6-1.52-3.44-2.32-4.49-1.04-1.28-2.32-1.92-4.25-1.92-2.4,0-5.37,1.2-6.89,2.24-1.28.8-2.24,1.84-2.24,2.8,0,1.84,1.04,3.68,3.04,5.05,2.56,1.76,6.49,3.2,10.33,3.2,4.57,0,9.85-.64,13.46-1.28l.32.64Z"/>
  <circle class="cls-2" cx="176.96" cy="55.51" r="3.35"/>
  <circle class="cls-2" cx="176.96" cy="64.77" r="3.35"/>
  <circle class="cls-2" cx="215.42" cy="55.51" r="3.35"/>
  <circle class="cls-2" cx="215.42" cy="64.77" r="3.35"/>
  <g>
    <path class="cls-1" d="m43.74,65c0,6.06-2.18,10.83-6.54,14.32s-10.43,5.23-18.2,5.23c-7.16,0-13.49-1.35-19-4.04v-13.22c4.53,2.02,8.36,3.44,11.5,4.27,3.14.83,6,1.24,8.61,1.24,3.12,0,5.52-.6,7.18-1.79,1.67-1.19,2.5-2.97,2.5-5.32,0-1.32-.37-2.49-1.1-3.51-.73-1.02-1.81-2.01-3.24-2.96-1.42-.95-4.32-2.46-8.7-4.54-4.1-1.93-7.18-3.78-9.23-5.55-2.05-1.77-3.69-3.84-4.91-6.2-1.22-2.36-1.84-5.11-1.84-8.26,0-5.94,2.01-10.6,6.04-14,4.02-3.4,9.58-5.09,16.68-5.09,3.49,0,6.82.41,9.98,1.24s6.48,1.99,9.94,3.49l-4.59,11.06c-3.58-1.47-6.54-2.49-8.88-3.08-2.34-.58-4.64-.87-6.91-.87-2.69,0-4.76.63-6.2,1.88-1.44,1.25-2.16,2.89-2.16,4.91,0,1.25.29,2.35.87,3.28.58.93,1.51,1.84,2.78,2.71,1.27.87,4.28,2.44,9.02,4.7,6.27,3,10.57,6.01,12.9,9.02,2.33,3.01,3.49,6.71,3.49,11.08Z"/>
    <path class="cls-1" d="m76.42,73.4c2.45,0,5.39-.54,8.81-1.61v10.42c-3.49,1.56-7.77,2.34-12.85,2.34-5.6,0-9.68-1.42-12.23-4.25-2.56-2.83-3.83-7.08-3.83-12.74v-24.74h-6.7v-5.92l7.71-4.68,4.04-10.83h8.95v10.92h14.37v10.51h-14.37v24.74c0,1.99.56,3.46,1.68,4.41,1.12.95,2.59,1.42,4.43,1.42Z"/>
    <path class="cls-1" d="m131.96,83.63l-1.88-6.56h-.73c-1.5,2.39-3.63,4.23-6.38,5.53s-5.89,1.95-9.41,1.95c-6.03,0-10.57-1.61-13.63-4.84-3.06-3.23-4.59-7.87-4.59-13.93v-33.46h14v29.97c0,3.7.66,6.48,1.97,8.33,1.32,1.85,3.41,2.78,6.29,2.78,3.92,0,6.75-1.31,8.49-3.92s2.62-6.95,2.62-13.01v-24.14h14v51.31h-10.74Z"/>
  </g>
  <path class="cls-2" d="m213.17,76.1c2.4,0,5.27-.52,8.62-1.57v10.2c-3.41,1.53-7.61,2.29-12.58,2.29-5.48,0-9.47-1.38-11.97-4.16-2.5-2.77-3.75-6.92-3.75-12.47v-24.21h-6.56v-5.8l7.55-4.58h0l12.71.09h14.06v10.29h-14.06v24.21c0,1.95.55,3.38,1.64,4.31,1.09.93,2.54,1.39,4.33,1.39Z"/>
  <path class="cls-2" d="m173.23,76.1c2.4,0,5.27-.52,8.62-1.57v10.2c-3.41,1.53-7.61,2.29-12.58,2.29-5.48,0-9.47-1.38-11.97-4.16-2.5-2.77-3.75-6.92-3.75-12.47v-24.21h-6.56v-5.8l7.55-4.58h0l12.71.09h14.06v10.29h-14.06v24.21c0,1.95.55,3.38,1.64,4.31,1.09.93,2.54,1.39,4.33,1.39Z"/>
</svg>