<svg width="106" height="42" viewBox="0 0 106 42" fill="none" xmlns="http://www.w3.org/2000/svg">
<g clip-path="url(#clip0_46_17)">
<path d="M105.546 9.62876L103.668 13.4562C99.266 13.9581 94.4772 15.0392 89.8843 17.7855L89.5019 17.3994L91.2225 14.5759C91.8724 13.9581 92.5607 13.3403 93.4066 13.0314V12.8384C90.9931 11.9889 89.196 10.5168 89.196 8.20012C89.196 5.88341 90.5725 4.02522 91.7625 2.90547C93.6408 1.12933 96.3172 0.00476074 98.3484 0.00476074C100.38 0.00476074 102.062 1.24034 102.062 3.02131C102.062 4.17966 101.603 5.38146 100.303 6.61703H100.074C99.8061 5.8448 99.3473 4.95673 98.9649 4.44995C98.4679 3.83216 97.8561 3.52326 96.9337 3.52326C95.7867 3.52326 94.3672 4.10244 93.6408 4.60439C93.029 4.99051 92.5702 5.49247 92.5702 5.95581C92.5702 6.84388 93.0673 7.73195 94.0231 8.39318C95.2466 9.24264 97.1249 9.93765 98.9601 9.93765C101.144 9.93765 103.668 9.62876 105.393 9.31986L105.546 9.62876Z" fill="#98005F"/>
<path d="M86.6009 9.62876L84.7227 13.4562C80.3209 13.9581 75.5321 15.0392 70.9392 17.7855L70.5569 17.3994L72.2774 14.5759C72.9274 13.9581 73.6156 13.3403 74.4615 13.0314V12.8384C72.048 11.9889 70.251 10.5168 70.251 8.20012C70.251 5.88341 71.6274 4.02522 72.8175 2.90547C74.6957 1.12933 77.3721 0.00476074 79.4033 0.00476074C81.4345 0.00476074 83.1168 1.24034 83.1168 3.02131C83.1168 4.17966 82.658 5.38146 81.3581 6.61703H81.1286C80.861 5.8448 80.4022 4.95673 80.0198 4.44995C79.5228 3.83216 78.9111 3.52326 77.9886 3.52326C76.8416 3.52326 75.4222 4.10244 74.6957 4.60439C74.084 4.99051 73.6252 5.49247 73.6252 5.95581C73.6252 6.84388 74.1222 7.73195 75.0781 8.39318C76.3016 9.24264 78.1798 9.93765 80.0151 9.93765C82.1992 9.93765 84.7227 9.62876 86.448 9.31986L86.6009 9.62876Z" fill="#98005F"/>
<path d="M84.5745 28.4087C85.4587 28.4087 86.1755 27.6848 86.1755 26.7918C86.1755 25.8988 85.4587 25.1749 84.5745 25.1749C83.6902 25.1749 82.9734 25.8988 82.9734 26.7918C82.9734 27.6848 83.6902 28.4087 84.5745 28.4087Z" fill="#98005F"/>
<path d="M84.5745 32.878C85.4587 32.878 86.1755 32.1541 86.1755 31.2611C86.1755 30.3681 85.4587 29.6442 84.5745 29.6442C83.6902 29.6442 82.9734 30.3681 82.9734 31.2611C82.9734 32.1541 83.6902 32.878 84.5745 32.878Z" fill="#98005F"/>
<path d="M102.956 28.4087C103.84 28.4087 104.557 27.6848 104.557 26.7918C104.557 25.8988 103.84 25.1749 102.956 25.1749C102.071 25.1749 101.354 25.8988 101.354 26.7918C101.354 27.6848 102.071 28.4087 102.956 28.4087Z" fill="#98005F"/>
<path d="M102.956 32.878C103.84 32.878 104.557 32.1541 104.557 31.2611C104.557 30.3681 103.84 29.6442 102.956 29.6442C102.071 29.6442 101.354 30.3681 101.354 31.2611C101.354 32.1541 102.071 32.878 102.956 32.878Z" fill="#98005F"/>
<path d="M20.9046 31.3721C20.9046 34.2969 19.8628 36.5992 17.779 38.2836C15.6952 39.9681 12.7942 40.8079 9.08066 40.8079C5.65869 40.8079 2.63339 40.1563 0 38.858V32.4774C2.16502 33.4523 3.99549 34.1377 5.49619 34.5383C6.99689 34.9389 8.36377 35.1368 9.61116 35.1368C11.1023 35.1368 12.2493 34.8472 13.0427 34.2728C13.8408 33.6985 14.2375 32.8394 14.2375 31.7051C14.2375 31.068 14.0607 30.5033 13.7118 30.011C13.3629 29.5187 12.8467 29.0409 12.1633 28.5824C11.4846 28.1239 10.0987 27.3951 8.00532 26.3912C6.04581 25.4597 4.57379 24.5668 3.59403 23.7125C2.61427 22.8582 1.83047 21.8591 1.2474 20.7201C0.664322 19.581 0.368006 18.2537 0.368006 16.7334C0.368006 13.8665 1.32864 11.6173 3.2547 9.97633C5.17598 8.33533 7.83326 7.51965 11.2266 7.51965C12.8945 7.51965 14.486 7.71754 15.9963 8.11814C17.5066 8.51873 19.0933 9.07861 20.7469 9.80258L18.5532 15.1407C16.8422 14.4312 15.4276 13.9389 14.3092 13.6541C13.1909 13.3742 12.0916 13.2342 11.0067 13.2342C9.72109 13.2342 8.73177 13.5383 8.04355 14.1416C7.35534 14.7449 7.01123 15.5364 7.01123 16.5114C7.01123 17.1147 7.14983 17.6456 7.42702 18.0945C7.70422 18.5433 8.1487 18.9825 8.75567 19.4024C9.36264 19.8223 10.8012 20.5801 13.0666 21.6709C16.0632 23.1188 18.1183 24.5716 19.2319 26.0244C20.3455 27.4771 20.8999 29.2629 20.8999 31.3721H20.9046Z" fill="#20B2AA"/>
<path d="M36.5234 35.4264C37.6943 35.4264 39.0994 35.1657 40.7339 34.6493V39.6785C39.0659 40.4314 37.0204 40.8079 34.5925 40.8079C31.9161 40.8079 29.9662 40.1225 28.7474 38.7566C27.5239 37.3907 26.917 35.3395 26.917 32.6077V20.667H23.7148V17.8097L27.3997 15.5509L29.3305 10.3239H33.608V15.5944H40.4758V20.667H33.608V32.6077C33.608 33.5682 33.8756 34.2777 34.4109 34.7362C34.9462 35.1947 35.6487 35.4215 36.5281 35.4215L36.5234 35.4264Z" fill="#20B2AA"/>
<path d="M63.0677 40.3638L62.1692 37.1977H61.8203C61.1034 38.3512 60.0854 39.2393 58.7711 39.8667C57.4568 40.4942 55.9561 40.8079 54.2738 40.8079C51.3919 40.8079 49.2221 40.0308 47.7596 38.4719C46.2972 36.9129 45.5659 34.6734 45.5659 31.7486V15.5992H52.2569V30.0641C52.2569 31.8499 52.5724 33.1917 53.1985 34.0846C53.8293 34.9775 54.8282 35.4263 56.2046 35.4263C58.0781 35.4263 59.4307 34.7941 60.2622 33.5344C61.0938 32.2747 61.5144 30.18 61.5144 27.2551V15.604H68.2054V40.3687H63.0725L63.0677 40.3638Z" fill="#20B2AA"/>
<path d="M101.88 36.7295C103.027 36.7295 104.399 36.4785 106 35.9718V40.8948C104.37 41.6332 102.363 42 99.9876 42C97.3686 42 95.4616 41.334 94.2668 39.9922C93.072 38.6553 92.4746 36.6523 92.4746 33.9736V22.2887H89.3394V19.4893L92.9477 17.2788L99.0222 17.3222H105.742V22.2887H99.0222V33.9736C99.0222 34.9148 99.2851 35.6049 99.806 36.0538C100.327 36.5027 101.02 36.7247 101.875 36.7247L101.88 36.7295Z" fill="#98005F"/>
<path d="M82.7919 36.7295C83.9389 36.7295 85.3105 36.4785 86.9116 35.9718V40.8948C85.2819 41.6332 83.2746 42 80.8993 42C78.2802 42 76.3733 41.334 75.1784 39.9922C73.9836 38.6553 73.3862 36.6523 73.3862 33.9736V22.2887H70.251V19.4893L73.8593 17.2788L79.9338 17.3222H86.6535V22.2887H79.9338V33.9736C79.9338 34.9148 80.1967 35.6049 80.7176 36.0538C81.2386 36.5027 81.9316 36.7247 82.7871 36.7247L82.7919 36.7295Z" fill="#98005F"/>
</g>
<defs>
<clipPath id="clip0_46_17">
<rect width="106" height="42" fill="white"/>
</clipPath>
</defs>
</svg>
