<svg width="40" height="40" viewBox="0 0 40 40" fill="none" xmlns="http://www.w3.org/2000/svg">
<path d="M19.9167 2C10.0213 2 2 10.0213 2 19.9167C2 29.812 10.0213 37.8333 19.9167 37.8333C29.812 37.8333 37.8333 29.812 37.8333 19.9167C37.8333 10.0213 29.812 2 19.9167 2Z" stroke="white" stroke-width="3.4375" stroke-linecap="round" stroke-linejoin="round"/>
<path d="M6.06885 31.2867C6.06885 31.2867 10.0625 26.1876 19.9166 26.1876C29.7708 26.1876 33.7662 31.2867 33.7662 31.2867M19.9166 19.9167C21.3422 19.9167 22.7093 19.3505 23.7173 18.3424C24.7253 17.3344 25.2916 15.9673 25.2916 14.5417C25.2916 13.1162 24.7253 11.7491 23.7173 10.741C22.7093 9.73304 21.3422 9.16675 19.9166 9.16675C18.4911 9.16675 17.1239 9.73304 16.1159 10.741C15.1079 11.7491 14.5416 13.1162 14.5416 14.5417C14.5416 15.9673 15.1079 17.3344 16.1159 18.3424C17.1239 19.3505 18.4911 19.9167 19.9166 19.9167Z" stroke="white" stroke-width="3.4375" stroke-linecap="round" stroke-linejoin="round"/>
</svg>
