<svg width="35" height="36" viewBox="0 0 35 36" fill="none" xmlns="http://www.w3.org/2000/svg">
<circle cx="17.4453" cy="18.1111" r="17.3398" fill="url(#paint0_linear_91_6971)" fill-opacity="0.15"/>
<path d="M13.1858 22.5904L9.24109 18.5791C9.02869 18.3626 8.74034 18.241 8.43963 18.241C8.13893 18.241 7.85057 18.3626 7.63818 18.5791C7.19482 19.0299 7.19482 19.7582 7.63818 20.209L12.3901 25.0411C12.8334 25.4919 13.5496 25.4919 13.993 25.0411L26.0204 12.8107C26.4638 12.3599 26.4638 11.6316 26.0204 11.1808C25.808 10.9643 25.5197 10.8427 25.219 10.8427C24.9183 10.8427 24.6299 10.9643 24.4175 11.1808L13.1858 22.5904Z" fill="url(#paint1_linear_91_6971)" stroke="url(#paint2_linear_91_6971)" stroke-width="1.23856"/>
<defs>
<linearGradient id="paint0_linear_91_6971" x1="29.4098" y1="19.556" x2="5.13402" y2="19.556" gradientUnits="userSpaceOnUse">
<stop stop-color="#20B2AA"/>
<stop offset="1" stop-color="#7FDD53"/>
</linearGradient>
<linearGradient id="paint1_linear_91_6971" x1="23.4006" y1="18.7166" x2="10.0675" y2="18.7166" gradientUnits="userSpaceOnUse">
<stop stop-color="#2FEA9B"/>
<stop offset="1" stop-color="#7FDD53"/>
</linearGradient>
<linearGradient id="paint2_linear_91_6971" x1="23.4006" y1="18.7166" x2="10.0675" y2="18.7166" gradientUnits="userSpaceOnUse">
<stop stop-color="#2FEA9B"/>
<stop offset="1" stop-color="#7FDD53"/>
</linearGradient>
</defs>
</svg>
