<svg width="40" height="40" viewBox="0 0 40 40" fill="none" xmlns="http://www.w3.org/2000/svg">
<path d="M19.9167 2C10.0213 2 2 10.0213 2 19.9167C2 29.812 10.0213 37.8333 19.9167 37.8333C29.812 37.8333 37.8333 29.812 37.8333 19.9167C37.8333 10.0213 29.812 2 19.9167 2Z" stroke="black" stroke-width="3.4375" stroke-linecap="round" stroke-linejoin="round"/>
<path d="M6.06836 31.2867C6.06836 31.2867 10.062 26.1876 19.9162 26.1876C29.7703 26.1876 33.7657 31.2867 33.7657 31.2867M19.9162 19.9167C21.3417 19.9167 22.7088 19.3505 23.7169 18.3424C24.7249 17.3344 25.2912 15.9673 25.2912 14.5417C25.2912 13.1162 24.7249 11.7491 23.7169 10.741C22.7088 9.73304 21.3417 9.16675 19.9162 9.16675C18.4906 9.16675 17.1235 9.73304 16.1155 10.741C15.1074 11.7491 14.5412 13.1162 14.5412 14.5417C14.5412 15.9673 15.1074 17.3344 16.1155 18.3424C17.1235 19.3505 18.4906 19.9167 19.9162 19.9167Z" stroke="black" stroke-width="3.4375" stroke-linecap="round" stroke-linejoin="round"/>
</svg>
