<svg width="20" height="20" viewBox="0 0 20 20" fill="none" xmlns="http://www.w3.org/2000/svg">
<g clip-path="url(#clip0_91_6868)">
<path d="M5.36656 17.3398H2.47659C2.02245 17.3398 1.65088 16.9682 1.65088 16.5141V8.25699C1.65088 7.80286 2.02245 7.43129 2.47659 7.43129H5.36656C5.8207 7.43129 6.19226 7.80286 6.19226 8.25699V16.5141C6.19226 16.9682 5.8207 17.3398 5.36656 17.3398ZM11.3529 2.47705H8.46296C8.00882 2.47705 7.63725 2.84862 7.63725 3.30276V16.5141C7.63725 16.9682 8.00882 17.3398 8.46296 17.3398H11.3529C11.8071 17.3398 12.1786 16.9682 12.1786 16.5141V3.30276C12.1786 2.84862 11.8071 2.47705 11.3529 2.47705ZM17.3393 9.0827H14.4493C13.9952 9.0827 13.6236 9.45427 13.6236 9.90841V16.5141C13.6236 16.9682 13.9952 17.3398 14.4493 17.3398H17.3393C17.7934 17.3398 18.165 16.9682 18.165 16.5141V9.90841C18.165 9.45427 17.7934 9.0827 17.3393 9.0827Z" fill="url(#paint0_linear_91_6868)"/>
</g>
<defs>
<linearGradient id="paint0_linear_91_6868" x1="9.90794" y1="2.47705" x2="9.90794" y2="17.3398" gradientUnits="userSpaceOnUse">
<stop stop-color="#967CFD"/>
<stop offset="1" stop-color="#3177FF"/>
</linearGradient>
<clipPath id="clip0_91_6868">
<rect width="19.817" height="19.817" fill="white"/>
</clipPath>
</defs>
</svg>
