<svg width="281" height="27" viewBox="0 0 281 27" fill="none" xmlns="http://www.w3.org/2000/svg">
<path d="M13.5077 21.1981L19.3226 24.8902C20.0725 25.3632 20.9956 24.6594 20.7763 23.7941L19.0919 17.1715C19.0463 16.9879 19.0535 16.7952 19.1127 16.6156C19.1719 16.436 19.2807 16.2767 19.4264 16.1562L24.6414 11.8065C25.3222 11.2412 24.976 10.099 24.0876 10.0413L17.2804 9.60283C17.0947 9.59203 16.9161 9.52735 16.7666 9.41671C16.617 9.30606 16.5029 9.15424 16.4382 8.9798L13.8999 2.58797C13.8327 2.40326 13.7103 2.24369 13.5493 2.13094C13.3883 2.01819 13.1966 1.9577 13 1.9577C12.8034 1.9577 12.6117 2.01819 12.4507 2.13094C12.2897 2.24369 12.1673 2.40326 12.1001 2.58797L9.56179 8.9798C9.4971 9.15424 9.383 9.30606 9.23343 9.41671C9.08385 9.52735 8.90529 9.59203 8.71955 9.60283L1.91237 10.0413C1.02397 10.099 0.677844 11.2412 1.35856 11.8065L6.57356 16.1562C6.71932 16.2767 6.82806 16.436 6.88726 16.6156C6.94645 16.7952 6.9537 16.9879 6.90815 17.1715L5.35057 23.3095C5.08521 24.3479 6.19282 25.1901 7.08121 24.6248L12.4923 21.1981C12.6441 21.1016 12.8202 21.0504 13 21.0504C13.1798 21.0504 13.3559 21.1016 13.5077 21.1981Z" fill="#F8D57E" stroke="#F8D57E" stroke-width="2" stroke-linecap="round" stroke-linejoin="round"/>
<path d="M42.5077 21.1981L48.3226 24.8902C49.0725 25.3632 49.9956 24.6594 49.7763 23.7941L48.0919 17.1715C48.0463 16.9879 48.0535 16.7952 48.1127 16.6156C48.1719 16.436 48.2807 16.2767 48.4264 16.1562L53.6414 11.8065C54.3222 11.2412 53.976 10.099 53.0876 10.0413L46.2804 9.60283C46.0947 9.59203 45.9161 9.52735 45.7666 9.41671C45.617 9.30606 45.5029 9.15424 45.4382 8.9798L42.8999 2.58797C42.8327 2.40326 42.7103 2.24369 42.5493 2.13094C42.3883 2.01819 42.1966 1.9577 42 1.9577C41.8034 1.9577 41.6117 2.01819 41.4507 2.13094C41.2897 2.24369 41.1673 2.40326 41.1001 2.58797L38.5618 8.9798C38.4971 9.15424 38.383 9.30606 38.2334 9.41671C38.0839 9.52735 37.9053 9.59203 37.7196 9.60283L30.9124 10.0413C30.024 10.099 29.6778 11.2412 30.3586 11.8065L35.5736 16.1562C35.7193 16.2767 35.8281 16.436 35.8873 16.6156C35.9465 16.7952 35.9537 16.9879 35.9081 17.1715L34.3506 23.3095C34.0852 24.3479 35.1928 25.1901 36.0812 24.6248L41.4923 21.1981C41.6441 21.1016 41.8202 21.0504 42 21.0504C42.1798 21.0504 42.3559 21.1016 42.5077 21.1981Z" fill="#F8D57E" stroke="#F8D57E" stroke-width="2" stroke-linecap="round" stroke-linejoin="round"/>
<path d="M71.5077 21.1981L77.3226 24.8902C78.0725 25.3632 78.9956 24.6594 78.7763 23.7941L77.0919 17.1715C77.0463 16.9879 77.0535 16.7952 77.1127 16.6156C77.1719 16.436 77.2807 16.2767 77.4264 16.1562L82.6414 11.8065C83.3222 11.2412 82.976 10.099 82.0876 10.0413L75.2804 9.60283C75.0947 9.59203 74.9161 9.52735 74.7666 9.41671C74.617 9.30606 74.5029 9.15424 74.4382 8.9798L71.8999 2.58797C71.8327 2.40326 71.7103 2.24369 71.5493 2.13094C71.3883 2.01819 71.1966 1.9577 71 1.9577C70.8034 1.9577 70.6117 2.01819 70.4507 2.13094C70.2897 2.24369 70.1673 2.40326 70.1001 2.58797L67.5618 8.9798C67.4971 9.15424 67.383 9.30606 67.2334 9.41671C67.0839 9.52735 66.9053 9.59203 66.7196 9.60283L59.9124 10.0413C59.024 10.099 58.6778 11.2412 59.3586 11.8065L64.5736 16.1562C64.7193 16.2767 64.8281 16.436 64.8873 16.6156C64.9465 16.7952 64.9537 16.9879 64.9081 17.1715L63.3506 23.3095C63.0852 24.3479 64.1928 25.1901 65.0812 24.6248L70.4923 21.1981C70.6441 21.1016 70.8202 21.0504 71 21.0504C71.1798 21.0504 71.3559 21.1016 71.5077 21.1981Z" fill="#F8D57E" stroke="#F8D57E" stroke-width="2" stroke-linecap="round" stroke-linejoin="round"/>
<path d="M100.508 21.1981L106.323 24.8902C107.073 25.3632 107.996 24.6594 107.776 23.7941L106.092 17.1715C106.046 16.9879 106.054 16.7952 106.113 16.6156C106.172 16.436 106.281 16.2767 106.426 16.1562L111.641 11.8065C112.322 11.2412 111.976 10.099 111.088 10.0413L104.28 9.60283C104.095 9.59203 103.916 9.52735 103.767 9.41671C103.617 9.30606 103.503 9.15424 103.438 8.9798L100.9 2.58797C100.833 2.40326 100.71 2.24369 100.549 2.13094C100.388 2.01819 100.197 1.9577 100 1.9577C99.8034 1.9577 99.6117 2.01819 99.4507 2.13094C99.2897 2.24369 99.1673 2.40326 99.1001 2.58797L96.5618 8.9798C96.4971 9.15424 96.383 9.30606 96.2334 9.41671C96.0839 9.52735 95.9053 9.59203 95.7196 9.60283L88.9124 10.0413C88.024 10.099 87.6778 11.2412 88.3586 11.8065L93.5736 16.1562C93.7193 16.2767 93.8281 16.436 93.8873 16.6156C93.9465 16.7952 93.9537 16.9879 93.9081 17.1715L92.3506 23.3095C92.0852 24.3479 93.1928 25.1901 94.0812 24.6248L99.4923 21.1981C99.6441 21.1016 99.8202 21.0504 100 21.0504C100.18 21.0504 100.356 21.1016 100.508 21.1981Z" fill="#F8D57E" stroke="#F8D57E" stroke-width="2" stroke-linecap="round" stroke-linejoin="round"/>
<path d="M129.508 21.1981L135.323 24.8902C136.073 25.3632 136.996 24.6594 136.776 23.7941L135.092 17.1715C135.046 16.9879 135.054 16.7952 135.113 16.6156C135.172 16.436 135.281 16.2767 135.426 16.1562L140.641 11.8065C141.322 11.2412 140.976 10.099 140.088 10.0413L133.28 9.60283C133.095 9.59203 132.916 9.52735 132.767 9.41671C132.617 9.30606 132.503 9.15424 132.438 8.9798L129.9 2.58797C129.833 2.40326 129.71 2.24369 129.549 2.13094C129.388 2.01819 129.197 1.9577 129 1.9577C128.803 1.9577 128.612 2.01819 128.451 2.13094C128.29 2.24369 128.167 2.40326 128.1 2.58797L125.562 8.9798C125.497 9.15424 125.383 9.30606 125.233 9.41671C125.084 9.52735 124.905 9.59203 124.72 9.60283L117.912 10.0413C117.024 10.099 116.678 11.2412 117.359 11.8065L122.574 16.1562C122.719 16.2767 122.828 16.436 122.887 16.6156C122.946 16.7952 122.954 16.9879 122.908 17.1715L121.351 23.3095C121.085 24.3479 122.193 25.1901 123.081 24.6248L128.492 21.1981C128.644 21.1016 128.82 21.0504 129 21.0504C129.18 21.0504 129.356 21.1016 129.508 21.1981Z" fill="#F8D57E" stroke="#F8D57E" stroke-width="2" stroke-linecap="round" stroke-linejoin="round"/>
</svg>
